G04 #@! TF.GenerationSoftware,KiCad,Pcbnew,5.0.0*
G04 #@! TF.CreationDate,2018-10-27T20:33:49+02:00*
G04 #@! TF.ProjectId,SimpleBatDetector,53696D706C654261744465746563746F,rev?*
G04 #@! TF.SameCoordinates,Original*
G04 #@! TF.FileFunction,Legend,Top*
G04 #@! TF.FilePolarity,Positive*
%FSLAX46Y46*%
G04 Gerber Fmt 4.6, Leading zero omitted, Abs format (unit mm)*
G04 Created by KiCad (PCBNEW 5.0.0) date Sat Oct 27 20:33:49 2018*
%MOMM*%
%LPD*%
G01*
G04 APERTURE LIST*
%ADD10C,0.120000*%
%ADD11C,0.150000*%
G04 APERTURE END LIST*
D10*
G04 #@! TO.C,J1*
X85900000Y-59050000D02*
X91100000Y-59050000D01*
X85900000Y-76950000D02*
X91100000Y-76950000D01*
X84460000Y-59620000D02*
X85900000Y-59620000D01*
X85900000Y-59050000D02*
X85900000Y-59620000D01*
X91100000Y-59050000D02*
X91100000Y-59620000D01*
X85900000Y-76380000D02*
X85900000Y-76950000D01*
X91100000Y-76380000D02*
X91100000Y-76950000D01*
X85900000Y-61140000D02*
X85900000Y-62160000D01*
X91100000Y-61140000D02*
X91100000Y-62160000D01*
X85900000Y-63680000D02*
X85900000Y-64700000D01*
X91100000Y-63680000D02*
X91100000Y-64700000D01*
X85900000Y-66220000D02*
X85900000Y-67240000D01*
X91100000Y-66220000D02*
X91100000Y-67240000D01*
X85900000Y-68760000D02*
X85900000Y-69780000D01*
X91100000Y-68760000D02*
X91100000Y-69780000D01*
X85900000Y-71300000D02*
X85900000Y-72320000D01*
X91100000Y-71300000D02*
X91100000Y-72320000D01*
X85900000Y-73840000D02*
X85900000Y-74860000D01*
X91100000Y-73840000D02*
X91100000Y-74860000D01*
G04 #@! TO.C,R8*
X105261252Y-57210000D02*
X104738748Y-57210000D01*
X105261252Y-55790000D02*
X104738748Y-55790000D01*
G04 #@! TO.C,C1*
X110650000Y-85160000D02*
X110650000Y-84660000D01*
X110900000Y-84910000D02*
X110400000Y-84910000D01*
X110160000Y-82154437D02*
X109095563Y-81090000D01*
X110160000Y-84545563D02*
X109095563Y-85610000D01*
X110160000Y-84545563D02*
X110160000Y-84410000D01*
X110160000Y-82154437D02*
X110160000Y-82290000D01*
X109095563Y-81090000D02*
X105640000Y-81090000D01*
X109095563Y-85610000D02*
X105640000Y-85610000D01*
X105640000Y-85610000D02*
X105640000Y-84410000D01*
X105640000Y-81090000D02*
X105640000Y-82290000D01*
G04 #@! TO.C,C4*
X115260000Y-58260000D02*
X115260000Y-57060000D01*
X115260000Y-53740000D02*
X115260000Y-54940000D01*
X111804437Y-53740000D02*
X115260000Y-53740000D01*
X111804437Y-58260000D02*
X115260000Y-58260000D01*
X110740000Y-57195563D02*
X110740000Y-57060000D01*
X110740000Y-54804437D02*
X110740000Y-54940000D01*
X110740000Y-54804437D02*
X111804437Y-53740000D01*
X110740000Y-57195563D02*
X111804437Y-58260000D01*
X110000000Y-54440000D02*
X110500000Y-54440000D01*
X110250000Y-54190000D02*
X110250000Y-54690000D01*
G04 #@! TO.C,C5*
X123750000Y-57810000D02*
X123750000Y-57310000D01*
X124000000Y-57560000D02*
X123500000Y-57560000D01*
X123260000Y-54804437D02*
X122195563Y-53740000D01*
X123260000Y-57195563D02*
X122195563Y-58260000D01*
X123260000Y-57195563D02*
X123260000Y-57060000D01*
X123260000Y-54804437D02*
X123260000Y-54940000D01*
X122195563Y-53740000D02*
X118740000Y-53740000D01*
X122195563Y-58260000D02*
X118740000Y-58260000D01*
X118740000Y-58260000D02*
X118740000Y-57060000D01*
X118740000Y-53740000D02*
X118740000Y-54940000D01*
G04 #@! TO.C,C13*
X78260000Y-82760000D02*
X78260000Y-81560000D01*
X78260000Y-78240000D02*
X78260000Y-79440000D01*
X74804437Y-78240000D02*
X78260000Y-78240000D01*
X74804437Y-82760000D02*
X78260000Y-82760000D01*
X73740000Y-81695563D02*
X73740000Y-81560000D01*
X73740000Y-79304437D02*
X73740000Y-79440000D01*
X73740000Y-79304437D02*
X74804437Y-78240000D01*
X73740000Y-81695563D02*
X74804437Y-82760000D01*
X73000000Y-78940000D02*
X73500000Y-78940000D01*
X73250000Y-78690000D02*
X73250000Y-79190000D01*
G04 #@! TO.C,C7*
X114740000Y-77760000D02*
X117490000Y-77760000D01*
X123260000Y-77760000D02*
X120510000Y-77760000D01*
X123260000Y-70304437D02*
X123260000Y-77760000D01*
X114740000Y-70304437D02*
X114740000Y-77760000D01*
X115804437Y-69240000D02*
X117490000Y-69240000D01*
X122195563Y-69240000D02*
X120510000Y-69240000D01*
X122195563Y-69240000D02*
X123260000Y-70304437D01*
X115804437Y-69240000D02*
X114740000Y-70304437D01*
X121510000Y-68000000D02*
X121510000Y-69000000D01*
X122010000Y-68500000D02*
X121010000Y-68500000D01*
G04 #@! TO.C,C12*
X102161252Y-85890000D02*
X101638748Y-85890000D01*
X102161252Y-87310000D02*
X101638748Y-87310000D01*
G04 #@! TO.C,C11*
X89761252Y-86710000D02*
X89238748Y-86710000D01*
X89761252Y-85290000D02*
X89238748Y-85290000D01*
G04 #@! TO.C,C10*
X94610000Y-86661252D02*
X94610000Y-86138748D01*
X93190000Y-86661252D02*
X93190000Y-86138748D01*
G04 #@! TO.C,C9*
X88290000Y-81761252D02*
X88290000Y-81238748D01*
X89710000Y-81761252D02*
X89710000Y-81238748D01*
G04 #@! TO.C,C6*
X126210000Y-70261252D02*
X126210000Y-69738748D01*
X124790000Y-70261252D02*
X124790000Y-69738748D01*
G04 #@! TO.C,C3*
X95790000Y-62761252D02*
X95790000Y-62238748D01*
X97210000Y-62761252D02*
X97210000Y-62238748D01*
G04 #@! TO.C,C2*
X93388748Y-83110000D02*
X93911252Y-83110000D01*
X93388748Y-81690000D02*
X93911252Y-81690000D01*
G04 #@! TO.C,C8*
X97510000Y-74538748D02*
X97510000Y-75061252D01*
X96090000Y-74538748D02*
X96090000Y-75061252D01*
G04 #@! TO.C,J2*
X137150000Y-63750000D02*
X135650000Y-63750000D01*
X137150000Y-62050000D02*
X137150000Y-63750000D01*
X136900000Y-53850000D02*
X128100000Y-53850000D01*
X128100000Y-57650000D02*
X128100000Y-49950000D01*
X128100000Y-49950000D02*
X136900000Y-49950000D01*
X136900000Y-49950000D02*
X136900000Y-50150000D01*
X129950000Y-63550000D02*
X128100000Y-63550000D01*
X128100000Y-63550000D02*
X128100000Y-62700000D01*
X136900000Y-50050000D02*
X136900000Y-63550000D01*
X136900000Y-63550000D02*
X135050000Y-63550000D01*
G04 #@! TO.C,BT1*
X122170000Y-85330000D02*
X122170000Y-84000000D01*
X123500000Y-85330000D02*
X122170000Y-85330000D01*
X124770000Y-85330000D02*
X124770000Y-82670000D01*
X124770000Y-82670000D02*
X127370000Y-82670000D01*
X124770000Y-85330000D02*
X127370000Y-85330000D01*
X127370000Y-85330000D02*
X127370000Y-82670000D01*
G04 #@! TO.C,SW1*
X131630000Y-68730000D02*
X128970000Y-68730000D01*
X131630000Y-71330000D02*
X131630000Y-68730000D01*
X128970000Y-71330000D02*
X128970000Y-68730000D01*
X131630000Y-71330000D02*
X128970000Y-71330000D01*
X131630000Y-72600000D02*
X131630000Y-73930000D01*
X131630000Y-73930000D02*
X130300000Y-73930000D01*
G04 #@! TO.C,MK1*
X133670000Y-80670000D02*
X135000000Y-80670000D01*
X133670000Y-82000000D02*
X133670000Y-80670000D01*
X133670000Y-83270000D02*
X136330000Y-83270000D01*
X136330000Y-83270000D02*
X136330000Y-85870000D01*
X133670000Y-83270000D02*
X133670000Y-85870000D01*
X133670000Y-85870000D02*
X136330000Y-85870000D01*
G04 #@! TO.C,LS1*
X133270000Y-73970000D02*
X135930000Y-73970000D01*
X133270000Y-71370000D02*
X133270000Y-73970000D01*
X135930000Y-71370000D02*
X135930000Y-73970000D01*
X133270000Y-71370000D02*
X135930000Y-71370000D01*
X133270000Y-70100000D02*
X133270000Y-68770000D01*
X133270000Y-68770000D02*
X134600000Y-68770000D01*
G04 #@! TO.C,JP1*
X91350000Y-54000000D02*
G75*
G02X92050000Y-54700000I0J-700000D01*
G01*
X92050000Y-55300000D02*
G75*
G02X91350000Y-56000000I-700000J0D01*
G01*
X89950000Y-56000000D02*
G75*
G02X89250000Y-55300000I0J700000D01*
G01*
X89250000Y-54700000D02*
G75*
G02X89950000Y-54000000I700000J0D01*
G01*
X89250000Y-55300000D02*
X89250000Y-54700000D01*
X91350000Y-56000000D02*
X89950000Y-56000000D01*
X92050000Y-54700000D02*
X92050000Y-55300000D01*
X89950000Y-54000000D02*
X91350000Y-54000000D01*
G04 #@! TO.C,JP2*
X84700000Y-54000000D02*
G75*
G02X85400000Y-54700000I0J-700000D01*
G01*
X85400000Y-55300000D02*
G75*
G02X84700000Y-56000000I-700000J0D01*
G01*
X83300000Y-56000000D02*
G75*
G02X82600000Y-55300000I0J700000D01*
G01*
X82600000Y-54700000D02*
G75*
G02X83300000Y-54000000I700000J0D01*
G01*
X82600000Y-55300000D02*
X82600000Y-54700000D01*
X84700000Y-56000000D02*
X83300000Y-56000000D01*
X85400000Y-54700000D02*
X85400000Y-55300000D01*
X83300000Y-54000000D02*
X84700000Y-54000000D01*
G04 #@! TO.C,D1*
X77000000Y-55560000D02*
X79860000Y-55560000D01*
X79860000Y-55560000D02*
X79860000Y-53640000D01*
X79860000Y-53640000D02*
X77000000Y-53640000D01*
D11*
G04 #@! TO.C,U3*
X77575000Y-72450000D02*
X77575000Y-72425000D01*
X73425000Y-72450000D02*
X73425000Y-72335000D01*
X73425000Y-63550000D02*
X73425000Y-63665000D01*
X77575000Y-63550000D02*
X77575000Y-63665000D01*
X77575000Y-72450000D02*
X73425000Y-72450000D01*
X77575000Y-63550000D02*
X73425000Y-63550000D01*
X77575000Y-72425000D02*
X78950000Y-72425000D01*
G04 #@! TO.C,U2*
X80425000Y-85575000D02*
X80475000Y-85575000D01*
X80425000Y-81425000D02*
X80570000Y-81425000D01*
X85575000Y-81425000D02*
X85430000Y-81425000D01*
X85575000Y-85575000D02*
X85430000Y-85575000D01*
X80425000Y-85575000D02*
X80425000Y-81425000D01*
X85575000Y-85575000D02*
X85575000Y-81425000D01*
X80475000Y-85575000D02*
X80475000Y-86975000D01*
G04 #@! TO.C,U1*
X103425000Y-78275000D02*
X103425000Y-76875000D01*
X98325000Y-78275000D02*
X98325000Y-82425000D01*
X103475000Y-78275000D02*
X103475000Y-82425000D01*
X98325000Y-78275000D02*
X98470000Y-78275000D01*
X98325000Y-82425000D02*
X98470000Y-82425000D01*
X103475000Y-82425000D02*
X103330000Y-82425000D01*
X103475000Y-78275000D02*
X103425000Y-78275000D01*
G04 #@! TO.C,U4*
X115925000Y-61925000D02*
X115925000Y-61975000D01*
X120075000Y-61925000D02*
X120075000Y-62070000D01*
X120075000Y-67075000D02*
X120075000Y-66930000D01*
X115925000Y-67075000D02*
X115925000Y-66930000D01*
X115925000Y-61925000D02*
X120075000Y-61925000D01*
X115925000Y-67075000D02*
X120075000Y-67075000D01*
X115925000Y-61975000D02*
X114525000Y-61975000D01*
D10*
G04 #@! TO.C,RV1*
X111521000Y-60880000D02*
X111521000Y-64817000D01*
X111521000Y-69184000D02*
X111521000Y-73120000D01*
X101480000Y-60880000D02*
X101480000Y-64817000D01*
X101480000Y-69184000D02*
X101480000Y-73120000D01*
X111521000Y-60880000D02*
X109871000Y-60880000D01*
X108129000Y-60880000D02*
X107370000Y-60880000D01*
X105629000Y-60880000D02*
X104870000Y-60880000D01*
X103130000Y-60880000D02*
X101480000Y-60880000D01*
X111521000Y-73120000D02*
X101480000Y-73120000D01*
G04 #@! TO.C,R3*
X126210000Y-74238748D02*
X126210000Y-74761252D01*
X124790000Y-74238748D02*
X124790000Y-74761252D01*
G04 #@! TO.C,R4*
X126261252Y-78290000D02*
X125738748Y-78290000D01*
X126261252Y-79710000D02*
X125738748Y-79710000D01*
G04 #@! TO.C,R5*
X107861252Y-79110000D02*
X107338748Y-79110000D01*
X107861252Y-77690000D02*
X107338748Y-77690000D01*
G04 #@! TO.C,R7*
X76738748Y-86210000D02*
X77261252Y-86210000D01*
X76738748Y-84790000D02*
X77261252Y-84790000D01*
G04 #@! TO.C,R6*
X95890000Y-86661252D02*
X95890000Y-86138748D01*
X97310000Y-86661252D02*
X97310000Y-86138748D01*
G04 #@! TO.C,R1*
X78261252Y-57290000D02*
X77738748Y-57290000D01*
X78261252Y-58710000D02*
X77738748Y-58710000D01*
G04 #@! TO.C,R2*
X97210000Y-56738748D02*
X97210000Y-57261252D01*
X95790000Y-56738748D02*
X95790000Y-57261252D01*
G04 #@! TO.C,J1*
D11*
X86366666Y-77252380D02*
X86366666Y-77966666D01*
X86319047Y-78109523D01*
X86223809Y-78204761D01*
X86080952Y-78252380D01*
X85985714Y-78252380D01*
X87366666Y-78252380D02*
X86795238Y-78252380D01*
X87080952Y-78252380D02*
X87080952Y-77252380D01*
X86985714Y-77395238D01*
X86890476Y-77490476D01*
X86795238Y-77538095D01*
G04 #@! TO.C,R8*
X104933333Y-55052380D02*
X104600000Y-54576190D01*
X104361904Y-55052380D02*
X104361904Y-54052380D01*
X104742857Y-54052380D01*
X104838095Y-54100000D01*
X104885714Y-54147619D01*
X104933333Y-54242857D01*
X104933333Y-54385714D01*
X104885714Y-54480952D01*
X104838095Y-54528571D01*
X104742857Y-54576190D01*
X104361904Y-54576190D01*
X105504761Y-54480952D02*
X105409523Y-54433333D01*
X105361904Y-54385714D01*
X105314285Y-54290476D01*
X105314285Y-54242857D01*
X105361904Y-54147619D01*
X105409523Y-54100000D01*
X105504761Y-54052380D01*
X105695238Y-54052380D01*
X105790476Y-54100000D01*
X105838095Y-54147619D01*
X105885714Y-54242857D01*
X105885714Y-54290476D01*
X105838095Y-54385714D01*
X105790476Y-54433333D01*
X105695238Y-54480952D01*
X105504761Y-54480952D01*
X105409523Y-54528571D01*
X105361904Y-54576190D01*
X105314285Y-54671428D01*
X105314285Y-54861904D01*
X105361904Y-54957142D01*
X105409523Y-55004761D01*
X105504761Y-55052380D01*
X105695238Y-55052380D01*
X105790476Y-55004761D01*
X105838095Y-54957142D01*
X105885714Y-54861904D01*
X105885714Y-54671428D01*
X105838095Y-54576190D01*
X105790476Y-54528571D01*
X105695238Y-54480952D01*
G04 #@! TO.C,C1*
X107733333Y-86907142D02*
X107685714Y-86954761D01*
X107542857Y-87002380D01*
X107447619Y-87002380D01*
X107304761Y-86954761D01*
X107209523Y-86859523D01*
X107161904Y-86764285D01*
X107114285Y-86573809D01*
X107114285Y-86430952D01*
X107161904Y-86240476D01*
X107209523Y-86145238D01*
X107304761Y-86050000D01*
X107447619Y-86002380D01*
X107542857Y-86002380D01*
X107685714Y-86050000D01*
X107733333Y-86097619D01*
X108685714Y-87002380D02*
X108114285Y-87002380D01*
X108400000Y-87002380D02*
X108400000Y-86002380D01*
X108304761Y-86145238D01*
X108209523Y-86240476D01*
X108114285Y-86288095D01*
G04 #@! TO.C,C4*
X114033333Y-59557142D02*
X113985714Y-59604761D01*
X113842857Y-59652380D01*
X113747619Y-59652380D01*
X113604761Y-59604761D01*
X113509523Y-59509523D01*
X113461904Y-59414285D01*
X113414285Y-59223809D01*
X113414285Y-59080952D01*
X113461904Y-58890476D01*
X113509523Y-58795238D01*
X113604761Y-58700000D01*
X113747619Y-58652380D01*
X113842857Y-58652380D01*
X113985714Y-58700000D01*
X114033333Y-58747619D01*
X114890476Y-58985714D02*
X114890476Y-59652380D01*
X114652380Y-58604761D02*
X114414285Y-59319047D01*
X115033333Y-59319047D01*
G04 #@! TO.C,C5*
X119533333Y-59457142D02*
X119485714Y-59504761D01*
X119342857Y-59552380D01*
X119247619Y-59552380D01*
X119104761Y-59504761D01*
X119009523Y-59409523D01*
X118961904Y-59314285D01*
X118914285Y-59123809D01*
X118914285Y-58980952D01*
X118961904Y-58790476D01*
X119009523Y-58695238D01*
X119104761Y-58600000D01*
X119247619Y-58552380D01*
X119342857Y-58552380D01*
X119485714Y-58600000D01*
X119533333Y-58647619D01*
X120438095Y-58552380D02*
X119961904Y-58552380D01*
X119914285Y-59028571D01*
X119961904Y-58980952D01*
X120057142Y-58933333D01*
X120295238Y-58933333D01*
X120390476Y-58980952D01*
X120438095Y-59028571D01*
X120485714Y-59123809D01*
X120485714Y-59361904D01*
X120438095Y-59457142D01*
X120390476Y-59504761D01*
X120295238Y-59552380D01*
X120057142Y-59552380D01*
X119961904Y-59504761D01*
X119914285Y-59457142D01*
G04 #@! TO.C,C13*
X75357142Y-77657142D02*
X75309523Y-77704761D01*
X75166666Y-77752380D01*
X75071428Y-77752380D01*
X74928571Y-77704761D01*
X74833333Y-77609523D01*
X74785714Y-77514285D01*
X74738095Y-77323809D01*
X74738095Y-77180952D01*
X74785714Y-76990476D01*
X74833333Y-76895238D01*
X74928571Y-76800000D01*
X75071428Y-76752380D01*
X75166666Y-76752380D01*
X75309523Y-76800000D01*
X75357142Y-76847619D01*
X76309523Y-77752380D02*
X75738095Y-77752380D01*
X76023809Y-77752380D02*
X76023809Y-76752380D01*
X75928571Y-76895238D01*
X75833333Y-76990476D01*
X75738095Y-77038095D01*
X76642857Y-76752380D02*
X77261904Y-76752380D01*
X76928571Y-77133333D01*
X77071428Y-77133333D01*
X77166666Y-77180952D01*
X77214285Y-77228571D01*
X77261904Y-77323809D01*
X77261904Y-77561904D01*
X77214285Y-77657142D01*
X77166666Y-77704761D01*
X77071428Y-77752380D01*
X76785714Y-77752380D01*
X76690476Y-77704761D01*
X76642857Y-77657142D01*
G04 #@! TO.C,C7*
X115333333Y-79057142D02*
X115285714Y-79104761D01*
X115142857Y-79152380D01*
X115047619Y-79152380D01*
X114904761Y-79104761D01*
X114809523Y-79009523D01*
X114761904Y-78914285D01*
X114714285Y-78723809D01*
X114714285Y-78580952D01*
X114761904Y-78390476D01*
X114809523Y-78295238D01*
X114904761Y-78200000D01*
X115047619Y-78152380D01*
X115142857Y-78152380D01*
X115285714Y-78200000D01*
X115333333Y-78247619D01*
X115666666Y-78152380D02*
X116333333Y-78152380D01*
X115904761Y-79152380D01*
G04 #@! TO.C,C12*
X101257142Y-88607142D02*
X101209523Y-88654761D01*
X101066666Y-88702380D01*
X100971428Y-88702380D01*
X100828571Y-88654761D01*
X100733333Y-88559523D01*
X100685714Y-88464285D01*
X100638095Y-88273809D01*
X100638095Y-88130952D01*
X100685714Y-87940476D01*
X100733333Y-87845238D01*
X100828571Y-87750000D01*
X100971428Y-87702380D01*
X101066666Y-87702380D01*
X101209523Y-87750000D01*
X101257142Y-87797619D01*
X102209523Y-88702380D02*
X101638095Y-88702380D01*
X101923809Y-88702380D02*
X101923809Y-87702380D01*
X101828571Y-87845238D01*
X101733333Y-87940476D01*
X101638095Y-87988095D01*
X102590476Y-87797619D02*
X102638095Y-87750000D01*
X102733333Y-87702380D01*
X102971428Y-87702380D01*
X103066666Y-87750000D01*
X103114285Y-87797619D01*
X103161904Y-87892857D01*
X103161904Y-87988095D01*
X103114285Y-88130952D01*
X102542857Y-88702380D01*
X103161904Y-88702380D01*
G04 #@! TO.C,C11*
X88857142Y-88007142D02*
X88809523Y-88054761D01*
X88666666Y-88102380D01*
X88571428Y-88102380D01*
X88428571Y-88054761D01*
X88333333Y-87959523D01*
X88285714Y-87864285D01*
X88238095Y-87673809D01*
X88238095Y-87530952D01*
X88285714Y-87340476D01*
X88333333Y-87245238D01*
X88428571Y-87150000D01*
X88571428Y-87102380D01*
X88666666Y-87102380D01*
X88809523Y-87150000D01*
X88857142Y-87197619D01*
X89809523Y-88102380D02*
X89238095Y-88102380D01*
X89523809Y-88102380D02*
X89523809Y-87102380D01*
X89428571Y-87245238D01*
X89333333Y-87340476D01*
X89238095Y-87388095D01*
X90761904Y-88102380D02*
X90190476Y-88102380D01*
X90476190Y-88102380D02*
X90476190Y-87102380D01*
X90380952Y-87245238D01*
X90285714Y-87340476D01*
X90190476Y-87388095D01*
G04 #@! TO.C,C10*
X92607142Y-87042857D02*
X92654761Y-87090476D01*
X92702380Y-87233333D01*
X92702380Y-87328571D01*
X92654761Y-87471428D01*
X92559523Y-87566666D01*
X92464285Y-87614285D01*
X92273809Y-87661904D01*
X92130952Y-87661904D01*
X91940476Y-87614285D01*
X91845238Y-87566666D01*
X91750000Y-87471428D01*
X91702380Y-87328571D01*
X91702380Y-87233333D01*
X91750000Y-87090476D01*
X91797619Y-87042857D01*
X92702380Y-86090476D02*
X92702380Y-86661904D01*
X92702380Y-86376190D02*
X91702380Y-86376190D01*
X91845238Y-86471428D01*
X91940476Y-86566666D01*
X91988095Y-86661904D01*
X91702380Y-85471428D02*
X91702380Y-85376190D01*
X91750000Y-85280952D01*
X91797619Y-85233333D01*
X91892857Y-85185714D01*
X92083333Y-85138095D01*
X92321428Y-85138095D01*
X92511904Y-85185714D01*
X92607142Y-85233333D01*
X92654761Y-85280952D01*
X92702380Y-85376190D01*
X92702380Y-85471428D01*
X92654761Y-85566666D01*
X92607142Y-85614285D01*
X92511904Y-85661904D01*
X92321428Y-85709523D01*
X92083333Y-85709523D01*
X91892857Y-85661904D01*
X91797619Y-85614285D01*
X91750000Y-85566666D01*
X91702380Y-85471428D01*
G04 #@! TO.C,C9*
X87707142Y-81666666D02*
X87754761Y-81714285D01*
X87802380Y-81857142D01*
X87802380Y-81952380D01*
X87754761Y-82095238D01*
X87659523Y-82190476D01*
X87564285Y-82238095D01*
X87373809Y-82285714D01*
X87230952Y-82285714D01*
X87040476Y-82238095D01*
X86945238Y-82190476D01*
X86850000Y-82095238D01*
X86802380Y-81952380D01*
X86802380Y-81857142D01*
X86850000Y-81714285D01*
X86897619Y-81666666D01*
X87802380Y-81190476D02*
X87802380Y-81000000D01*
X87754761Y-80904761D01*
X87707142Y-80857142D01*
X87564285Y-80761904D01*
X87373809Y-80714285D01*
X86992857Y-80714285D01*
X86897619Y-80761904D01*
X86850000Y-80809523D01*
X86802380Y-80904761D01*
X86802380Y-81095238D01*
X86850000Y-81190476D01*
X86897619Y-81238095D01*
X86992857Y-81285714D01*
X87230952Y-81285714D01*
X87326190Y-81238095D01*
X87373809Y-81190476D01*
X87421428Y-81095238D01*
X87421428Y-80904761D01*
X87373809Y-80809523D01*
X87326190Y-80761904D01*
X87230952Y-80714285D01*
G04 #@! TO.C,C6*
X125857142Y-66966666D02*
X125904761Y-67014285D01*
X125952380Y-67157142D01*
X125952380Y-67252380D01*
X125904761Y-67395238D01*
X125809523Y-67490476D01*
X125714285Y-67538095D01*
X125523809Y-67585714D01*
X125380952Y-67585714D01*
X125190476Y-67538095D01*
X125095238Y-67490476D01*
X125000000Y-67395238D01*
X124952380Y-67252380D01*
X124952380Y-67157142D01*
X125000000Y-67014285D01*
X125047619Y-66966666D01*
X124952380Y-66109523D02*
X124952380Y-66300000D01*
X125000000Y-66395238D01*
X125047619Y-66442857D01*
X125190476Y-66538095D01*
X125380952Y-66585714D01*
X125761904Y-66585714D01*
X125857142Y-66538095D01*
X125904761Y-66490476D01*
X125952380Y-66395238D01*
X125952380Y-66204761D01*
X125904761Y-66109523D01*
X125857142Y-66061904D01*
X125761904Y-66014285D01*
X125523809Y-66014285D01*
X125428571Y-66061904D01*
X125380952Y-66109523D01*
X125333333Y-66204761D01*
X125333333Y-66395238D01*
X125380952Y-66490476D01*
X125428571Y-66538095D01*
X125523809Y-66585714D01*
G04 #@! TO.C,C3*
X95207142Y-62666666D02*
X95254761Y-62714285D01*
X95302380Y-62857142D01*
X95302380Y-62952380D01*
X95254761Y-63095238D01*
X95159523Y-63190476D01*
X95064285Y-63238095D01*
X94873809Y-63285714D01*
X94730952Y-63285714D01*
X94540476Y-63238095D01*
X94445238Y-63190476D01*
X94350000Y-63095238D01*
X94302380Y-62952380D01*
X94302380Y-62857142D01*
X94350000Y-62714285D01*
X94397619Y-62666666D01*
X94302380Y-62333333D02*
X94302380Y-61714285D01*
X94683333Y-62047619D01*
X94683333Y-61904761D01*
X94730952Y-61809523D01*
X94778571Y-61761904D01*
X94873809Y-61714285D01*
X95111904Y-61714285D01*
X95207142Y-61761904D01*
X95254761Y-61809523D01*
X95302380Y-61904761D01*
X95302380Y-62190476D01*
X95254761Y-62285714D01*
X95207142Y-62333333D01*
G04 #@! TO.C,C2*
X93483333Y-81107142D02*
X93435714Y-81154761D01*
X93292857Y-81202380D01*
X93197619Y-81202380D01*
X93054761Y-81154761D01*
X92959523Y-81059523D01*
X92911904Y-80964285D01*
X92864285Y-80773809D01*
X92864285Y-80630952D01*
X92911904Y-80440476D01*
X92959523Y-80345238D01*
X93054761Y-80250000D01*
X93197619Y-80202380D01*
X93292857Y-80202380D01*
X93435714Y-80250000D01*
X93483333Y-80297619D01*
X93864285Y-80297619D02*
X93911904Y-80250000D01*
X94007142Y-80202380D01*
X94245238Y-80202380D01*
X94340476Y-80250000D01*
X94388095Y-80297619D01*
X94435714Y-80392857D01*
X94435714Y-80488095D01*
X94388095Y-80630952D01*
X93816666Y-81202380D01*
X94435714Y-81202380D01*
G04 #@! TO.C,C8*
X95357142Y-75066666D02*
X95404761Y-75114285D01*
X95452380Y-75257142D01*
X95452380Y-75352380D01*
X95404761Y-75495238D01*
X95309523Y-75590476D01*
X95214285Y-75638095D01*
X95023809Y-75685714D01*
X94880952Y-75685714D01*
X94690476Y-75638095D01*
X94595238Y-75590476D01*
X94500000Y-75495238D01*
X94452380Y-75352380D01*
X94452380Y-75257142D01*
X94500000Y-75114285D01*
X94547619Y-75066666D01*
X94880952Y-74495238D02*
X94833333Y-74590476D01*
X94785714Y-74638095D01*
X94690476Y-74685714D01*
X94642857Y-74685714D01*
X94547619Y-74638095D01*
X94500000Y-74590476D01*
X94452380Y-74495238D01*
X94452380Y-74304761D01*
X94500000Y-74209523D01*
X94547619Y-74161904D01*
X94642857Y-74114285D01*
X94690476Y-74114285D01*
X94785714Y-74161904D01*
X94833333Y-74209523D01*
X94880952Y-74304761D01*
X94880952Y-74495238D01*
X94928571Y-74590476D01*
X94976190Y-74638095D01*
X95071428Y-74685714D01*
X95261904Y-74685714D01*
X95357142Y-74638095D01*
X95404761Y-74590476D01*
X95452380Y-74495238D01*
X95452380Y-74304761D01*
X95404761Y-74209523D01*
X95357142Y-74161904D01*
X95261904Y-74114285D01*
X95071428Y-74114285D01*
X94976190Y-74161904D01*
X94928571Y-74209523D01*
X94880952Y-74304761D01*
G04 #@! TO.C,J2*
X126452380Y-56233333D02*
X127166666Y-56233333D01*
X127309523Y-56280952D01*
X127404761Y-56376190D01*
X127452380Y-56519047D01*
X127452380Y-56614285D01*
X126547619Y-55804761D02*
X126500000Y-55757142D01*
X126452380Y-55661904D01*
X126452380Y-55423809D01*
X126500000Y-55328571D01*
X126547619Y-55280952D01*
X126642857Y-55233333D01*
X126738095Y-55233333D01*
X126880952Y-55280952D01*
X127452380Y-55852380D01*
X127452380Y-55233333D01*
G04 #@! TO.C,BT1*
X121098571Y-84785714D02*
X121146190Y-84642857D01*
X121193809Y-84595238D01*
X121289047Y-84547619D01*
X121431904Y-84547619D01*
X121527142Y-84595238D01*
X121574761Y-84642857D01*
X121622380Y-84738095D01*
X121622380Y-85119047D01*
X120622380Y-85119047D01*
X120622380Y-84785714D01*
X120670000Y-84690476D01*
X120717619Y-84642857D01*
X120812857Y-84595238D01*
X120908095Y-84595238D01*
X121003333Y-84642857D01*
X121050952Y-84690476D01*
X121098571Y-84785714D01*
X121098571Y-85119047D01*
X120622380Y-84261904D02*
X120622380Y-83690476D01*
X121622380Y-83976190D02*
X120622380Y-83976190D01*
X121622380Y-82833333D02*
X121622380Y-83404761D01*
X121622380Y-83119047D02*
X120622380Y-83119047D01*
X120765238Y-83214285D01*
X120860476Y-83309523D01*
X120908095Y-83404761D01*
G04 #@! TO.C,SW1*
X130704761Y-76833333D02*
X130752380Y-76690476D01*
X130752380Y-76452380D01*
X130704761Y-76357142D01*
X130657142Y-76309523D01*
X130561904Y-76261904D01*
X130466666Y-76261904D01*
X130371428Y-76309523D01*
X130323809Y-76357142D01*
X130276190Y-76452380D01*
X130228571Y-76642857D01*
X130180952Y-76738095D01*
X130133333Y-76785714D01*
X130038095Y-76833333D01*
X129942857Y-76833333D01*
X129847619Y-76785714D01*
X129800000Y-76738095D01*
X129752380Y-76642857D01*
X129752380Y-76404761D01*
X129800000Y-76261904D01*
X129752380Y-75928571D02*
X130752380Y-75690476D01*
X130038095Y-75500000D01*
X130752380Y-75309523D01*
X129752380Y-75071428D01*
X130752380Y-74166666D02*
X130752380Y-74738095D01*
X130752380Y-74452380D02*
X129752380Y-74452380D01*
X129895238Y-74547619D01*
X129990476Y-74642857D01*
X130038095Y-74738095D01*
G04 #@! TO.C,MK1*
X133690476Y-80122380D02*
X133690476Y-79122380D01*
X134023809Y-79836666D01*
X134357142Y-79122380D01*
X134357142Y-80122380D01*
X134833333Y-80122380D02*
X134833333Y-79122380D01*
X135404761Y-80122380D02*
X134976190Y-79550952D01*
X135404761Y-79122380D02*
X134833333Y-79693809D01*
X136357142Y-80122380D02*
X135785714Y-80122380D01*
X136071428Y-80122380D02*
X136071428Y-79122380D01*
X135976190Y-79265238D01*
X135880952Y-79360476D01*
X135785714Y-79408095D01*
G04 #@! TO.C,LS1*
X135152380Y-76242857D02*
X135152380Y-76719047D01*
X134152380Y-76719047D01*
X135104761Y-75957142D02*
X135152380Y-75814285D01*
X135152380Y-75576190D01*
X135104761Y-75480952D01*
X135057142Y-75433333D01*
X134961904Y-75385714D01*
X134866666Y-75385714D01*
X134771428Y-75433333D01*
X134723809Y-75480952D01*
X134676190Y-75576190D01*
X134628571Y-75766666D01*
X134580952Y-75861904D01*
X134533333Y-75909523D01*
X134438095Y-75957142D01*
X134342857Y-75957142D01*
X134247619Y-75909523D01*
X134200000Y-75861904D01*
X134152380Y-75766666D01*
X134152380Y-75528571D01*
X134200000Y-75385714D01*
X135152380Y-74433333D02*
X135152380Y-75004761D01*
X135152380Y-74719047D02*
X134152380Y-74719047D01*
X134295238Y-74814285D01*
X134390476Y-74909523D01*
X134438095Y-75004761D01*
G04 #@! TO.C,JP1*
X89816666Y-52652380D02*
X89816666Y-53366666D01*
X89769047Y-53509523D01*
X89673809Y-53604761D01*
X89530952Y-53652380D01*
X89435714Y-53652380D01*
X90292857Y-53652380D02*
X90292857Y-52652380D01*
X90673809Y-52652380D01*
X90769047Y-52700000D01*
X90816666Y-52747619D01*
X90864285Y-52842857D01*
X90864285Y-52985714D01*
X90816666Y-53080952D01*
X90769047Y-53128571D01*
X90673809Y-53176190D01*
X90292857Y-53176190D01*
X91816666Y-53652380D02*
X91245238Y-53652380D01*
X91530952Y-53652380D02*
X91530952Y-52652380D01*
X91435714Y-52795238D01*
X91340476Y-52890476D01*
X91245238Y-52938095D01*
G04 #@! TO.C,JP2*
X83166666Y-52652380D02*
X83166666Y-53366666D01*
X83119047Y-53509523D01*
X83023809Y-53604761D01*
X82880952Y-53652380D01*
X82785714Y-53652380D01*
X83642857Y-53652380D02*
X83642857Y-52652380D01*
X84023809Y-52652380D01*
X84119047Y-52700000D01*
X84166666Y-52747619D01*
X84214285Y-52842857D01*
X84214285Y-52985714D01*
X84166666Y-53080952D01*
X84119047Y-53128571D01*
X84023809Y-53176190D01*
X83642857Y-53176190D01*
X84595238Y-52747619D02*
X84642857Y-52700000D01*
X84738095Y-52652380D01*
X84976190Y-52652380D01*
X85071428Y-52700000D01*
X85119047Y-52747619D01*
X85166666Y-52842857D01*
X85166666Y-52938095D01*
X85119047Y-53080952D01*
X84547619Y-53652380D01*
X85166666Y-53652380D01*
G04 #@! TO.C,D1*
X77261904Y-56702380D02*
X77261904Y-55702380D01*
X77500000Y-55702380D01*
X77642857Y-55750000D01*
X77738095Y-55845238D01*
X77785714Y-55940476D01*
X77833333Y-56130952D01*
X77833333Y-56273809D01*
X77785714Y-56464285D01*
X77738095Y-56559523D01*
X77642857Y-56654761D01*
X77500000Y-56702380D01*
X77261904Y-56702380D01*
X78785714Y-56702380D02*
X78214285Y-56702380D01*
X78500000Y-56702380D02*
X78500000Y-55702380D01*
X78404761Y-55845238D01*
X78309523Y-55940476D01*
X78214285Y-55988095D01*
G04 #@! TO.C,U3*
X73438095Y-73152380D02*
X73438095Y-73961904D01*
X73485714Y-74057142D01*
X73533333Y-74104761D01*
X73628571Y-74152380D01*
X73819047Y-74152380D01*
X73914285Y-74104761D01*
X73961904Y-74057142D01*
X74009523Y-73961904D01*
X74009523Y-73152380D01*
X74390476Y-73152380D02*
X75009523Y-73152380D01*
X74676190Y-73533333D01*
X74819047Y-73533333D01*
X74914285Y-73580952D01*
X74961904Y-73628571D01*
X75009523Y-73723809D01*
X75009523Y-73961904D01*
X74961904Y-74057142D01*
X74914285Y-74104761D01*
X74819047Y-74152380D01*
X74533333Y-74152380D01*
X74438095Y-74104761D01*
X74390476Y-74057142D01*
G04 #@! TO.C,U2*
X78952380Y-83961904D02*
X79761904Y-83961904D01*
X79857142Y-83914285D01*
X79904761Y-83866666D01*
X79952380Y-83771428D01*
X79952380Y-83580952D01*
X79904761Y-83485714D01*
X79857142Y-83438095D01*
X79761904Y-83390476D01*
X78952380Y-83390476D01*
X79047619Y-82961904D02*
X79000000Y-82914285D01*
X78952380Y-82819047D01*
X78952380Y-82580952D01*
X79000000Y-82485714D01*
X79047619Y-82438095D01*
X79142857Y-82390476D01*
X79238095Y-82390476D01*
X79380952Y-82438095D01*
X79952380Y-83009523D01*
X79952380Y-82390476D01*
G04 #@! TO.C,U1*
X96952380Y-79361904D02*
X97761904Y-79361904D01*
X97857142Y-79314285D01*
X97904761Y-79266666D01*
X97952380Y-79171428D01*
X97952380Y-78980952D01*
X97904761Y-78885714D01*
X97857142Y-78838095D01*
X97761904Y-78790476D01*
X96952380Y-78790476D01*
X97952380Y-77790476D02*
X97952380Y-78361904D01*
X97952380Y-78076190D02*
X96952380Y-78076190D01*
X97095238Y-78171428D01*
X97190476Y-78266666D01*
X97238095Y-78361904D01*
G04 #@! TO.C,U4*
X117238095Y-60452380D02*
X117238095Y-61261904D01*
X117285714Y-61357142D01*
X117333333Y-61404761D01*
X117428571Y-61452380D01*
X117619047Y-61452380D01*
X117714285Y-61404761D01*
X117761904Y-61357142D01*
X117809523Y-61261904D01*
X117809523Y-60452380D01*
X118714285Y-60785714D02*
X118714285Y-61452380D01*
X118476190Y-60404761D02*
X118238095Y-61119047D01*
X118857142Y-61119047D01*
G04 #@! TO.C,RV1*
X100952380Y-71895238D02*
X100476190Y-72228571D01*
X100952380Y-72466666D02*
X99952380Y-72466666D01*
X99952380Y-72085714D01*
X100000000Y-71990476D01*
X100047619Y-71942857D01*
X100142857Y-71895238D01*
X100285714Y-71895238D01*
X100380952Y-71942857D01*
X100428571Y-71990476D01*
X100476190Y-72085714D01*
X100476190Y-72466666D01*
X99952380Y-71609523D02*
X100952380Y-71276190D01*
X99952380Y-70942857D01*
X100952380Y-70085714D02*
X100952380Y-70657142D01*
X100952380Y-70371428D02*
X99952380Y-70371428D01*
X100095238Y-70466666D01*
X100190476Y-70561904D01*
X100238095Y-70657142D01*
G04 #@! TO.C,R3*
X127852380Y-74966666D02*
X127376190Y-75300000D01*
X127852380Y-75538095D02*
X126852380Y-75538095D01*
X126852380Y-75157142D01*
X126900000Y-75061904D01*
X126947619Y-75014285D01*
X127042857Y-74966666D01*
X127185714Y-74966666D01*
X127280952Y-75014285D01*
X127328571Y-75061904D01*
X127376190Y-75157142D01*
X127376190Y-75538095D01*
X126852380Y-74633333D02*
X126852380Y-74014285D01*
X127233333Y-74347619D01*
X127233333Y-74204761D01*
X127280952Y-74109523D01*
X127328571Y-74061904D01*
X127423809Y-74014285D01*
X127661904Y-74014285D01*
X127757142Y-74061904D01*
X127804761Y-74109523D01*
X127852380Y-74204761D01*
X127852380Y-74490476D01*
X127804761Y-74585714D01*
X127757142Y-74633333D01*
G04 #@! TO.C,R4*
X125733333Y-81352380D02*
X125400000Y-80876190D01*
X125161904Y-81352380D02*
X125161904Y-80352380D01*
X125542857Y-80352380D01*
X125638095Y-80400000D01*
X125685714Y-80447619D01*
X125733333Y-80542857D01*
X125733333Y-80685714D01*
X125685714Y-80780952D01*
X125638095Y-80828571D01*
X125542857Y-80876190D01*
X125161904Y-80876190D01*
X126590476Y-80685714D02*
X126590476Y-81352380D01*
X126352380Y-80304761D02*
X126114285Y-81019047D01*
X126733333Y-81019047D01*
G04 #@! TO.C,R5*
X107433333Y-80502380D02*
X107100000Y-80026190D01*
X106861904Y-80502380D02*
X106861904Y-79502380D01*
X107242857Y-79502380D01*
X107338095Y-79550000D01*
X107385714Y-79597619D01*
X107433333Y-79692857D01*
X107433333Y-79835714D01*
X107385714Y-79930952D01*
X107338095Y-79978571D01*
X107242857Y-80026190D01*
X106861904Y-80026190D01*
X108338095Y-79502380D02*
X107861904Y-79502380D01*
X107814285Y-79978571D01*
X107861904Y-79930952D01*
X107957142Y-79883333D01*
X108195238Y-79883333D01*
X108290476Y-79930952D01*
X108338095Y-79978571D01*
X108385714Y-80073809D01*
X108385714Y-80311904D01*
X108338095Y-80407142D01*
X108290476Y-80454761D01*
X108195238Y-80502380D01*
X107957142Y-80502380D01*
X107861904Y-80454761D01*
X107814285Y-80407142D01*
G04 #@! TO.C,R7*
X76833333Y-84302380D02*
X76500000Y-83826190D01*
X76261904Y-84302380D02*
X76261904Y-83302380D01*
X76642857Y-83302380D01*
X76738095Y-83350000D01*
X76785714Y-83397619D01*
X76833333Y-83492857D01*
X76833333Y-83635714D01*
X76785714Y-83730952D01*
X76738095Y-83778571D01*
X76642857Y-83826190D01*
X76261904Y-83826190D01*
X77166666Y-83302380D02*
X77833333Y-83302380D01*
X77404761Y-84302380D01*
G04 #@! TO.C,R6*
X95402380Y-86566666D02*
X94926190Y-86900000D01*
X95402380Y-87138095D02*
X94402380Y-87138095D01*
X94402380Y-86757142D01*
X94450000Y-86661904D01*
X94497619Y-86614285D01*
X94592857Y-86566666D01*
X94735714Y-86566666D01*
X94830952Y-86614285D01*
X94878571Y-86661904D01*
X94926190Y-86757142D01*
X94926190Y-87138095D01*
X94402380Y-85709523D02*
X94402380Y-85900000D01*
X94450000Y-85995238D01*
X94497619Y-86042857D01*
X94640476Y-86138095D01*
X94830952Y-86185714D01*
X95211904Y-86185714D01*
X95307142Y-86138095D01*
X95354761Y-86090476D01*
X95402380Y-85995238D01*
X95402380Y-85804761D01*
X95354761Y-85709523D01*
X95307142Y-85661904D01*
X95211904Y-85614285D01*
X94973809Y-85614285D01*
X94878571Y-85661904D01*
X94830952Y-85709523D01*
X94783333Y-85804761D01*
X94783333Y-85995238D01*
X94830952Y-86090476D01*
X94878571Y-86138095D01*
X94973809Y-86185714D01*
G04 #@! TO.C,R1*
X77833333Y-60102380D02*
X77500000Y-59626190D01*
X77261904Y-60102380D02*
X77261904Y-59102380D01*
X77642857Y-59102380D01*
X77738095Y-59150000D01*
X77785714Y-59197619D01*
X77833333Y-59292857D01*
X77833333Y-59435714D01*
X77785714Y-59530952D01*
X77738095Y-59578571D01*
X77642857Y-59626190D01*
X77261904Y-59626190D01*
X78785714Y-60102380D02*
X78214285Y-60102380D01*
X78500000Y-60102380D02*
X78500000Y-59102380D01*
X78404761Y-59245238D01*
X78309523Y-59340476D01*
X78214285Y-59388095D01*
G04 #@! TO.C,R2*
X98602380Y-57166666D02*
X98126190Y-57500000D01*
X98602380Y-57738095D02*
X97602380Y-57738095D01*
X97602380Y-57357142D01*
X97650000Y-57261904D01*
X97697619Y-57214285D01*
X97792857Y-57166666D01*
X97935714Y-57166666D01*
X98030952Y-57214285D01*
X98078571Y-57261904D01*
X98126190Y-57357142D01*
X98126190Y-57738095D01*
X97697619Y-56785714D02*
X97650000Y-56738095D01*
X97602380Y-56642857D01*
X97602380Y-56404761D01*
X97650000Y-56309523D01*
X97697619Y-56261904D01*
X97792857Y-56214285D01*
X97888095Y-56214285D01*
X98030952Y-56261904D01*
X98602380Y-56833333D01*
X98602380Y-56214285D01*
G04 #@! TD*
M02*
