G04 #@! TF.GenerationSoftware,KiCad,Pcbnew,5.0.0*
G04 #@! TF.CreationDate,2018-10-27T20:33:49+02:00*
G04 #@! TF.ProjectId,SimpleBatDetector,53696D706C654261744465746563746F,rev?*
G04 #@! TF.SameCoordinates,Original*
G04 #@! TF.FileFunction,Paste,Top*
G04 #@! TF.FilePolarity,Positive*
%FSLAX46Y46*%
G04 Gerber Fmt 4.6, Leading zero omitted, Abs format (unit mm)*
G04 Created by KiCad (PCBNEW 5.0.0) date Sat Oct 27 20:33:49 2018*
%MOMM*%
%LPD*%
G01*
G04 APERTURE LIST*
%ADD10R,3.150000X1.000000*%
%ADD11C,0.100000*%
%ADD12C,1.150000*%
%ADD13R,2.600000X1.600000*%
%ADD14R,2.500000X3.500000*%
%ADD15R,1.500000X0.600000*%
%ADD16R,0.600000X1.550000*%
%ADD17R,1.550000X0.600000*%
G04 APERTURE END LIST*
D10*
G04 #@! TO.C,J1*
X85975000Y-60380000D03*
X91025000Y-60380000D03*
X85975000Y-62920000D03*
X91025000Y-62920000D03*
X85975000Y-65460000D03*
X91025000Y-65460000D03*
X85975000Y-68000000D03*
X91025000Y-68000000D03*
X85975000Y-70540000D03*
X91025000Y-70540000D03*
X85975000Y-73080000D03*
X91025000Y-73080000D03*
X85975000Y-75620000D03*
X91025000Y-75620000D03*
G04 #@! TD*
D11*
G04 #@! TO.C,R8*
G36*
X106374505Y-55801204D02*
X106398773Y-55804804D01*
X106422572Y-55810765D01*
X106445671Y-55819030D01*
X106467850Y-55829520D01*
X106488893Y-55842132D01*
X106508599Y-55856747D01*
X106526777Y-55873223D01*
X106543253Y-55891401D01*
X106557868Y-55911107D01*
X106570480Y-55932150D01*
X106580970Y-55954329D01*
X106589235Y-55977428D01*
X106595196Y-56001227D01*
X106598796Y-56025495D01*
X106600000Y-56049999D01*
X106600000Y-56950001D01*
X106598796Y-56974505D01*
X106595196Y-56998773D01*
X106589235Y-57022572D01*
X106580970Y-57045671D01*
X106570480Y-57067850D01*
X106557868Y-57088893D01*
X106543253Y-57108599D01*
X106526777Y-57126777D01*
X106508599Y-57143253D01*
X106488893Y-57157868D01*
X106467850Y-57170480D01*
X106445671Y-57180970D01*
X106422572Y-57189235D01*
X106398773Y-57195196D01*
X106374505Y-57198796D01*
X106350001Y-57200000D01*
X105699999Y-57200000D01*
X105675495Y-57198796D01*
X105651227Y-57195196D01*
X105627428Y-57189235D01*
X105604329Y-57180970D01*
X105582150Y-57170480D01*
X105561107Y-57157868D01*
X105541401Y-57143253D01*
X105523223Y-57126777D01*
X105506747Y-57108599D01*
X105492132Y-57088893D01*
X105479520Y-57067850D01*
X105469030Y-57045671D01*
X105460765Y-57022572D01*
X105454804Y-56998773D01*
X105451204Y-56974505D01*
X105450000Y-56950001D01*
X105450000Y-56049999D01*
X105451204Y-56025495D01*
X105454804Y-56001227D01*
X105460765Y-55977428D01*
X105469030Y-55954329D01*
X105479520Y-55932150D01*
X105492132Y-55911107D01*
X105506747Y-55891401D01*
X105523223Y-55873223D01*
X105541401Y-55856747D01*
X105561107Y-55842132D01*
X105582150Y-55829520D01*
X105604329Y-55819030D01*
X105627428Y-55810765D01*
X105651227Y-55804804D01*
X105675495Y-55801204D01*
X105699999Y-55800000D01*
X106350001Y-55800000D01*
X106374505Y-55801204D01*
X106374505Y-55801204D01*
G37*
D12*
X106025000Y-56500000D03*
D11*
G36*
X104324505Y-55801204D02*
X104348773Y-55804804D01*
X104372572Y-55810765D01*
X104395671Y-55819030D01*
X104417850Y-55829520D01*
X104438893Y-55842132D01*
X104458599Y-55856747D01*
X104476777Y-55873223D01*
X104493253Y-55891401D01*
X104507868Y-55911107D01*
X104520480Y-55932150D01*
X104530970Y-55954329D01*
X104539235Y-55977428D01*
X104545196Y-56001227D01*
X104548796Y-56025495D01*
X104550000Y-56049999D01*
X104550000Y-56950001D01*
X104548796Y-56974505D01*
X104545196Y-56998773D01*
X104539235Y-57022572D01*
X104530970Y-57045671D01*
X104520480Y-57067850D01*
X104507868Y-57088893D01*
X104493253Y-57108599D01*
X104476777Y-57126777D01*
X104458599Y-57143253D01*
X104438893Y-57157868D01*
X104417850Y-57170480D01*
X104395671Y-57180970D01*
X104372572Y-57189235D01*
X104348773Y-57195196D01*
X104324505Y-57198796D01*
X104300001Y-57200000D01*
X103649999Y-57200000D01*
X103625495Y-57198796D01*
X103601227Y-57195196D01*
X103577428Y-57189235D01*
X103554329Y-57180970D01*
X103532150Y-57170480D01*
X103511107Y-57157868D01*
X103491401Y-57143253D01*
X103473223Y-57126777D01*
X103456747Y-57108599D01*
X103442132Y-57088893D01*
X103429520Y-57067850D01*
X103419030Y-57045671D01*
X103410765Y-57022572D01*
X103404804Y-56998773D01*
X103401204Y-56974505D01*
X103400000Y-56950001D01*
X103400000Y-56049999D01*
X103401204Y-56025495D01*
X103404804Y-56001227D01*
X103410765Y-55977428D01*
X103419030Y-55954329D01*
X103429520Y-55932150D01*
X103442132Y-55911107D01*
X103456747Y-55891401D01*
X103473223Y-55873223D01*
X103491401Y-55856747D01*
X103511107Y-55842132D01*
X103532150Y-55829520D01*
X103554329Y-55819030D01*
X103577428Y-55810765D01*
X103601227Y-55804804D01*
X103625495Y-55801204D01*
X103649999Y-55800000D01*
X104300001Y-55800000D01*
X104324505Y-55801204D01*
X104324505Y-55801204D01*
G37*
D12*
X103975000Y-56500000D03*
G04 #@! TD*
D13*
G04 #@! TO.C,C1*
X106100000Y-83350000D03*
X109700000Y-83350000D03*
G04 #@! TD*
G04 #@! TO.C,C4*
X111200000Y-56000000D03*
X114800000Y-56000000D03*
G04 #@! TD*
G04 #@! TO.C,C5*
X119200000Y-56000000D03*
X122800000Y-56000000D03*
G04 #@! TD*
G04 #@! TO.C,C13*
X74200000Y-80500000D03*
X77800000Y-80500000D03*
G04 #@! TD*
D14*
G04 #@! TO.C,C7*
X119000000Y-70250000D03*
X119000000Y-76750000D03*
G04 #@! TD*
D11*
G04 #@! TO.C,C12*
G36*
X101224505Y-85901204D02*
X101248773Y-85904804D01*
X101272572Y-85910765D01*
X101295671Y-85919030D01*
X101317850Y-85929520D01*
X101338893Y-85942132D01*
X101358599Y-85956747D01*
X101376777Y-85973223D01*
X101393253Y-85991401D01*
X101407868Y-86011107D01*
X101420480Y-86032150D01*
X101430970Y-86054329D01*
X101439235Y-86077428D01*
X101445196Y-86101227D01*
X101448796Y-86125495D01*
X101450000Y-86149999D01*
X101450000Y-87050001D01*
X101448796Y-87074505D01*
X101445196Y-87098773D01*
X101439235Y-87122572D01*
X101430970Y-87145671D01*
X101420480Y-87167850D01*
X101407868Y-87188893D01*
X101393253Y-87208599D01*
X101376777Y-87226777D01*
X101358599Y-87243253D01*
X101338893Y-87257868D01*
X101317850Y-87270480D01*
X101295671Y-87280970D01*
X101272572Y-87289235D01*
X101248773Y-87295196D01*
X101224505Y-87298796D01*
X101200001Y-87300000D01*
X100549999Y-87300000D01*
X100525495Y-87298796D01*
X100501227Y-87295196D01*
X100477428Y-87289235D01*
X100454329Y-87280970D01*
X100432150Y-87270480D01*
X100411107Y-87257868D01*
X100391401Y-87243253D01*
X100373223Y-87226777D01*
X100356747Y-87208599D01*
X100342132Y-87188893D01*
X100329520Y-87167850D01*
X100319030Y-87145671D01*
X100310765Y-87122572D01*
X100304804Y-87098773D01*
X100301204Y-87074505D01*
X100300000Y-87050001D01*
X100300000Y-86149999D01*
X100301204Y-86125495D01*
X100304804Y-86101227D01*
X100310765Y-86077428D01*
X100319030Y-86054329D01*
X100329520Y-86032150D01*
X100342132Y-86011107D01*
X100356747Y-85991401D01*
X100373223Y-85973223D01*
X100391401Y-85956747D01*
X100411107Y-85942132D01*
X100432150Y-85929520D01*
X100454329Y-85919030D01*
X100477428Y-85910765D01*
X100501227Y-85904804D01*
X100525495Y-85901204D01*
X100549999Y-85900000D01*
X101200001Y-85900000D01*
X101224505Y-85901204D01*
X101224505Y-85901204D01*
G37*
D12*
X100875000Y-86600000D03*
D11*
G36*
X103274505Y-85901204D02*
X103298773Y-85904804D01*
X103322572Y-85910765D01*
X103345671Y-85919030D01*
X103367850Y-85929520D01*
X103388893Y-85942132D01*
X103408599Y-85956747D01*
X103426777Y-85973223D01*
X103443253Y-85991401D01*
X103457868Y-86011107D01*
X103470480Y-86032150D01*
X103480970Y-86054329D01*
X103489235Y-86077428D01*
X103495196Y-86101227D01*
X103498796Y-86125495D01*
X103500000Y-86149999D01*
X103500000Y-87050001D01*
X103498796Y-87074505D01*
X103495196Y-87098773D01*
X103489235Y-87122572D01*
X103480970Y-87145671D01*
X103470480Y-87167850D01*
X103457868Y-87188893D01*
X103443253Y-87208599D01*
X103426777Y-87226777D01*
X103408599Y-87243253D01*
X103388893Y-87257868D01*
X103367850Y-87270480D01*
X103345671Y-87280970D01*
X103322572Y-87289235D01*
X103298773Y-87295196D01*
X103274505Y-87298796D01*
X103250001Y-87300000D01*
X102599999Y-87300000D01*
X102575495Y-87298796D01*
X102551227Y-87295196D01*
X102527428Y-87289235D01*
X102504329Y-87280970D01*
X102482150Y-87270480D01*
X102461107Y-87257868D01*
X102441401Y-87243253D01*
X102423223Y-87226777D01*
X102406747Y-87208599D01*
X102392132Y-87188893D01*
X102379520Y-87167850D01*
X102369030Y-87145671D01*
X102360765Y-87122572D01*
X102354804Y-87098773D01*
X102351204Y-87074505D01*
X102350000Y-87050001D01*
X102350000Y-86149999D01*
X102351204Y-86125495D01*
X102354804Y-86101227D01*
X102360765Y-86077428D01*
X102369030Y-86054329D01*
X102379520Y-86032150D01*
X102392132Y-86011107D01*
X102406747Y-85991401D01*
X102423223Y-85973223D01*
X102441401Y-85956747D01*
X102461107Y-85942132D01*
X102482150Y-85929520D01*
X102504329Y-85919030D01*
X102527428Y-85910765D01*
X102551227Y-85904804D01*
X102575495Y-85901204D01*
X102599999Y-85900000D01*
X103250001Y-85900000D01*
X103274505Y-85901204D01*
X103274505Y-85901204D01*
G37*
D12*
X102925000Y-86600000D03*
G04 #@! TD*
D11*
G04 #@! TO.C,C11*
G36*
X90874505Y-85301204D02*
X90898773Y-85304804D01*
X90922572Y-85310765D01*
X90945671Y-85319030D01*
X90967850Y-85329520D01*
X90988893Y-85342132D01*
X91008599Y-85356747D01*
X91026777Y-85373223D01*
X91043253Y-85391401D01*
X91057868Y-85411107D01*
X91070480Y-85432150D01*
X91080970Y-85454329D01*
X91089235Y-85477428D01*
X91095196Y-85501227D01*
X91098796Y-85525495D01*
X91100000Y-85549999D01*
X91100000Y-86450001D01*
X91098796Y-86474505D01*
X91095196Y-86498773D01*
X91089235Y-86522572D01*
X91080970Y-86545671D01*
X91070480Y-86567850D01*
X91057868Y-86588893D01*
X91043253Y-86608599D01*
X91026777Y-86626777D01*
X91008599Y-86643253D01*
X90988893Y-86657868D01*
X90967850Y-86670480D01*
X90945671Y-86680970D01*
X90922572Y-86689235D01*
X90898773Y-86695196D01*
X90874505Y-86698796D01*
X90850001Y-86700000D01*
X90199999Y-86700000D01*
X90175495Y-86698796D01*
X90151227Y-86695196D01*
X90127428Y-86689235D01*
X90104329Y-86680970D01*
X90082150Y-86670480D01*
X90061107Y-86657868D01*
X90041401Y-86643253D01*
X90023223Y-86626777D01*
X90006747Y-86608599D01*
X89992132Y-86588893D01*
X89979520Y-86567850D01*
X89969030Y-86545671D01*
X89960765Y-86522572D01*
X89954804Y-86498773D01*
X89951204Y-86474505D01*
X89950000Y-86450001D01*
X89950000Y-85549999D01*
X89951204Y-85525495D01*
X89954804Y-85501227D01*
X89960765Y-85477428D01*
X89969030Y-85454329D01*
X89979520Y-85432150D01*
X89992132Y-85411107D01*
X90006747Y-85391401D01*
X90023223Y-85373223D01*
X90041401Y-85356747D01*
X90061107Y-85342132D01*
X90082150Y-85329520D01*
X90104329Y-85319030D01*
X90127428Y-85310765D01*
X90151227Y-85304804D01*
X90175495Y-85301204D01*
X90199999Y-85300000D01*
X90850001Y-85300000D01*
X90874505Y-85301204D01*
X90874505Y-85301204D01*
G37*
D12*
X90525000Y-86000000D03*
D11*
G36*
X88824505Y-85301204D02*
X88848773Y-85304804D01*
X88872572Y-85310765D01*
X88895671Y-85319030D01*
X88917850Y-85329520D01*
X88938893Y-85342132D01*
X88958599Y-85356747D01*
X88976777Y-85373223D01*
X88993253Y-85391401D01*
X89007868Y-85411107D01*
X89020480Y-85432150D01*
X89030970Y-85454329D01*
X89039235Y-85477428D01*
X89045196Y-85501227D01*
X89048796Y-85525495D01*
X89050000Y-85549999D01*
X89050000Y-86450001D01*
X89048796Y-86474505D01*
X89045196Y-86498773D01*
X89039235Y-86522572D01*
X89030970Y-86545671D01*
X89020480Y-86567850D01*
X89007868Y-86588893D01*
X88993253Y-86608599D01*
X88976777Y-86626777D01*
X88958599Y-86643253D01*
X88938893Y-86657868D01*
X88917850Y-86670480D01*
X88895671Y-86680970D01*
X88872572Y-86689235D01*
X88848773Y-86695196D01*
X88824505Y-86698796D01*
X88800001Y-86700000D01*
X88149999Y-86700000D01*
X88125495Y-86698796D01*
X88101227Y-86695196D01*
X88077428Y-86689235D01*
X88054329Y-86680970D01*
X88032150Y-86670480D01*
X88011107Y-86657868D01*
X87991401Y-86643253D01*
X87973223Y-86626777D01*
X87956747Y-86608599D01*
X87942132Y-86588893D01*
X87929520Y-86567850D01*
X87919030Y-86545671D01*
X87910765Y-86522572D01*
X87904804Y-86498773D01*
X87901204Y-86474505D01*
X87900000Y-86450001D01*
X87900000Y-85549999D01*
X87901204Y-85525495D01*
X87904804Y-85501227D01*
X87910765Y-85477428D01*
X87919030Y-85454329D01*
X87929520Y-85432150D01*
X87942132Y-85411107D01*
X87956747Y-85391401D01*
X87973223Y-85373223D01*
X87991401Y-85356747D01*
X88011107Y-85342132D01*
X88032150Y-85329520D01*
X88054329Y-85319030D01*
X88077428Y-85310765D01*
X88101227Y-85304804D01*
X88125495Y-85301204D01*
X88149999Y-85300000D01*
X88800001Y-85300000D01*
X88824505Y-85301204D01*
X88824505Y-85301204D01*
G37*
D12*
X88475000Y-86000000D03*
G04 #@! TD*
D11*
G04 #@! TO.C,C10*
G36*
X94374505Y-84801204D02*
X94398773Y-84804804D01*
X94422572Y-84810765D01*
X94445671Y-84819030D01*
X94467850Y-84829520D01*
X94488893Y-84842132D01*
X94508599Y-84856747D01*
X94526777Y-84873223D01*
X94543253Y-84891401D01*
X94557868Y-84911107D01*
X94570480Y-84932150D01*
X94580970Y-84954329D01*
X94589235Y-84977428D01*
X94595196Y-85001227D01*
X94598796Y-85025495D01*
X94600000Y-85049999D01*
X94600000Y-85700001D01*
X94598796Y-85724505D01*
X94595196Y-85748773D01*
X94589235Y-85772572D01*
X94580970Y-85795671D01*
X94570480Y-85817850D01*
X94557868Y-85838893D01*
X94543253Y-85858599D01*
X94526777Y-85876777D01*
X94508599Y-85893253D01*
X94488893Y-85907868D01*
X94467850Y-85920480D01*
X94445671Y-85930970D01*
X94422572Y-85939235D01*
X94398773Y-85945196D01*
X94374505Y-85948796D01*
X94350001Y-85950000D01*
X93449999Y-85950000D01*
X93425495Y-85948796D01*
X93401227Y-85945196D01*
X93377428Y-85939235D01*
X93354329Y-85930970D01*
X93332150Y-85920480D01*
X93311107Y-85907868D01*
X93291401Y-85893253D01*
X93273223Y-85876777D01*
X93256747Y-85858599D01*
X93242132Y-85838893D01*
X93229520Y-85817850D01*
X93219030Y-85795671D01*
X93210765Y-85772572D01*
X93204804Y-85748773D01*
X93201204Y-85724505D01*
X93200000Y-85700001D01*
X93200000Y-85049999D01*
X93201204Y-85025495D01*
X93204804Y-85001227D01*
X93210765Y-84977428D01*
X93219030Y-84954329D01*
X93229520Y-84932150D01*
X93242132Y-84911107D01*
X93256747Y-84891401D01*
X93273223Y-84873223D01*
X93291401Y-84856747D01*
X93311107Y-84842132D01*
X93332150Y-84829520D01*
X93354329Y-84819030D01*
X93377428Y-84810765D01*
X93401227Y-84804804D01*
X93425495Y-84801204D01*
X93449999Y-84800000D01*
X94350001Y-84800000D01*
X94374505Y-84801204D01*
X94374505Y-84801204D01*
G37*
D12*
X93900000Y-85375000D03*
D11*
G36*
X94374505Y-86851204D02*
X94398773Y-86854804D01*
X94422572Y-86860765D01*
X94445671Y-86869030D01*
X94467850Y-86879520D01*
X94488893Y-86892132D01*
X94508599Y-86906747D01*
X94526777Y-86923223D01*
X94543253Y-86941401D01*
X94557868Y-86961107D01*
X94570480Y-86982150D01*
X94580970Y-87004329D01*
X94589235Y-87027428D01*
X94595196Y-87051227D01*
X94598796Y-87075495D01*
X94600000Y-87099999D01*
X94600000Y-87750001D01*
X94598796Y-87774505D01*
X94595196Y-87798773D01*
X94589235Y-87822572D01*
X94580970Y-87845671D01*
X94570480Y-87867850D01*
X94557868Y-87888893D01*
X94543253Y-87908599D01*
X94526777Y-87926777D01*
X94508599Y-87943253D01*
X94488893Y-87957868D01*
X94467850Y-87970480D01*
X94445671Y-87980970D01*
X94422572Y-87989235D01*
X94398773Y-87995196D01*
X94374505Y-87998796D01*
X94350001Y-88000000D01*
X93449999Y-88000000D01*
X93425495Y-87998796D01*
X93401227Y-87995196D01*
X93377428Y-87989235D01*
X93354329Y-87980970D01*
X93332150Y-87970480D01*
X93311107Y-87957868D01*
X93291401Y-87943253D01*
X93273223Y-87926777D01*
X93256747Y-87908599D01*
X93242132Y-87888893D01*
X93229520Y-87867850D01*
X93219030Y-87845671D01*
X93210765Y-87822572D01*
X93204804Y-87798773D01*
X93201204Y-87774505D01*
X93200000Y-87750001D01*
X93200000Y-87099999D01*
X93201204Y-87075495D01*
X93204804Y-87051227D01*
X93210765Y-87027428D01*
X93219030Y-87004329D01*
X93229520Y-86982150D01*
X93242132Y-86961107D01*
X93256747Y-86941401D01*
X93273223Y-86923223D01*
X93291401Y-86906747D01*
X93311107Y-86892132D01*
X93332150Y-86879520D01*
X93354329Y-86869030D01*
X93377428Y-86860765D01*
X93401227Y-86854804D01*
X93425495Y-86851204D01*
X93449999Y-86850000D01*
X94350001Y-86850000D01*
X94374505Y-86851204D01*
X94374505Y-86851204D01*
G37*
D12*
X93900000Y-87425000D03*
G04 #@! TD*
D11*
G04 #@! TO.C,C9*
G36*
X89474505Y-81951204D02*
X89498773Y-81954804D01*
X89522572Y-81960765D01*
X89545671Y-81969030D01*
X89567850Y-81979520D01*
X89588893Y-81992132D01*
X89608599Y-82006747D01*
X89626777Y-82023223D01*
X89643253Y-82041401D01*
X89657868Y-82061107D01*
X89670480Y-82082150D01*
X89680970Y-82104329D01*
X89689235Y-82127428D01*
X89695196Y-82151227D01*
X89698796Y-82175495D01*
X89700000Y-82199999D01*
X89700000Y-82850001D01*
X89698796Y-82874505D01*
X89695196Y-82898773D01*
X89689235Y-82922572D01*
X89680970Y-82945671D01*
X89670480Y-82967850D01*
X89657868Y-82988893D01*
X89643253Y-83008599D01*
X89626777Y-83026777D01*
X89608599Y-83043253D01*
X89588893Y-83057868D01*
X89567850Y-83070480D01*
X89545671Y-83080970D01*
X89522572Y-83089235D01*
X89498773Y-83095196D01*
X89474505Y-83098796D01*
X89450001Y-83100000D01*
X88549999Y-83100000D01*
X88525495Y-83098796D01*
X88501227Y-83095196D01*
X88477428Y-83089235D01*
X88454329Y-83080970D01*
X88432150Y-83070480D01*
X88411107Y-83057868D01*
X88391401Y-83043253D01*
X88373223Y-83026777D01*
X88356747Y-83008599D01*
X88342132Y-82988893D01*
X88329520Y-82967850D01*
X88319030Y-82945671D01*
X88310765Y-82922572D01*
X88304804Y-82898773D01*
X88301204Y-82874505D01*
X88300000Y-82850001D01*
X88300000Y-82199999D01*
X88301204Y-82175495D01*
X88304804Y-82151227D01*
X88310765Y-82127428D01*
X88319030Y-82104329D01*
X88329520Y-82082150D01*
X88342132Y-82061107D01*
X88356747Y-82041401D01*
X88373223Y-82023223D01*
X88391401Y-82006747D01*
X88411107Y-81992132D01*
X88432150Y-81979520D01*
X88454329Y-81969030D01*
X88477428Y-81960765D01*
X88501227Y-81954804D01*
X88525495Y-81951204D01*
X88549999Y-81950000D01*
X89450001Y-81950000D01*
X89474505Y-81951204D01*
X89474505Y-81951204D01*
G37*
D12*
X89000000Y-82525000D03*
D11*
G36*
X89474505Y-79901204D02*
X89498773Y-79904804D01*
X89522572Y-79910765D01*
X89545671Y-79919030D01*
X89567850Y-79929520D01*
X89588893Y-79942132D01*
X89608599Y-79956747D01*
X89626777Y-79973223D01*
X89643253Y-79991401D01*
X89657868Y-80011107D01*
X89670480Y-80032150D01*
X89680970Y-80054329D01*
X89689235Y-80077428D01*
X89695196Y-80101227D01*
X89698796Y-80125495D01*
X89700000Y-80149999D01*
X89700000Y-80800001D01*
X89698796Y-80824505D01*
X89695196Y-80848773D01*
X89689235Y-80872572D01*
X89680970Y-80895671D01*
X89670480Y-80917850D01*
X89657868Y-80938893D01*
X89643253Y-80958599D01*
X89626777Y-80976777D01*
X89608599Y-80993253D01*
X89588893Y-81007868D01*
X89567850Y-81020480D01*
X89545671Y-81030970D01*
X89522572Y-81039235D01*
X89498773Y-81045196D01*
X89474505Y-81048796D01*
X89450001Y-81050000D01*
X88549999Y-81050000D01*
X88525495Y-81048796D01*
X88501227Y-81045196D01*
X88477428Y-81039235D01*
X88454329Y-81030970D01*
X88432150Y-81020480D01*
X88411107Y-81007868D01*
X88391401Y-80993253D01*
X88373223Y-80976777D01*
X88356747Y-80958599D01*
X88342132Y-80938893D01*
X88329520Y-80917850D01*
X88319030Y-80895671D01*
X88310765Y-80872572D01*
X88304804Y-80848773D01*
X88301204Y-80824505D01*
X88300000Y-80800001D01*
X88300000Y-80149999D01*
X88301204Y-80125495D01*
X88304804Y-80101227D01*
X88310765Y-80077428D01*
X88319030Y-80054329D01*
X88329520Y-80032150D01*
X88342132Y-80011107D01*
X88356747Y-79991401D01*
X88373223Y-79973223D01*
X88391401Y-79956747D01*
X88411107Y-79942132D01*
X88432150Y-79929520D01*
X88454329Y-79919030D01*
X88477428Y-79910765D01*
X88501227Y-79904804D01*
X88525495Y-79901204D01*
X88549999Y-79900000D01*
X89450001Y-79900000D01*
X89474505Y-79901204D01*
X89474505Y-79901204D01*
G37*
D12*
X89000000Y-80475000D03*
G04 #@! TD*
D11*
G04 #@! TO.C,C6*
G36*
X125974505Y-68401204D02*
X125998773Y-68404804D01*
X126022572Y-68410765D01*
X126045671Y-68419030D01*
X126067850Y-68429520D01*
X126088893Y-68442132D01*
X126108599Y-68456747D01*
X126126777Y-68473223D01*
X126143253Y-68491401D01*
X126157868Y-68511107D01*
X126170480Y-68532150D01*
X126180970Y-68554329D01*
X126189235Y-68577428D01*
X126195196Y-68601227D01*
X126198796Y-68625495D01*
X126200000Y-68649999D01*
X126200000Y-69300001D01*
X126198796Y-69324505D01*
X126195196Y-69348773D01*
X126189235Y-69372572D01*
X126180970Y-69395671D01*
X126170480Y-69417850D01*
X126157868Y-69438893D01*
X126143253Y-69458599D01*
X126126777Y-69476777D01*
X126108599Y-69493253D01*
X126088893Y-69507868D01*
X126067850Y-69520480D01*
X126045671Y-69530970D01*
X126022572Y-69539235D01*
X125998773Y-69545196D01*
X125974505Y-69548796D01*
X125950001Y-69550000D01*
X125049999Y-69550000D01*
X125025495Y-69548796D01*
X125001227Y-69545196D01*
X124977428Y-69539235D01*
X124954329Y-69530970D01*
X124932150Y-69520480D01*
X124911107Y-69507868D01*
X124891401Y-69493253D01*
X124873223Y-69476777D01*
X124856747Y-69458599D01*
X124842132Y-69438893D01*
X124829520Y-69417850D01*
X124819030Y-69395671D01*
X124810765Y-69372572D01*
X124804804Y-69348773D01*
X124801204Y-69324505D01*
X124800000Y-69300001D01*
X124800000Y-68649999D01*
X124801204Y-68625495D01*
X124804804Y-68601227D01*
X124810765Y-68577428D01*
X124819030Y-68554329D01*
X124829520Y-68532150D01*
X124842132Y-68511107D01*
X124856747Y-68491401D01*
X124873223Y-68473223D01*
X124891401Y-68456747D01*
X124911107Y-68442132D01*
X124932150Y-68429520D01*
X124954329Y-68419030D01*
X124977428Y-68410765D01*
X125001227Y-68404804D01*
X125025495Y-68401204D01*
X125049999Y-68400000D01*
X125950001Y-68400000D01*
X125974505Y-68401204D01*
X125974505Y-68401204D01*
G37*
D12*
X125500000Y-68975000D03*
D11*
G36*
X125974505Y-70451204D02*
X125998773Y-70454804D01*
X126022572Y-70460765D01*
X126045671Y-70469030D01*
X126067850Y-70479520D01*
X126088893Y-70492132D01*
X126108599Y-70506747D01*
X126126777Y-70523223D01*
X126143253Y-70541401D01*
X126157868Y-70561107D01*
X126170480Y-70582150D01*
X126180970Y-70604329D01*
X126189235Y-70627428D01*
X126195196Y-70651227D01*
X126198796Y-70675495D01*
X126200000Y-70699999D01*
X126200000Y-71350001D01*
X126198796Y-71374505D01*
X126195196Y-71398773D01*
X126189235Y-71422572D01*
X126180970Y-71445671D01*
X126170480Y-71467850D01*
X126157868Y-71488893D01*
X126143253Y-71508599D01*
X126126777Y-71526777D01*
X126108599Y-71543253D01*
X126088893Y-71557868D01*
X126067850Y-71570480D01*
X126045671Y-71580970D01*
X126022572Y-71589235D01*
X125998773Y-71595196D01*
X125974505Y-71598796D01*
X125950001Y-71600000D01*
X125049999Y-71600000D01*
X125025495Y-71598796D01*
X125001227Y-71595196D01*
X124977428Y-71589235D01*
X124954329Y-71580970D01*
X124932150Y-71570480D01*
X124911107Y-71557868D01*
X124891401Y-71543253D01*
X124873223Y-71526777D01*
X124856747Y-71508599D01*
X124842132Y-71488893D01*
X124829520Y-71467850D01*
X124819030Y-71445671D01*
X124810765Y-71422572D01*
X124804804Y-71398773D01*
X124801204Y-71374505D01*
X124800000Y-71350001D01*
X124800000Y-70699999D01*
X124801204Y-70675495D01*
X124804804Y-70651227D01*
X124810765Y-70627428D01*
X124819030Y-70604329D01*
X124829520Y-70582150D01*
X124842132Y-70561107D01*
X124856747Y-70541401D01*
X124873223Y-70523223D01*
X124891401Y-70506747D01*
X124911107Y-70492132D01*
X124932150Y-70479520D01*
X124954329Y-70469030D01*
X124977428Y-70460765D01*
X125001227Y-70454804D01*
X125025495Y-70451204D01*
X125049999Y-70450000D01*
X125950001Y-70450000D01*
X125974505Y-70451204D01*
X125974505Y-70451204D01*
G37*
D12*
X125500000Y-71025000D03*
G04 #@! TD*
D11*
G04 #@! TO.C,C3*
G36*
X96974505Y-62951204D02*
X96998773Y-62954804D01*
X97022572Y-62960765D01*
X97045671Y-62969030D01*
X97067850Y-62979520D01*
X97088893Y-62992132D01*
X97108599Y-63006747D01*
X97126777Y-63023223D01*
X97143253Y-63041401D01*
X97157868Y-63061107D01*
X97170480Y-63082150D01*
X97180970Y-63104329D01*
X97189235Y-63127428D01*
X97195196Y-63151227D01*
X97198796Y-63175495D01*
X97200000Y-63199999D01*
X97200000Y-63850001D01*
X97198796Y-63874505D01*
X97195196Y-63898773D01*
X97189235Y-63922572D01*
X97180970Y-63945671D01*
X97170480Y-63967850D01*
X97157868Y-63988893D01*
X97143253Y-64008599D01*
X97126777Y-64026777D01*
X97108599Y-64043253D01*
X97088893Y-64057868D01*
X97067850Y-64070480D01*
X97045671Y-64080970D01*
X97022572Y-64089235D01*
X96998773Y-64095196D01*
X96974505Y-64098796D01*
X96950001Y-64100000D01*
X96049999Y-64100000D01*
X96025495Y-64098796D01*
X96001227Y-64095196D01*
X95977428Y-64089235D01*
X95954329Y-64080970D01*
X95932150Y-64070480D01*
X95911107Y-64057868D01*
X95891401Y-64043253D01*
X95873223Y-64026777D01*
X95856747Y-64008599D01*
X95842132Y-63988893D01*
X95829520Y-63967850D01*
X95819030Y-63945671D01*
X95810765Y-63922572D01*
X95804804Y-63898773D01*
X95801204Y-63874505D01*
X95800000Y-63850001D01*
X95800000Y-63199999D01*
X95801204Y-63175495D01*
X95804804Y-63151227D01*
X95810765Y-63127428D01*
X95819030Y-63104329D01*
X95829520Y-63082150D01*
X95842132Y-63061107D01*
X95856747Y-63041401D01*
X95873223Y-63023223D01*
X95891401Y-63006747D01*
X95911107Y-62992132D01*
X95932150Y-62979520D01*
X95954329Y-62969030D01*
X95977428Y-62960765D01*
X96001227Y-62954804D01*
X96025495Y-62951204D01*
X96049999Y-62950000D01*
X96950001Y-62950000D01*
X96974505Y-62951204D01*
X96974505Y-62951204D01*
G37*
D12*
X96500000Y-63525000D03*
D11*
G36*
X96974505Y-60901204D02*
X96998773Y-60904804D01*
X97022572Y-60910765D01*
X97045671Y-60919030D01*
X97067850Y-60929520D01*
X97088893Y-60942132D01*
X97108599Y-60956747D01*
X97126777Y-60973223D01*
X97143253Y-60991401D01*
X97157868Y-61011107D01*
X97170480Y-61032150D01*
X97180970Y-61054329D01*
X97189235Y-61077428D01*
X97195196Y-61101227D01*
X97198796Y-61125495D01*
X97200000Y-61149999D01*
X97200000Y-61800001D01*
X97198796Y-61824505D01*
X97195196Y-61848773D01*
X97189235Y-61872572D01*
X97180970Y-61895671D01*
X97170480Y-61917850D01*
X97157868Y-61938893D01*
X97143253Y-61958599D01*
X97126777Y-61976777D01*
X97108599Y-61993253D01*
X97088893Y-62007868D01*
X97067850Y-62020480D01*
X97045671Y-62030970D01*
X97022572Y-62039235D01*
X96998773Y-62045196D01*
X96974505Y-62048796D01*
X96950001Y-62050000D01*
X96049999Y-62050000D01*
X96025495Y-62048796D01*
X96001227Y-62045196D01*
X95977428Y-62039235D01*
X95954329Y-62030970D01*
X95932150Y-62020480D01*
X95911107Y-62007868D01*
X95891401Y-61993253D01*
X95873223Y-61976777D01*
X95856747Y-61958599D01*
X95842132Y-61938893D01*
X95829520Y-61917850D01*
X95819030Y-61895671D01*
X95810765Y-61872572D01*
X95804804Y-61848773D01*
X95801204Y-61824505D01*
X95800000Y-61800001D01*
X95800000Y-61149999D01*
X95801204Y-61125495D01*
X95804804Y-61101227D01*
X95810765Y-61077428D01*
X95819030Y-61054329D01*
X95829520Y-61032150D01*
X95842132Y-61011107D01*
X95856747Y-60991401D01*
X95873223Y-60973223D01*
X95891401Y-60956747D01*
X95911107Y-60942132D01*
X95932150Y-60929520D01*
X95954329Y-60919030D01*
X95977428Y-60910765D01*
X96001227Y-60904804D01*
X96025495Y-60901204D01*
X96049999Y-60900000D01*
X96950001Y-60900000D01*
X96974505Y-60901204D01*
X96974505Y-60901204D01*
G37*
D12*
X96500000Y-61475000D03*
G04 #@! TD*
D11*
G04 #@! TO.C,C2*
G36*
X95024505Y-81701204D02*
X95048773Y-81704804D01*
X95072572Y-81710765D01*
X95095671Y-81719030D01*
X95117850Y-81729520D01*
X95138893Y-81742132D01*
X95158599Y-81756747D01*
X95176777Y-81773223D01*
X95193253Y-81791401D01*
X95207868Y-81811107D01*
X95220480Y-81832150D01*
X95230970Y-81854329D01*
X95239235Y-81877428D01*
X95245196Y-81901227D01*
X95248796Y-81925495D01*
X95250000Y-81949999D01*
X95250000Y-82850001D01*
X95248796Y-82874505D01*
X95245196Y-82898773D01*
X95239235Y-82922572D01*
X95230970Y-82945671D01*
X95220480Y-82967850D01*
X95207868Y-82988893D01*
X95193253Y-83008599D01*
X95176777Y-83026777D01*
X95158599Y-83043253D01*
X95138893Y-83057868D01*
X95117850Y-83070480D01*
X95095671Y-83080970D01*
X95072572Y-83089235D01*
X95048773Y-83095196D01*
X95024505Y-83098796D01*
X95000001Y-83100000D01*
X94349999Y-83100000D01*
X94325495Y-83098796D01*
X94301227Y-83095196D01*
X94277428Y-83089235D01*
X94254329Y-83080970D01*
X94232150Y-83070480D01*
X94211107Y-83057868D01*
X94191401Y-83043253D01*
X94173223Y-83026777D01*
X94156747Y-83008599D01*
X94142132Y-82988893D01*
X94129520Y-82967850D01*
X94119030Y-82945671D01*
X94110765Y-82922572D01*
X94104804Y-82898773D01*
X94101204Y-82874505D01*
X94100000Y-82850001D01*
X94100000Y-81949999D01*
X94101204Y-81925495D01*
X94104804Y-81901227D01*
X94110765Y-81877428D01*
X94119030Y-81854329D01*
X94129520Y-81832150D01*
X94142132Y-81811107D01*
X94156747Y-81791401D01*
X94173223Y-81773223D01*
X94191401Y-81756747D01*
X94211107Y-81742132D01*
X94232150Y-81729520D01*
X94254329Y-81719030D01*
X94277428Y-81710765D01*
X94301227Y-81704804D01*
X94325495Y-81701204D01*
X94349999Y-81700000D01*
X95000001Y-81700000D01*
X95024505Y-81701204D01*
X95024505Y-81701204D01*
G37*
D12*
X94675000Y-82400000D03*
D11*
G36*
X92974505Y-81701204D02*
X92998773Y-81704804D01*
X93022572Y-81710765D01*
X93045671Y-81719030D01*
X93067850Y-81729520D01*
X93088893Y-81742132D01*
X93108599Y-81756747D01*
X93126777Y-81773223D01*
X93143253Y-81791401D01*
X93157868Y-81811107D01*
X93170480Y-81832150D01*
X93180970Y-81854329D01*
X93189235Y-81877428D01*
X93195196Y-81901227D01*
X93198796Y-81925495D01*
X93200000Y-81949999D01*
X93200000Y-82850001D01*
X93198796Y-82874505D01*
X93195196Y-82898773D01*
X93189235Y-82922572D01*
X93180970Y-82945671D01*
X93170480Y-82967850D01*
X93157868Y-82988893D01*
X93143253Y-83008599D01*
X93126777Y-83026777D01*
X93108599Y-83043253D01*
X93088893Y-83057868D01*
X93067850Y-83070480D01*
X93045671Y-83080970D01*
X93022572Y-83089235D01*
X92998773Y-83095196D01*
X92974505Y-83098796D01*
X92950001Y-83100000D01*
X92299999Y-83100000D01*
X92275495Y-83098796D01*
X92251227Y-83095196D01*
X92227428Y-83089235D01*
X92204329Y-83080970D01*
X92182150Y-83070480D01*
X92161107Y-83057868D01*
X92141401Y-83043253D01*
X92123223Y-83026777D01*
X92106747Y-83008599D01*
X92092132Y-82988893D01*
X92079520Y-82967850D01*
X92069030Y-82945671D01*
X92060765Y-82922572D01*
X92054804Y-82898773D01*
X92051204Y-82874505D01*
X92050000Y-82850001D01*
X92050000Y-81949999D01*
X92051204Y-81925495D01*
X92054804Y-81901227D01*
X92060765Y-81877428D01*
X92069030Y-81854329D01*
X92079520Y-81832150D01*
X92092132Y-81811107D01*
X92106747Y-81791401D01*
X92123223Y-81773223D01*
X92141401Y-81756747D01*
X92161107Y-81742132D01*
X92182150Y-81729520D01*
X92204329Y-81719030D01*
X92227428Y-81710765D01*
X92251227Y-81704804D01*
X92275495Y-81701204D01*
X92299999Y-81700000D01*
X92950001Y-81700000D01*
X92974505Y-81701204D01*
X92974505Y-81701204D01*
G37*
D12*
X92625000Y-82400000D03*
G04 #@! TD*
D11*
G04 #@! TO.C,C8*
G36*
X97274505Y-73201204D02*
X97298773Y-73204804D01*
X97322572Y-73210765D01*
X97345671Y-73219030D01*
X97367850Y-73229520D01*
X97388893Y-73242132D01*
X97408599Y-73256747D01*
X97426777Y-73273223D01*
X97443253Y-73291401D01*
X97457868Y-73311107D01*
X97470480Y-73332150D01*
X97480970Y-73354329D01*
X97489235Y-73377428D01*
X97495196Y-73401227D01*
X97498796Y-73425495D01*
X97500000Y-73449999D01*
X97500000Y-74100001D01*
X97498796Y-74124505D01*
X97495196Y-74148773D01*
X97489235Y-74172572D01*
X97480970Y-74195671D01*
X97470480Y-74217850D01*
X97457868Y-74238893D01*
X97443253Y-74258599D01*
X97426777Y-74276777D01*
X97408599Y-74293253D01*
X97388893Y-74307868D01*
X97367850Y-74320480D01*
X97345671Y-74330970D01*
X97322572Y-74339235D01*
X97298773Y-74345196D01*
X97274505Y-74348796D01*
X97250001Y-74350000D01*
X96349999Y-74350000D01*
X96325495Y-74348796D01*
X96301227Y-74345196D01*
X96277428Y-74339235D01*
X96254329Y-74330970D01*
X96232150Y-74320480D01*
X96211107Y-74307868D01*
X96191401Y-74293253D01*
X96173223Y-74276777D01*
X96156747Y-74258599D01*
X96142132Y-74238893D01*
X96129520Y-74217850D01*
X96119030Y-74195671D01*
X96110765Y-74172572D01*
X96104804Y-74148773D01*
X96101204Y-74124505D01*
X96100000Y-74100001D01*
X96100000Y-73449999D01*
X96101204Y-73425495D01*
X96104804Y-73401227D01*
X96110765Y-73377428D01*
X96119030Y-73354329D01*
X96129520Y-73332150D01*
X96142132Y-73311107D01*
X96156747Y-73291401D01*
X96173223Y-73273223D01*
X96191401Y-73256747D01*
X96211107Y-73242132D01*
X96232150Y-73229520D01*
X96254329Y-73219030D01*
X96277428Y-73210765D01*
X96301227Y-73204804D01*
X96325495Y-73201204D01*
X96349999Y-73200000D01*
X97250001Y-73200000D01*
X97274505Y-73201204D01*
X97274505Y-73201204D01*
G37*
D12*
X96800000Y-73775000D03*
D11*
G36*
X97274505Y-75251204D02*
X97298773Y-75254804D01*
X97322572Y-75260765D01*
X97345671Y-75269030D01*
X97367850Y-75279520D01*
X97388893Y-75292132D01*
X97408599Y-75306747D01*
X97426777Y-75323223D01*
X97443253Y-75341401D01*
X97457868Y-75361107D01*
X97470480Y-75382150D01*
X97480970Y-75404329D01*
X97489235Y-75427428D01*
X97495196Y-75451227D01*
X97498796Y-75475495D01*
X97500000Y-75499999D01*
X97500000Y-76150001D01*
X97498796Y-76174505D01*
X97495196Y-76198773D01*
X97489235Y-76222572D01*
X97480970Y-76245671D01*
X97470480Y-76267850D01*
X97457868Y-76288893D01*
X97443253Y-76308599D01*
X97426777Y-76326777D01*
X97408599Y-76343253D01*
X97388893Y-76357868D01*
X97367850Y-76370480D01*
X97345671Y-76380970D01*
X97322572Y-76389235D01*
X97298773Y-76395196D01*
X97274505Y-76398796D01*
X97250001Y-76400000D01*
X96349999Y-76400000D01*
X96325495Y-76398796D01*
X96301227Y-76395196D01*
X96277428Y-76389235D01*
X96254329Y-76380970D01*
X96232150Y-76370480D01*
X96211107Y-76357868D01*
X96191401Y-76343253D01*
X96173223Y-76326777D01*
X96156747Y-76308599D01*
X96142132Y-76288893D01*
X96129520Y-76267850D01*
X96119030Y-76245671D01*
X96110765Y-76222572D01*
X96104804Y-76198773D01*
X96101204Y-76174505D01*
X96100000Y-76150001D01*
X96100000Y-75499999D01*
X96101204Y-75475495D01*
X96104804Y-75451227D01*
X96110765Y-75427428D01*
X96119030Y-75404329D01*
X96129520Y-75382150D01*
X96142132Y-75361107D01*
X96156747Y-75341401D01*
X96173223Y-75323223D01*
X96191401Y-75306747D01*
X96211107Y-75292132D01*
X96232150Y-75279520D01*
X96254329Y-75269030D01*
X96277428Y-75260765D01*
X96301227Y-75254804D01*
X96325495Y-75251204D01*
X96349999Y-75250000D01*
X97250001Y-75250000D01*
X97274505Y-75251204D01*
X97274505Y-75251204D01*
G37*
D12*
X96800000Y-75825000D03*
G04 #@! TD*
D11*
G04 #@! TO.C,D1*
G36*
X79374505Y-53901204D02*
X79398773Y-53904804D01*
X79422572Y-53910765D01*
X79445671Y-53919030D01*
X79467850Y-53929520D01*
X79488893Y-53942132D01*
X79508599Y-53956747D01*
X79526777Y-53973223D01*
X79543253Y-53991401D01*
X79557868Y-54011107D01*
X79570480Y-54032150D01*
X79580970Y-54054329D01*
X79589235Y-54077428D01*
X79595196Y-54101227D01*
X79598796Y-54125495D01*
X79600000Y-54149999D01*
X79600000Y-55050001D01*
X79598796Y-55074505D01*
X79595196Y-55098773D01*
X79589235Y-55122572D01*
X79580970Y-55145671D01*
X79570480Y-55167850D01*
X79557868Y-55188893D01*
X79543253Y-55208599D01*
X79526777Y-55226777D01*
X79508599Y-55243253D01*
X79488893Y-55257868D01*
X79467850Y-55270480D01*
X79445671Y-55280970D01*
X79422572Y-55289235D01*
X79398773Y-55295196D01*
X79374505Y-55298796D01*
X79350001Y-55300000D01*
X78699999Y-55300000D01*
X78675495Y-55298796D01*
X78651227Y-55295196D01*
X78627428Y-55289235D01*
X78604329Y-55280970D01*
X78582150Y-55270480D01*
X78561107Y-55257868D01*
X78541401Y-55243253D01*
X78523223Y-55226777D01*
X78506747Y-55208599D01*
X78492132Y-55188893D01*
X78479520Y-55167850D01*
X78469030Y-55145671D01*
X78460765Y-55122572D01*
X78454804Y-55098773D01*
X78451204Y-55074505D01*
X78450000Y-55050001D01*
X78450000Y-54149999D01*
X78451204Y-54125495D01*
X78454804Y-54101227D01*
X78460765Y-54077428D01*
X78469030Y-54054329D01*
X78479520Y-54032150D01*
X78492132Y-54011107D01*
X78506747Y-53991401D01*
X78523223Y-53973223D01*
X78541401Y-53956747D01*
X78561107Y-53942132D01*
X78582150Y-53929520D01*
X78604329Y-53919030D01*
X78627428Y-53910765D01*
X78651227Y-53904804D01*
X78675495Y-53901204D01*
X78699999Y-53900000D01*
X79350001Y-53900000D01*
X79374505Y-53901204D01*
X79374505Y-53901204D01*
G37*
D12*
X79025000Y-54600000D03*
D11*
G36*
X77324505Y-53901204D02*
X77348773Y-53904804D01*
X77372572Y-53910765D01*
X77395671Y-53919030D01*
X77417850Y-53929520D01*
X77438893Y-53942132D01*
X77458599Y-53956747D01*
X77476777Y-53973223D01*
X77493253Y-53991401D01*
X77507868Y-54011107D01*
X77520480Y-54032150D01*
X77530970Y-54054329D01*
X77539235Y-54077428D01*
X77545196Y-54101227D01*
X77548796Y-54125495D01*
X77550000Y-54149999D01*
X77550000Y-55050001D01*
X77548796Y-55074505D01*
X77545196Y-55098773D01*
X77539235Y-55122572D01*
X77530970Y-55145671D01*
X77520480Y-55167850D01*
X77507868Y-55188893D01*
X77493253Y-55208599D01*
X77476777Y-55226777D01*
X77458599Y-55243253D01*
X77438893Y-55257868D01*
X77417850Y-55270480D01*
X77395671Y-55280970D01*
X77372572Y-55289235D01*
X77348773Y-55295196D01*
X77324505Y-55298796D01*
X77300001Y-55300000D01*
X76649999Y-55300000D01*
X76625495Y-55298796D01*
X76601227Y-55295196D01*
X76577428Y-55289235D01*
X76554329Y-55280970D01*
X76532150Y-55270480D01*
X76511107Y-55257868D01*
X76491401Y-55243253D01*
X76473223Y-55226777D01*
X76456747Y-55208599D01*
X76442132Y-55188893D01*
X76429520Y-55167850D01*
X76419030Y-55145671D01*
X76410765Y-55122572D01*
X76404804Y-55098773D01*
X76401204Y-55074505D01*
X76400000Y-55050001D01*
X76400000Y-54149999D01*
X76401204Y-54125495D01*
X76404804Y-54101227D01*
X76410765Y-54077428D01*
X76419030Y-54054329D01*
X76429520Y-54032150D01*
X76442132Y-54011107D01*
X76456747Y-53991401D01*
X76473223Y-53973223D01*
X76491401Y-53956747D01*
X76511107Y-53942132D01*
X76532150Y-53929520D01*
X76554329Y-53919030D01*
X76577428Y-53910765D01*
X76601227Y-53904804D01*
X76625495Y-53901204D01*
X76649999Y-53900000D01*
X77300001Y-53900000D01*
X77324505Y-53901204D01*
X77324505Y-53901204D01*
G37*
D12*
X76975000Y-54600000D03*
G04 #@! TD*
D15*
G04 #@! TO.C,U3*
X78200000Y-71810000D03*
X78200000Y-70540000D03*
X78200000Y-69270000D03*
X78200000Y-68000000D03*
X78200000Y-66730000D03*
X78200000Y-65460000D03*
X78200000Y-64190000D03*
X72800000Y-64190000D03*
X72800000Y-65460000D03*
X72800000Y-66730000D03*
X72800000Y-68000000D03*
X72800000Y-69270000D03*
X72800000Y-70540000D03*
X72800000Y-71810000D03*
G04 #@! TD*
D16*
G04 #@! TO.C,U2*
X81095000Y-86200000D03*
X82365000Y-86200000D03*
X83635000Y-86200000D03*
X84905000Y-86200000D03*
X84905000Y-80800000D03*
X83635000Y-80800000D03*
X82365000Y-80800000D03*
X81095000Y-80800000D03*
G04 #@! TD*
G04 #@! TO.C,U1*
X102805000Y-83050000D03*
X101535000Y-83050000D03*
X100265000Y-83050000D03*
X98995000Y-83050000D03*
X98995000Y-77650000D03*
X100265000Y-77650000D03*
X101535000Y-77650000D03*
X102805000Y-77650000D03*
G04 #@! TD*
D17*
G04 #@! TO.C,U4*
X115300000Y-62595000D03*
X115300000Y-63865000D03*
X115300000Y-65135000D03*
X115300000Y-66405000D03*
X120700000Y-66405000D03*
X120700000Y-65135000D03*
X120700000Y-63865000D03*
X120700000Y-62595000D03*
G04 #@! TD*
D11*
G04 #@! TO.C,R3*
G36*
X125974505Y-72901204D02*
X125998773Y-72904804D01*
X126022572Y-72910765D01*
X126045671Y-72919030D01*
X126067850Y-72929520D01*
X126088893Y-72942132D01*
X126108599Y-72956747D01*
X126126777Y-72973223D01*
X126143253Y-72991401D01*
X126157868Y-73011107D01*
X126170480Y-73032150D01*
X126180970Y-73054329D01*
X126189235Y-73077428D01*
X126195196Y-73101227D01*
X126198796Y-73125495D01*
X126200000Y-73149999D01*
X126200000Y-73800001D01*
X126198796Y-73824505D01*
X126195196Y-73848773D01*
X126189235Y-73872572D01*
X126180970Y-73895671D01*
X126170480Y-73917850D01*
X126157868Y-73938893D01*
X126143253Y-73958599D01*
X126126777Y-73976777D01*
X126108599Y-73993253D01*
X126088893Y-74007868D01*
X126067850Y-74020480D01*
X126045671Y-74030970D01*
X126022572Y-74039235D01*
X125998773Y-74045196D01*
X125974505Y-74048796D01*
X125950001Y-74050000D01*
X125049999Y-74050000D01*
X125025495Y-74048796D01*
X125001227Y-74045196D01*
X124977428Y-74039235D01*
X124954329Y-74030970D01*
X124932150Y-74020480D01*
X124911107Y-74007868D01*
X124891401Y-73993253D01*
X124873223Y-73976777D01*
X124856747Y-73958599D01*
X124842132Y-73938893D01*
X124829520Y-73917850D01*
X124819030Y-73895671D01*
X124810765Y-73872572D01*
X124804804Y-73848773D01*
X124801204Y-73824505D01*
X124800000Y-73800001D01*
X124800000Y-73149999D01*
X124801204Y-73125495D01*
X124804804Y-73101227D01*
X124810765Y-73077428D01*
X124819030Y-73054329D01*
X124829520Y-73032150D01*
X124842132Y-73011107D01*
X124856747Y-72991401D01*
X124873223Y-72973223D01*
X124891401Y-72956747D01*
X124911107Y-72942132D01*
X124932150Y-72929520D01*
X124954329Y-72919030D01*
X124977428Y-72910765D01*
X125001227Y-72904804D01*
X125025495Y-72901204D01*
X125049999Y-72900000D01*
X125950001Y-72900000D01*
X125974505Y-72901204D01*
X125974505Y-72901204D01*
G37*
D12*
X125500000Y-73475000D03*
D11*
G36*
X125974505Y-74951204D02*
X125998773Y-74954804D01*
X126022572Y-74960765D01*
X126045671Y-74969030D01*
X126067850Y-74979520D01*
X126088893Y-74992132D01*
X126108599Y-75006747D01*
X126126777Y-75023223D01*
X126143253Y-75041401D01*
X126157868Y-75061107D01*
X126170480Y-75082150D01*
X126180970Y-75104329D01*
X126189235Y-75127428D01*
X126195196Y-75151227D01*
X126198796Y-75175495D01*
X126200000Y-75199999D01*
X126200000Y-75850001D01*
X126198796Y-75874505D01*
X126195196Y-75898773D01*
X126189235Y-75922572D01*
X126180970Y-75945671D01*
X126170480Y-75967850D01*
X126157868Y-75988893D01*
X126143253Y-76008599D01*
X126126777Y-76026777D01*
X126108599Y-76043253D01*
X126088893Y-76057868D01*
X126067850Y-76070480D01*
X126045671Y-76080970D01*
X126022572Y-76089235D01*
X125998773Y-76095196D01*
X125974505Y-76098796D01*
X125950001Y-76100000D01*
X125049999Y-76100000D01*
X125025495Y-76098796D01*
X125001227Y-76095196D01*
X124977428Y-76089235D01*
X124954329Y-76080970D01*
X124932150Y-76070480D01*
X124911107Y-76057868D01*
X124891401Y-76043253D01*
X124873223Y-76026777D01*
X124856747Y-76008599D01*
X124842132Y-75988893D01*
X124829520Y-75967850D01*
X124819030Y-75945671D01*
X124810765Y-75922572D01*
X124804804Y-75898773D01*
X124801204Y-75874505D01*
X124800000Y-75850001D01*
X124800000Y-75199999D01*
X124801204Y-75175495D01*
X124804804Y-75151227D01*
X124810765Y-75127428D01*
X124819030Y-75104329D01*
X124829520Y-75082150D01*
X124842132Y-75061107D01*
X124856747Y-75041401D01*
X124873223Y-75023223D01*
X124891401Y-75006747D01*
X124911107Y-74992132D01*
X124932150Y-74979520D01*
X124954329Y-74969030D01*
X124977428Y-74960765D01*
X125001227Y-74954804D01*
X125025495Y-74951204D01*
X125049999Y-74950000D01*
X125950001Y-74950000D01*
X125974505Y-74951204D01*
X125974505Y-74951204D01*
G37*
D12*
X125500000Y-75525000D03*
G04 #@! TD*
D11*
G04 #@! TO.C,R4*
G36*
X125324505Y-78301204D02*
X125348773Y-78304804D01*
X125372572Y-78310765D01*
X125395671Y-78319030D01*
X125417850Y-78329520D01*
X125438893Y-78342132D01*
X125458599Y-78356747D01*
X125476777Y-78373223D01*
X125493253Y-78391401D01*
X125507868Y-78411107D01*
X125520480Y-78432150D01*
X125530970Y-78454329D01*
X125539235Y-78477428D01*
X125545196Y-78501227D01*
X125548796Y-78525495D01*
X125550000Y-78549999D01*
X125550000Y-79450001D01*
X125548796Y-79474505D01*
X125545196Y-79498773D01*
X125539235Y-79522572D01*
X125530970Y-79545671D01*
X125520480Y-79567850D01*
X125507868Y-79588893D01*
X125493253Y-79608599D01*
X125476777Y-79626777D01*
X125458599Y-79643253D01*
X125438893Y-79657868D01*
X125417850Y-79670480D01*
X125395671Y-79680970D01*
X125372572Y-79689235D01*
X125348773Y-79695196D01*
X125324505Y-79698796D01*
X125300001Y-79700000D01*
X124649999Y-79700000D01*
X124625495Y-79698796D01*
X124601227Y-79695196D01*
X124577428Y-79689235D01*
X124554329Y-79680970D01*
X124532150Y-79670480D01*
X124511107Y-79657868D01*
X124491401Y-79643253D01*
X124473223Y-79626777D01*
X124456747Y-79608599D01*
X124442132Y-79588893D01*
X124429520Y-79567850D01*
X124419030Y-79545671D01*
X124410765Y-79522572D01*
X124404804Y-79498773D01*
X124401204Y-79474505D01*
X124400000Y-79450001D01*
X124400000Y-78549999D01*
X124401204Y-78525495D01*
X124404804Y-78501227D01*
X124410765Y-78477428D01*
X124419030Y-78454329D01*
X124429520Y-78432150D01*
X124442132Y-78411107D01*
X124456747Y-78391401D01*
X124473223Y-78373223D01*
X124491401Y-78356747D01*
X124511107Y-78342132D01*
X124532150Y-78329520D01*
X124554329Y-78319030D01*
X124577428Y-78310765D01*
X124601227Y-78304804D01*
X124625495Y-78301204D01*
X124649999Y-78300000D01*
X125300001Y-78300000D01*
X125324505Y-78301204D01*
X125324505Y-78301204D01*
G37*
D12*
X124975000Y-79000000D03*
D11*
G36*
X127374505Y-78301204D02*
X127398773Y-78304804D01*
X127422572Y-78310765D01*
X127445671Y-78319030D01*
X127467850Y-78329520D01*
X127488893Y-78342132D01*
X127508599Y-78356747D01*
X127526777Y-78373223D01*
X127543253Y-78391401D01*
X127557868Y-78411107D01*
X127570480Y-78432150D01*
X127580970Y-78454329D01*
X127589235Y-78477428D01*
X127595196Y-78501227D01*
X127598796Y-78525495D01*
X127600000Y-78549999D01*
X127600000Y-79450001D01*
X127598796Y-79474505D01*
X127595196Y-79498773D01*
X127589235Y-79522572D01*
X127580970Y-79545671D01*
X127570480Y-79567850D01*
X127557868Y-79588893D01*
X127543253Y-79608599D01*
X127526777Y-79626777D01*
X127508599Y-79643253D01*
X127488893Y-79657868D01*
X127467850Y-79670480D01*
X127445671Y-79680970D01*
X127422572Y-79689235D01*
X127398773Y-79695196D01*
X127374505Y-79698796D01*
X127350001Y-79700000D01*
X126699999Y-79700000D01*
X126675495Y-79698796D01*
X126651227Y-79695196D01*
X126627428Y-79689235D01*
X126604329Y-79680970D01*
X126582150Y-79670480D01*
X126561107Y-79657868D01*
X126541401Y-79643253D01*
X126523223Y-79626777D01*
X126506747Y-79608599D01*
X126492132Y-79588893D01*
X126479520Y-79567850D01*
X126469030Y-79545671D01*
X126460765Y-79522572D01*
X126454804Y-79498773D01*
X126451204Y-79474505D01*
X126450000Y-79450001D01*
X126450000Y-78549999D01*
X126451204Y-78525495D01*
X126454804Y-78501227D01*
X126460765Y-78477428D01*
X126469030Y-78454329D01*
X126479520Y-78432150D01*
X126492132Y-78411107D01*
X126506747Y-78391401D01*
X126523223Y-78373223D01*
X126541401Y-78356747D01*
X126561107Y-78342132D01*
X126582150Y-78329520D01*
X126604329Y-78319030D01*
X126627428Y-78310765D01*
X126651227Y-78304804D01*
X126675495Y-78301204D01*
X126699999Y-78300000D01*
X127350001Y-78300000D01*
X127374505Y-78301204D01*
X127374505Y-78301204D01*
G37*
D12*
X127025000Y-79000000D03*
G04 #@! TD*
D11*
G04 #@! TO.C,R5*
G36*
X108974505Y-77701204D02*
X108998773Y-77704804D01*
X109022572Y-77710765D01*
X109045671Y-77719030D01*
X109067850Y-77729520D01*
X109088893Y-77742132D01*
X109108599Y-77756747D01*
X109126777Y-77773223D01*
X109143253Y-77791401D01*
X109157868Y-77811107D01*
X109170480Y-77832150D01*
X109180970Y-77854329D01*
X109189235Y-77877428D01*
X109195196Y-77901227D01*
X109198796Y-77925495D01*
X109200000Y-77949999D01*
X109200000Y-78850001D01*
X109198796Y-78874505D01*
X109195196Y-78898773D01*
X109189235Y-78922572D01*
X109180970Y-78945671D01*
X109170480Y-78967850D01*
X109157868Y-78988893D01*
X109143253Y-79008599D01*
X109126777Y-79026777D01*
X109108599Y-79043253D01*
X109088893Y-79057868D01*
X109067850Y-79070480D01*
X109045671Y-79080970D01*
X109022572Y-79089235D01*
X108998773Y-79095196D01*
X108974505Y-79098796D01*
X108950001Y-79100000D01*
X108299999Y-79100000D01*
X108275495Y-79098796D01*
X108251227Y-79095196D01*
X108227428Y-79089235D01*
X108204329Y-79080970D01*
X108182150Y-79070480D01*
X108161107Y-79057868D01*
X108141401Y-79043253D01*
X108123223Y-79026777D01*
X108106747Y-79008599D01*
X108092132Y-78988893D01*
X108079520Y-78967850D01*
X108069030Y-78945671D01*
X108060765Y-78922572D01*
X108054804Y-78898773D01*
X108051204Y-78874505D01*
X108050000Y-78850001D01*
X108050000Y-77949999D01*
X108051204Y-77925495D01*
X108054804Y-77901227D01*
X108060765Y-77877428D01*
X108069030Y-77854329D01*
X108079520Y-77832150D01*
X108092132Y-77811107D01*
X108106747Y-77791401D01*
X108123223Y-77773223D01*
X108141401Y-77756747D01*
X108161107Y-77742132D01*
X108182150Y-77729520D01*
X108204329Y-77719030D01*
X108227428Y-77710765D01*
X108251227Y-77704804D01*
X108275495Y-77701204D01*
X108299999Y-77700000D01*
X108950001Y-77700000D01*
X108974505Y-77701204D01*
X108974505Y-77701204D01*
G37*
D12*
X108625000Y-78400000D03*
D11*
G36*
X106924505Y-77701204D02*
X106948773Y-77704804D01*
X106972572Y-77710765D01*
X106995671Y-77719030D01*
X107017850Y-77729520D01*
X107038893Y-77742132D01*
X107058599Y-77756747D01*
X107076777Y-77773223D01*
X107093253Y-77791401D01*
X107107868Y-77811107D01*
X107120480Y-77832150D01*
X107130970Y-77854329D01*
X107139235Y-77877428D01*
X107145196Y-77901227D01*
X107148796Y-77925495D01*
X107150000Y-77949999D01*
X107150000Y-78850001D01*
X107148796Y-78874505D01*
X107145196Y-78898773D01*
X107139235Y-78922572D01*
X107130970Y-78945671D01*
X107120480Y-78967850D01*
X107107868Y-78988893D01*
X107093253Y-79008599D01*
X107076777Y-79026777D01*
X107058599Y-79043253D01*
X107038893Y-79057868D01*
X107017850Y-79070480D01*
X106995671Y-79080970D01*
X106972572Y-79089235D01*
X106948773Y-79095196D01*
X106924505Y-79098796D01*
X106900001Y-79100000D01*
X106249999Y-79100000D01*
X106225495Y-79098796D01*
X106201227Y-79095196D01*
X106177428Y-79089235D01*
X106154329Y-79080970D01*
X106132150Y-79070480D01*
X106111107Y-79057868D01*
X106091401Y-79043253D01*
X106073223Y-79026777D01*
X106056747Y-79008599D01*
X106042132Y-78988893D01*
X106029520Y-78967850D01*
X106019030Y-78945671D01*
X106010765Y-78922572D01*
X106004804Y-78898773D01*
X106001204Y-78874505D01*
X106000000Y-78850001D01*
X106000000Y-77949999D01*
X106001204Y-77925495D01*
X106004804Y-77901227D01*
X106010765Y-77877428D01*
X106019030Y-77854329D01*
X106029520Y-77832150D01*
X106042132Y-77811107D01*
X106056747Y-77791401D01*
X106073223Y-77773223D01*
X106091401Y-77756747D01*
X106111107Y-77742132D01*
X106132150Y-77729520D01*
X106154329Y-77719030D01*
X106177428Y-77710765D01*
X106201227Y-77704804D01*
X106225495Y-77701204D01*
X106249999Y-77700000D01*
X106900001Y-77700000D01*
X106924505Y-77701204D01*
X106924505Y-77701204D01*
G37*
D12*
X106575000Y-78400000D03*
G04 #@! TD*
D11*
G04 #@! TO.C,R7*
G36*
X78374505Y-84801204D02*
X78398773Y-84804804D01*
X78422572Y-84810765D01*
X78445671Y-84819030D01*
X78467850Y-84829520D01*
X78488893Y-84842132D01*
X78508599Y-84856747D01*
X78526777Y-84873223D01*
X78543253Y-84891401D01*
X78557868Y-84911107D01*
X78570480Y-84932150D01*
X78580970Y-84954329D01*
X78589235Y-84977428D01*
X78595196Y-85001227D01*
X78598796Y-85025495D01*
X78600000Y-85049999D01*
X78600000Y-85950001D01*
X78598796Y-85974505D01*
X78595196Y-85998773D01*
X78589235Y-86022572D01*
X78580970Y-86045671D01*
X78570480Y-86067850D01*
X78557868Y-86088893D01*
X78543253Y-86108599D01*
X78526777Y-86126777D01*
X78508599Y-86143253D01*
X78488893Y-86157868D01*
X78467850Y-86170480D01*
X78445671Y-86180970D01*
X78422572Y-86189235D01*
X78398773Y-86195196D01*
X78374505Y-86198796D01*
X78350001Y-86200000D01*
X77699999Y-86200000D01*
X77675495Y-86198796D01*
X77651227Y-86195196D01*
X77627428Y-86189235D01*
X77604329Y-86180970D01*
X77582150Y-86170480D01*
X77561107Y-86157868D01*
X77541401Y-86143253D01*
X77523223Y-86126777D01*
X77506747Y-86108599D01*
X77492132Y-86088893D01*
X77479520Y-86067850D01*
X77469030Y-86045671D01*
X77460765Y-86022572D01*
X77454804Y-85998773D01*
X77451204Y-85974505D01*
X77450000Y-85950001D01*
X77450000Y-85049999D01*
X77451204Y-85025495D01*
X77454804Y-85001227D01*
X77460765Y-84977428D01*
X77469030Y-84954329D01*
X77479520Y-84932150D01*
X77492132Y-84911107D01*
X77506747Y-84891401D01*
X77523223Y-84873223D01*
X77541401Y-84856747D01*
X77561107Y-84842132D01*
X77582150Y-84829520D01*
X77604329Y-84819030D01*
X77627428Y-84810765D01*
X77651227Y-84804804D01*
X77675495Y-84801204D01*
X77699999Y-84800000D01*
X78350001Y-84800000D01*
X78374505Y-84801204D01*
X78374505Y-84801204D01*
G37*
D12*
X78025000Y-85500000D03*
D11*
G36*
X76324505Y-84801204D02*
X76348773Y-84804804D01*
X76372572Y-84810765D01*
X76395671Y-84819030D01*
X76417850Y-84829520D01*
X76438893Y-84842132D01*
X76458599Y-84856747D01*
X76476777Y-84873223D01*
X76493253Y-84891401D01*
X76507868Y-84911107D01*
X76520480Y-84932150D01*
X76530970Y-84954329D01*
X76539235Y-84977428D01*
X76545196Y-85001227D01*
X76548796Y-85025495D01*
X76550000Y-85049999D01*
X76550000Y-85950001D01*
X76548796Y-85974505D01*
X76545196Y-85998773D01*
X76539235Y-86022572D01*
X76530970Y-86045671D01*
X76520480Y-86067850D01*
X76507868Y-86088893D01*
X76493253Y-86108599D01*
X76476777Y-86126777D01*
X76458599Y-86143253D01*
X76438893Y-86157868D01*
X76417850Y-86170480D01*
X76395671Y-86180970D01*
X76372572Y-86189235D01*
X76348773Y-86195196D01*
X76324505Y-86198796D01*
X76300001Y-86200000D01*
X75649999Y-86200000D01*
X75625495Y-86198796D01*
X75601227Y-86195196D01*
X75577428Y-86189235D01*
X75554329Y-86180970D01*
X75532150Y-86170480D01*
X75511107Y-86157868D01*
X75491401Y-86143253D01*
X75473223Y-86126777D01*
X75456747Y-86108599D01*
X75442132Y-86088893D01*
X75429520Y-86067850D01*
X75419030Y-86045671D01*
X75410765Y-86022572D01*
X75404804Y-85998773D01*
X75401204Y-85974505D01*
X75400000Y-85950001D01*
X75400000Y-85049999D01*
X75401204Y-85025495D01*
X75404804Y-85001227D01*
X75410765Y-84977428D01*
X75419030Y-84954329D01*
X75429520Y-84932150D01*
X75442132Y-84911107D01*
X75456747Y-84891401D01*
X75473223Y-84873223D01*
X75491401Y-84856747D01*
X75511107Y-84842132D01*
X75532150Y-84829520D01*
X75554329Y-84819030D01*
X75577428Y-84810765D01*
X75601227Y-84804804D01*
X75625495Y-84801204D01*
X75649999Y-84800000D01*
X76300001Y-84800000D01*
X76324505Y-84801204D01*
X76324505Y-84801204D01*
G37*
D12*
X75975000Y-85500000D03*
G04 #@! TD*
D11*
G04 #@! TO.C,R6*
G36*
X97074505Y-86851204D02*
X97098773Y-86854804D01*
X97122572Y-86860765D01*
X97145671Y-86869030D01*
X97167850Y-86879520D01*
X97188893Y-86892132D01*
X97208599Y-86906747D01*
X97226777Y-86923223D01*
X97243253Y-86941401D01*
X97257868Y-86961107D01*
X97270480Y-86982150D01*
X97280970Y-87004329D01*
X97289235Y-87027428D01*
X97295196Y-87051227D01*
X97298796Y-87075495D01*
X97300000Y-87099999D01*
X97300000Y-87750001D01*
X97298796Y-87774505D01*
X97295196Y-87798773D01*
X97289235Y-87822572D01*
X97280970Y-87845671D01*
X97270480Y-87867850D01*
X97257868Y-87888893D01*
X97243253Y-87908599D01*
X97226777Y-87926777D01*
X97208599Y-87943253D01*
X97188893Y-87957868D01*
X97167850Y-87970480D01*
X97145671Y-87980970D01*
X97122572Y-87989235D01*
X97098773Y-87995196D01*
X97074505Y-87998796D01*
X97050001Y-88000000D01*
X96149999Y-88000000D01*
X96125495Y-87998796D01*
X96101227Y-87995196D01*
X96077428Y-87989235D01*
X96054329Y-87980970D01*
X96032150Y-87970480D01*
X96011107Y-87957868D01*
X95991401Y-87943253D01*
X95973223Y-87926777D01*
X95956747Y-87908599D01*
X95942132Y-87888893D01*
X95929520Y-87867850D01*
X95919030Y-87845671D01*
X95910765Y-87822572D01*
X95904804Y-87798773D01*
X95901204Y-87774505D01*
X95900000Y-87750001D01*
X95900000Y-87099999D01*
X95901204Y-87075495D01*
X95904804Y-87051227D01*
X95910765Y-87027428D01*
X95919030Y-87004329D01*
X95929520Y-86982150D01*
X95942132Y-86961107D01*
X95956747Y-86941401D01*
X95973223Y-86923223D01*
X95991401Y-86906747D01*
X96011107Y-86892132D01*
X96032150Y-86879520D01*
X96054329Y-86869030D01*
X96077428Y-86860765D01*
X96101227Y-86854804D01*
X96125495Y-86851204D01*
X96149999Y-86850000D01*
X97050001Y-86850000D01*
X97074505Y-86851204D01*
X97074505Y-86851204D01*
G37*
D12*
X96600000Y-87425000D03*
D11*
G36*
X97074505Y-84801204D02*
X97098773Y-84804804D01*
X97122572Y-84810765D01*
X97145671Y-84819030D01*
X97167850Y-84829520D01*
X97188893Y-84842132D01*
X97208599Y-84856747D01*
X97226777Y-84873223D01*
X97243253Y-84891401D01*
X97257868Y-84911107D01*
X97270480Y-84932150D01*
X97280970Y-84954329D01*
X97289235Y-84977428D01*
X97295196Y-85001227D01*
X97298796Y-85025495D01*
X97300000Y-85049999D01*
X97300000Y-85700001D01*
X97298796Y-85724505D01*
X97295196Y-85748773D01*
X97289235Y-85772572D01*
X97280970Y-85795671D01*
X97270480Y-85817850D01*
X97257868Y-85838893D01*
X97243253Y-85858599D01*
X97226777Y-85876777D01*
X97208599Y-85893253D01*
X97188893Y-85907868D01*
X97167850Y-85920480D01*
X97145671Y-85930970D01*
X97122572Y-85939235D01*
X97098773Y-85945196D01*
X97074505Y-85948796D01*
X97050001Y-85950000D01*
X96149999Y-85950000D01*
X96125495Y-85948796D01*
X96101227Y-85945196D01*
X96077428Y-85939235D01*
X96054329Y-85930970D01*
X96032150Y-85920480D01*
X96011107Y-85907868D01*
X95991401Y-85893253D01*
X95973223Y-85876777D01*
X95956747Y-85858599D01*
X95942132Y-85838893D01*
X95929520Y-85817850D01*
X95919030Y-85795671D01*
X95910765Y-85772572D01*
X95904804Y-85748773D01*
X95901204Y-85724505D01*
X95900000Y-85700001D01*
X95900000Y-85049999D01*
X95901204Y-85025495D01*
X95904804Y-85001227D01*
X95910765Y-84977428D01*
X95919030Y-84954329D01*
X95929520Y-84932150D01*
X95942132Y-84911107D01*
X95956747Y-84891401D01*
X95973223Y-84873223D01*
X95991401Y-84856747D01*
X96011107Y-84842132D01*
X96032150Y-84829520D01*
X96054329Y-84819030D01*
X96077428Y-84810765D01*
X96101227Y-84804804D01*
X96125495Y-84801204D01*
X96149999Y-84800000D01*
X97050001Y-84800000D01*
X97074505Y-84801204D01*
X97074505Y-84801204D01*
G37*
D12*
X96600000Y-85375000D03*
G04 #@! TD*
D11*
G04 #@! TO.C,R1*
G36*
X77324505Y-57301204D02*
X77348773Y-57304804D01*
X77372572Y-57310765D01*
X77395671Y-57319030D01*
X77417850Y-57329520D01*
X77438893Y-57342132D01*
X77458599Y-57356747D01*
X77476777Y-57373223D01*
X77493253Y-57391401D01*
X77507868Y-57411107D01*
X77520480Y-57432150D01*
X77530970Y-57454329D01*
X77539235Y-57477428D01*
X77545196Y-57501227D01*
X77548796Y-57525495D01*
X77550000Y-57549999D01*
X77550000Y-58450001D01*
X77548796Y-58474505D01*
X77545196Y-58498773D01*
X77539235Y-58522572D01*
X77530970Y-58545671D01*
X77520480Y-58567850D01*
X77507868Y-58588893D01*
X77493253Y-58608599D01*
X77476777Y-58626777D01*
X77458599Y-58643253D01*
X77438893Y-58657868D01*
X77417850Y-58670480D01*
X77395671Y-58680970D01*
X77372572Y-58689235D01*
X77348773Y-58695196D01*
X77324505Y-58698796D01*
X77300001Y-58700000D01*
X76649999Y-58700000D01*
X76625495Y-58698796D01*
X76601227Y-58695196D01*
X76577428Y-58689235D01*
X76554329Y-58680970D01*
X76532150Y-58670480D01*
X76511107Y-58657868D01*
X76491401Y-58643253D01*
X76473223Y-58626777D01*
X76456747Y-58608599D01*
X76442132Y-58588893D01*
X76429520Y-58567850D01*
X76419030Y-58545671D01*
X76410765Y-58522572D01*
X76404804Y-58498773D01*
X76401204Y-58474505D01*
X76400000Y-58450001D01*
X76400000Y-57549999D01*
X76401204Y-57525495D01*
X76404804Y-57501227D01*
X76410765Y-57477428D01*
X76419030Y-57454329D01*
X76429520Y-57432150D01*
X76442132Y-57411107D01*
X76456747Y-57391401D01*
X76473223Y-57373223D01*
X76491401Y-57356747D01*
X76511107Y-57342132D01*
X76532150Y-57329520D01*
X76554329Y-57319030D01*
X76577428Y-57310765D01*
X76601227Y-57304804D01*
X76625495Y-57301204D01*
X76649999Y-57300000D01*
X77300001Y-57300000D01*
X77324505Y-57301204D01*
X77324505Y-57301204D01*
G37*
D12*
X76975000Y-58000000D03*
D11*
G36*
X79374505Y-57301204D02*
X79398773Y-57304804D01*
X79422572Y-57310765D01*
X79445671Y-57319030D01*
X79467850Y-57329520D01*
X79488893Y-57342132D01*
X79508599Y-57356747D01*
X79526777Y-57373223D01*
X79543253Y-57391401D01*
X79557868Y-57411107D01*
X79570480Y-57432150D01*
X79580970Y-57454329D01*
X79589235Y-57477428D01*
X79595196Y-57501227D01*
X79598796Y-57525495D01*
X79600000Y-57549999D01*
X79600000Y-58450001D01*
X79598796Y-58474505D01*
X79595196Y-58498773D01*
X79589235Y-58522572D01*
X79580970Y-58545671D01*
X79570480Y-58567850D01*
X79557868Y-58588893D01*
X79543253Y-58608599D01*
X79526777Y-58626777D01*
X79508599Y-58643253D01*
X79488893Y-58657868D01*
X79467850Y-58670480D01*
X79445671Y-58680970D01*
X79422572Y-58689235D01*
X79398773Y-58695196D01*
X79374505Y-58698796D01*
X79350001Y-58700000D01*
X78699999Y-58700000D01*
X78675495Y-58698796D01*
X78651227Y-58695196D01*
X78627428Y-58689235D01*
X78604329Y-58680970D01*
X78582150Y-58670480D01*
X78561107Y-58657868D01*
X78541401Y-58643253D01*
X78523223Y-58626777D01*
X78506747Y-58608599D01*
X78492132Y-58588893D01*
X78479520Y-58567850D01*
X78469030Y-58545671D01*
X78460765Y-58522572D01*
X78454804Y-58498773D01*
X78451204Y-58474505D01*
X78450000Y-58450001D01*
X78450000Y-57549999D01*
X78451204Y-57525495D01*
X78454804Y-57501227D01*
X78460765Y-57477428D01*
X78469030Y-57454329D01*
X78479520Y-57432150D01*
X78492132Y-57411107D01*
X78506747Y-57391401D01*
X78523223Y-57373223D01*
X78541401Y-57356747D01*
X78561107Y-57342132D01*
X78582150Y-57329520D01*
X78604329Y-57319030D01*
X78627428Y-57310765D01*
X78651227Y-57304804D01*
X78675495Y-57301204D01*
X78699999Y-57300000D01*
X79350001Y-57300000D01*
X79374505Y-57301204D01*
X79374505Y-57301204D01*
G37*
D12*
X79025000Y-58000000D03*
G04 #@! TD*
D11*
G04 #@! TO.C,R2*
G36*
X96974505Y-55401204D02*
X96998773Y-55404804D01*
X97022572Y-55410765D01*
X97045671Y-55419030D01*
X97067850Y-55429520D01*
X97088893Y-55442132D01*
X97108599Y-55456747D01*
X97126777Y-55473223D01*
X97143253Y-55491401D01*
X97157868Y-55511107D01*
X97170480Y-55532150D01*
X97180970Y-55554329D01*
X97189235Y-55577428D01*
X97195196Y-55601227D01*
X97198796Y-55625495D01*
X97200000Y-55649999D01*
X97200000Y-56300001D01*
X97198796Y-56324505D01*
X97195196Y-56348773D01*
X97189235Y-56372572D01*
X97180970Y-56395671D01*
X97170480Y-56417850D01*
X97157868Y-56438893D01*
X97143253Y-56458599D01*
X97126777Y-56476777D01*
X97108599Y-56493253D01*
X97088893Y-56507868D01*
X97067850Y-56520480D01*
X97045671Y-56530970D01*
X97022572Y-56539235D01*
X96998773Y-56545196D01*
X96974505Y-56548796D01*
X96950001Y-56550000D01*
X96049999Y-56550000D01*
X96025495Y-56548796D01*
X96001227Y-56545196D01*
X95977428Y-56539235D01*
X95954329Y-56530970D01*
X95932150Y-56520480D01*
X95911107Y-56507868D01*
X95891401Y-56493253D01*
X95873223Y-56476777D01*
X95856747Y-56458599D01*
X95842132Y-56438893D01*
X95829520Y-56417850D01*
X95819030Y-56395671D01*
X95810765Y-56372572D01*
X95804804Y-56348773D01*
X95801204Y-56324505D01*
X95800000Y-56300001D01*
X95800000Y-55649999D01*
X95801204Y-55625495D01*
X95804804Y-55601227D01*
X95810765Y-55577428D01*
X95819030Y-55554329D01*
X95829520Y-55532150D01*
X95842132Y-55511107D01*
X95856747Y-55491401D01*
X95873223Y-55473223D01*
X95891401Y-55456747D01*
X95911107Y-55442132D01*
X95932150Y-55429520D01*
X95954329Y-55419030D01*
X95977428Y-55410765D01*
X96001227Y-55404804D01*
X96025495Y-55401204D01*
X96049999Y-55400000D01*
X96950001Y-55400000D01*
X96974505Y-55401204D01*
X96974505Y-55401204D01*
G37*
D12*
X96500000Y-55975000D03*
D11*
G36*
X96974505Y-57451204D02*
X96998773Y-57454804D01*
X97022572Y-57460765D01*
X97045671Y-57469030D01*
X97067850Y-57479520D01*
X97088893Y-57492132D01*
X97108599Y-57506747D01*
X97126777Y-57523223D01*
X97143253Y-57541401D01*
X97157868Y-57561107D01*
X97170480Y-57582150D01*
X97180970Y-57604329D01*
X97189235Y-57627428D01*
X97195196Y-57651227D01*
X97198796Y-57675495D01*
X97200000Y-57699999D01*
X97200000Y-58350001D01*
X97198796Y-58374505D01*
X97195196Y-58398773D01*
X97189235Y-58422572D01*
X97180970Y-58445671D01*
X97170480Y-58467850D01*
X97157868Y-58488893D01*
X97143253Y-58508599D01*
X97126777Y-58526777D01*
X97108599Y-58543253D01*
X97088893Y-58557868D01*
X97067850Y-58570480D01*
X97045671Y-58580970D01*
X97022572Y-58589235D01*
X96998773Y-58595196D01*
X96974505Y-58598796D01*
X96950001Y-58600000D01*
X96049999Y-58600000D01*
X96025495Y-58598796D01*
X96001227Y-58595196D01*
X95977428Y-58589235D01*
X95954329Y-58580970D01*
X95932150Y-58570480D01*
X95911107Y-58557868D01*
X95891401Y-58543253D01*
X95873223Y-58526777D01*
X95856747Y-58508599D01*
X95842132Y-58488893D01*
X95829520Y-58467850D01*
X95819030Y-58445671D01*
X95810765Y-58422572D01*
X95804804Y-58398773D01*
X95801204Y-58374505D01*
X95800000Y-58350001D01*
X95800000Y-57699999D01*
X95801204Y-57675495D01*
X95804804Y-57651227D01*
X95810765Y-57627428D01*
X95819030Y-57604329D01*
X95829520Y-57582150D01*
X95842132Y-57561107D01*
X95856747Y-57541401D01*
X95873223Y-57523223D01*
X95891401Y-57506747D01*
X95911107Y-57492132D01*
X95932150Y-57479520D01*
X95954329Y-57469030D01*
X95977428Y-57460765D01*
X96001227Y-57454804D01*
X96025495Y-57451204D01*
X96049999Y-57450000D01*
X96950001Y-57450000D01*
X96974505Y-57451204D01*
X96974505Y-57451204D01*
G37*
D12*
X96500000Y-58025000D03*
G04 #@! TD*
M02*
