G04 #@! TF.GenerationSoftware,KiCad,Pcbnew,5.0.0*
G04 #@! TF.CreationDate,2018-10-27T20:33:49+02:00*
G04 #@! TF.ProjectId,SimpleBatDetector,53696D706C654261744465746563746F,rev?*
G04 #@! TF.SameCoordinates,Original*
G04 #@! TF.FileFunction,Soldermask,Bot*
G04 #@! TF.FilePolarity,Negative*
%FSLAX46Y46*%
G04 Gerber Fmt 4.6, Leading zero omitted, Abs format (unit mm)*
G04 Created by KiCad (PCBNEW 5.0.0) date Sat Oct 27 20:33:49 2018*
%MOMM*%
%LPD*%
G01*
G04 APERTURE LIST*
%ADD10C,0.100000*%
%ADD11C,3.400000*%
%ADD12R,5.200000X3.400000*%
%ADD13O,2.100000X2.100000*%
%ADD14R,2.100000X2.100000*%
%ADD15C,2.200000*%
%ADD16C,4.400000*%
G04 APERTURE END LIST*
D10*
G04 #@! TO.C,J2*
G36*
X134333315Y-56204093D02*
X134415827Y-56216333D01*
X134496742Y-56236601D01*
X134575281Y-56264702D01*
X134650687Y-56300367D01*
X134722235Y-56343251D01*
X134789234Y-56392941D01*
X134851041Y-56448959D01*
X134907059Y-56510766D01*
X134956749Y-56577765D01*
X134999633Y-56649313D01*
X135035298Y-56724719D01*
X135063399Y-56803258D01*
X135083667Y-56884173D01*
X135095907Y-56966685D01*
X135100000Y-57050000D01*
X135100000Y-58750000D01*
X135095907Y-58833315D01*
X135083667Y-58915827D01*
X135063399Y-58996742D01*
X135035298Y-59075281D01*
X134999633Y-59150687D01*
X134956749Y-59222235D01*
X134907059Y-59289234D01*
X134851041Y-59351041D01*
X134789234Y-59407059D01*
X134722235Y-59456749D01*
X134650687Y-59499633D01*
X134575281Y-59535298D01*
X134496742Y-59563399D01*
X134415827Y-59583667D01*
X134333315Y-59595907D01*
X134250000Y-59600000D01*
X130750000Y-59600000D01*
X130666685Y-59595907D01*
X130584173Y-59583667D01*
X130503258Y-59563399D01*
X130424719Y-59535298D01*
X130349313Y-59499633D01*
X130277765Y-59456749D01*
X130210766Y-59407059D01*
X130148959Y-59351041D01*
X130092941Y-59289234D01*
X130043251Y-59222235D01*
X130000367Y-59150687D01*
X129964702Y-59075281D01*
X129936601Y-58996742D01*
X129916333Y-58915827D01*
X129904093Y-58833315D01*
X129900000Y-58750000D01*
X129900000Y-57050000D01*
X129904093Y-56966685D01*
X129916333Y-56884173D01*
X129936601Y-56803258D01*
X129964702Y-56724719D01*
X130000367Y-56649313D01*
X130043251Y-56577765D01*
X130092941Y-56510766D01*
X130148959Y-56448959D01*
X130210766Y-56392941D01*
X130277765Y-56343251D01*
X130349313Y-56300367D01*
X130424719Y-56264702D01*
X130503258Y-56236601D01*
X130584173Y-56216333D01*
X130666685Y-56204093D01*
X130750000Y-56200000D01*
X134250000Y-56200000D01*
X134333315Y-56204093D01*
X134333315Y-56204093D01*
G37*
D11*
X132500000Y-57900000D03*
D12*
X132500000Y-64000000D03*
D10*
G36*
X128353315Y-57594093D02*
X128435827Y-57606333D01*
X128516742Y-57626601D01*
X128595281Y-57654702D01*
X128670687Y-57690367D01*
X128742235Y-57733251D01*
X128809234Y-57782941D01*
X128871041Y-57838959D01*
X128927059Y-57900766D01*
X128976749Y-57967765D01*
X129019633Y-58039313D01*
X129055298Y-58114719D01*
X129083399Y-58193258D01*
X129103667Y-58274173D01*
X129115907Y-58356685D01*
X129120000Y-58440000D01*
X129120000Y-61940000D01*
X129115907Y-62023315D01*
X129103667Y-62105827D01*
X129083399Y-62186742D01*
X129055298Y-62265281D01*
X129019633Y-62340687D01*
X128976749Y-62412235D01*
X128927059Y-62479234D01*
X128871041Y-62541041D01*
X128809234Y-62597059D01*
X128742235Y-62646749D01*
X128670687Y-62689633D01*
X128595281Y-62725298D01*
X128516742Y-62753399D01*
X128435827Y-62773667D01*
X128353315Y-62785907D01*
X128270000Y-62790000D01*
X126570000Y-62790000D01*
X126486685Y-62785907D01*
X126404173Y-62773667D01*
X126323258Y-62753399D01*
X126244719Y-62725298D01*
X126169313Y-62689633D01*
X126097765Y-62646749D01*
X126030766Y-62597059D01*
X125968959Y-62541041D01*
X125912941Y-62479234D01*
X125863251Y-62412235D01*
X125820367Y-62340687D01*
X125784702Y-62265281D01*
X125756601Y-62186742D01*
X125736333Y-62105827D01*
X125724093Y-62023315D01*
X125720000Y-61940000D01*
X125720000Y-58440000D01*
X125724093Y-58356685D01*
X125736333Y-58274173D01*
X125756601Y-58193258D01*
X125784702Y-58114719D01*
X125820367Y-58039313D01*
X125863251Y-57967765D01*
X125912941Y-57900766D01*
X125968959Y-57838959D01*
X126030766Y-57782941D01*
X126097765Y-57733251D01*
X126169313Y-57690367D01*
X126244719Y-57654702D01*
X126323258Y-57626601D01*
X126404173Y-57606333D01*
X126486685Y-57594093D01*
X126570000Y-57590000D01*
X128270000Y-57590000D01*
X128353315Y-57594093D01*
X128353315Y-57594093D01*
G37*
D11*
X127420000Y-60190000D03*
G04 #@! TD*
D13*
G04 #@! TO.C,BT1*
X126040000Y-84000000D03*
D14*
X123500000Y-84000000D03*
G04 #@! TD*
G04 #@! TO.C,SW1*
X130300000Y-72600000D03*
D13*
X130300000Y-70060000D03*
G04 #@! TD*
G04 #@! TO.C,MK1*
X135000000Y-84540000D03*
D14*
X135000000Y-82000000D03*
G04 #@! TD*
G04 #@! TO.C,LS1*
X134600000Y-70100000D03*
D13*
X134600000Y-72640000D03*
G04 #@! TD*
D15*
G04 #@! TO.C,RV1*
X109000000Y-60000000D03*
X106500000Y-60000000D03*
X104000000Y-60000000D03*
D16*
X110900000Y-67000000D03*
X102100000Y-67000000D03*
G04 #@! TD*
M02*
