G04 #@! TF.GenerationSoftware,KiCad,Pcbnew,5.0.0*
G04 #@! TF.CreationDate,2018-10-27T20:33:49+02:00*
G04 #@! TF.ProjectId,SimpleBatDetector,53696D706C654261744465746563746F,rev?*
G04 #@! TF.SameCoordinates,Original*
G04 #@! TF.FileFunction,Soldermask,Top*
G04 #@! TF.FilePolarity,Negative*
%FSLAX46Y46*%
G04 Gerber Fmt 4.6, Leading zero omitted, Abs format (unit mm)*
G04 Created by KiCad (PCBNEW 5.0.0) date Sat Oct 27 20:33:49 2018*
%MOMM*%
%LPD*%
G01*
G04 APERTURE LIST*
%ADD10R,3.550000X1.400000*%
%ADD11C,0.100000*%
%ADD12C,1.550000*%
%ADD13R,3.000000X2.000000*%
%ADD14R,2.900000X3.900000*%
%ADD15C,3.400000*%
%ADD16R,5.200000X3.400000*%
%ADD17O,2.100000X2.100000*%
%ADD18R,2.100000X2.100000*%
%ADD19C,0.500000*%
%ADD20R,1.900000X1.000000*%
%ADD21R,1.000000X1.950000*%
%ADD22R,1.950000X1.000000*%
%ADD23C,2.200000*%
%ADD24C,4.400000*%
G04 APERTURE END LIST*
D10*
G04 #@! TO.C,J1*
X85975000Y-60380000D03*
X91025000Y-60380000D03*
X85975000Y-62920000D03*
X91025000Y-62920000D03*
X85975000Y-65460000D03*
X91025000Y-65460000D03*
X85975000Y-68000000D03*
X91025000Y-68000000D03*
X85975000Y-70540000D03*
X91025000Y-70540000D03*
X85975000Y-73080000D03*
X91025000Y-73080000D03*
X85975000Y-75620000D03*
X91025000Y-75620000D03*
G04 #@! TD*
D11*
G04 #@! TO.C,R8*
G36*
X106496071Y-55601623D02*
X106528781Y-55606475D01*
X106560857Y-55614509D01*
X106591991Y-55625649D01*
X106621884Y-55639787D01*
X106650247Y-55656787D01*
X106676807Y-55676485D01*
X106701308Y-55698692D01*
X106723515Y-55723193D01*
X106743213Y-55749753D01*
X106760213Y-55778116D01*
X106774351Y-55808009D01*
X106785491Y-55839143D01*
X106793525Y-55871219D01*
X106798377Y-55903929D01*
X106800000Y-55936956D01*
X106800000Y-57063044D01*
X106798377Y-57096071D01*
X106793525Y-57128781D01*
X106785491Y-57160857D01*
X106774351Y-57191991D01*
X106760213Y-57221884D01*
X106743213Y-57250247D01*
X106723515Y-57276807D01*
X106701308Y-57301308D01*
X106676807Y-57323515D01*
X106650247Y-57343213D01*
X106621884Y-57360213D01*
X106591991Y-57374351D01*
X106560857Y-57385491D01*
X106528781Y-57393525D01*
X106496071Y-57398377D01*
X106463044Y-57400000D01*
X105586956Y-57400000D01*
X105553929Y-57398377D01*
X105521219Y-57393525D01*
X105489143Y-57385491D01*
X105458009Y-57374351D01*
X105428116Y-57360213D01*
X105399753Y-57343213D01*
X105373193Y-57323515D01*
X105348692Y-57301308D01*
X105326485Y-57276807D01*
X105306787Y-57250247D01*
X105289787Y-57221884D01*
X105275649Y-57191991D01*
X105264509Y-57160857D01*
X105256475Y-57128781D01*
X105251623Y-57096071D01*
X105250000Y-57063044D01*
X105250000Y-55936956D01*
X105251623Y-55903929D01*
X105256475Y-55871219D01*
X105264509Y-55839143D01*
X105275649Y-55808009D01*
X105289787Y-55778116D01*
X105306787Y-55749753D01*
X105326485Y-55723193D01*
X105348692Y-55698692D01*
X105373193Y-55676485D01*
X105399753Y-55656787D01*
X105428116Y-55639787D01*
X105458009Y-55625649D01*
X105489143Y-55614509D01*
X105521219Y-55606475D01*
X105553929Y-55601623D01*
X105586956Y-55600000D01*
X106463044Y-55600000D01*
X106496071Y-55601623D01*
X106496071Y-55601623D01*
G37*
D12*
X106025000Y-56500000D03*
D11*
G36*
X104446071Y-55601623D02*
X104478781Y-55606475D01*
X104510857Y-55614509D01*
X104541991Y-55625649D01*
X104571884Y-55639787D01*
X104600247Y-55656787D01*
X104626807Y-55676485D01*
X104651308Y-55698692D01*
X104673515Y-55723193D01*
X104693213Y-55749753D01*
X104710213Y-55778116D01*
X104724351Y-55808009D01*
X104735491Y-55839143D01*
X104743525Y-55871219D01*
X104748377Y-55903929D01*
X104750000Y-55936956D01*
X104750000Y-57063044D01*
X104748377Y-57096071D01*
X104743525Y-57128781D01*
X104735491Y-57160857D01*
X104724351Y-57191991D01*
X104710213Y-57221884D01*
X104693213Y-57250247D01*
X104673515Y-57276807D01*
X104651308Y-57301308D01*
X104626807Y-57323515D01*
X104600247Y-57343213D01*
X104571884Y-57360213D01*
X104541991Y-57374351D01*
X104510857Y-57385491D01*
X104478781Y-57393525D01*
X104446071Y-57398377D01*
X104413044Y-57400000D01*
X103536956Y-57400000D01*
X103503929Y-57398377D01*
X103471219Y-57393525D01*
X103439143Y-57385491D01*
X103408009Y-57374351D01*
X103378116Y-57360213D01*
X103349753Y-57343213D01*
X103323193Y-57323515D01*
X103298692Y-57301308D01*
X103276485Y-57276807D01*
X103256787Y-57250247D01*
X103239787Y-57221884D01*
X103225649Y-57191991D01*
X103214509Y-57160857D01*
X103206475Y-57128781D01*
X103201623Y-57096071D01*
X103200000Y-57063044D01*
X103200000Y-55936956D01*
X103201623Y-55903929D01*
X103206475Y-55871219D01*
X103214509Y-55839143D01*
X103225649Y-55808009D01*
X103239787Y-55778116D01*
X103256787Y-55749753D01*
X103276485Y-55723193D01*
X103298692Y-55698692D01*
X103323193Y-55676485D01*
X103349753Y-55656787D01*
X103378116Y-55639787D01*
X103408009Y-55625649D01*
X103439143Y-55614509D01*
X103471219Y-55606475D01*
X103503929Y-55601623D01*
X103536956Y-55600000D01*
X104413044Y-55600000D01*
X104446071Y-55601623D01*
X104446071Y-55601623D01*
G37*
D12*
X103975000Y-56500000D03*
G04 #@! TD*
D13*
G04 #@! TO.C,C1*
X106100000Y-83350000D03*
X109700000Y-83350000D03*
G04 #@! TD*
G04 #@! TO.C,C4*
X111200000Y-56000000D03*
X114800000Y-56000000D03*
G04 #@! TD*
G04 #@! TO.C,C5*
X119200000Y-56000000D03*
X122800000Y-56000000D03*
G04 #@! TD*
G04 #@! TO.C,C13*
X74200000Y-80500000D03*
X77800000Y-80500000D03*
G04 #@! TD*
D14*
G04 #@! TO.C,C7*
X119000000Y-70250000D03*
X119000000Y-76750000D03*
G04 #@! TD*
D11*
G04 #@! TO.C,C12*
G36*
X101346071Y-85701623D02*
X101378781Y-85706475D01*
X101410857Y-85714509D01*
X101441991Y-85725649D01*
X101471884Y-85739787D01*
X101500247Y-85756787D01*
X101526807Y-85776485D01*
X101551308Y-85798692D01*
X101573515Y-85823193D01*
X101593213Y-85849753D01*
X101610213Y-85878116D01*
X101624351Y-85908009D01*
X101635491Y-85939143D01*
X101643525Y-85971219D01*
X101648377Y-86003929D01*
X101650000Y-86036956D01*
X101650000Y-87163044D01*
X101648377Y-87196071D01*
X101643525Y-87228781D01*
X101635491Y-87260857D01*
X101624351Y-87291991D01*
X101610213Y-87321884D01*
X101593213Y-87350247D01*
X101573515Y-87376807D01*
X101551308Y-87401308D01*
X101526807Y-87423515D01*
X101500247Y-87443213D01*
X101471884Y-87460213D01*
X101441991Y-87474351D01*
X101410857Y-87485491D01*
X101378781Y-87493525D01*
X101346071Y-87498377D01*
X101313044Y-87500000D01*
X100436956Y-87500000D01*
X100403929Y-87498377D01*
X100371219Y-87493525D01*
X100339143Y-87485491D01*
X100308009Y-87474351D01*
X100278116Y-87460213D01*
X100249753Y-87443213D01*
X100223193Y-87423515D01*
X100198692Y-87401308D01*
X100176485Y-87376807D01*
X100156787Y-87350247D01*
X100139787Y-87321884D01*
X100125649Y-87291991D01*
X100114509Y-87260857D01*
X100106475Y-87228781D01*
X100101623Y-87196071D01*
X100100000Y-87163044D01*
X100100000Y-86036956D01*
X100101623Y-86003929D01*
X100106475Y-85971219D01*
X100114509Y-85939143D01*
X100125649Y-85908009D01*
X100139787Y-85878116D01*
X100156787Y-85849753D01*
X100176485Y-85823193D01*
X100198692Y-85798692D01*
X100223193Y-85776485D01*
X100249753Y-85756787D01*
X100278116Y-85739787D01*
X100308009Y-85725649D01*
X100339143Y-85714509D01*
X100371219Y-85706475D01*
X100403929Y-85701623D01*
X100436956Y-85700000D01*
X101313044Y-85700000D01*
X101346071Y-85701623D01*
X101346071Y-85701623D01*
G37*
D12*
X100875000Y-86600000D03*
D11*
G36*
X103396071Y-85701623D02*
X103428781Y-85706475D01*
X103460857Y-85714509D01*
X103491991Y-85725649D01*
X103521884Y-85739787D01*
X103550247Y-85756787D01*
X103576807Y-85776485D01*
X103601308Y-85798692D01*
X103623515Y-85823193D01*
X103643213Y-85849753D01*
X103660213Y-85878116D01*
X103674351Y-85908009D01*
X103685491Y-85939143D01*
X103693525Y-85971219D01*
X103698377Y-86003929D01*
X103700000Y-86036956D01*
X103700000Y-87163044D01*
X103698377Y-87196071D01*
X103693525Y-87228781D01*
X103685491Y-87260857D01*
X103674351Y-87291991D01*
X103660213Y-87321884D01*
X103643213Y-87350247D01*
X103623515Y-87376807D01*
X103601308Y-87401308D01*
X103576807Y-87423515D01*
X103550247Y-87443213D01*
X103521884Y-87460213D01*
X103491991Y-87474351D01*
X103460857Y-87485491D01*
X103428781Y-87493525D01*
X103396071Y-87498377D01*
X103363044Y-87500000D01*
X102486956Y-87500000D01*
X102453929Y-87498377D01*
X102421219Y-87493525D01*
X102389143Y-87485491D01*
X102358009Y-87474351D01*
X102328116Y-87460213D01*
X102299753Y-87443213D01*
X102273193Y-87423515D01*
X102248692Y-87401308D01*
X102226485Y-87376807D01*
X102206787Y-87350247D01*
X102189787Y-87321884D01*
X102175649Y-87291991D01*
X102164509Y-87260857D01*
X102156475Y-87228781D01*
X102151623Y-87196071D01*
X102150000Y-87163044D01*
X102150000Y-86036956D01*
X102151623Y-86003929D01*
X102156475Y-85971219D01*
X102164509Y-85939143D01*
X102175649Y-85908009D01*
X102189787Y-85878116D01*
X102206787Y-85849753D01*
X102226485Y-85823193D01*
X102248692Y-85798692D01*
X102273193Y-85776485D01*
X102299753Y-85756787D01*
X102328116Y-85739787D01*
X102358009Y-85725649D01*
X102389143Y-85714509D01*
X102421219Y-85706475D01*
X102453929Y-85701623D01*
X102486956Y-85700000D01*
X103363044Y-85700000D01*
X103396071Y-85701623D01*
X103396071Y-85701623D01*
G37*
D12*
X102925000Y-86600000D03*
G04 #@! TD*
D11*
G04 #@! TO.C,C11*
G36*
X90996071Y-85101623D02*
X91028781Y-85106475D01*
X91060857Y-85114509D01*
X91091991Y-85125649D01*
X91121884Y-85139787D01*
X91150247Y-85156787D01*
X91176807Y-85176485D01*
X91201308Y-85198692D01*
X91223515Y-85223193D01*
X91243213Y-85249753D01*
X91260213Y-85278116D01*
X91274351Y-85308009D01*
X91285491Y-85339143D01*
X91293525Y-85371219D01*
X91298377Y-85403929D01*
X91300000Y-85436956D01*
X91300000Y-86563044D01*
X91298377Y-86596071D01*
X91293525Y-86628781D01*
X91285491Y-86660857D01*
X91274351Y-86691991D01*
X91260213Y-86721884D01*
X91243213Y-86750247D01*
X91223515Y-86776807D01*
X91201308Y-86801308D01*
X91176807Y-86823515D01*
X91150247Y-86843213D01*
X91121884Y-86860213D01*
X91091991Y-86874351D01*
X91060857Y-86885491D01*
X91028781Y-86893525D01*
X90996071Y-86898377D01*
X90963044Y-86900000D01*
X90086956Y-86900000D01*
X90053929Y-86898377D01*
X90021219Y-86893525D01*
X89989143Y-86885491D01*
X89958009Y-86874351D01*
X89928116Y-86860213D01*
X89899753Y-86843213D01*
X89873193Y-86823515D01*
X89848692Y-86801308D01*
X89826485Y-86776807D01*
X89806787Y-86750247D01*
X89789787Y-86721884D01*
X89775649Y-86691991D01*
X89764509Y-86660857D01*
X89756475Y-86628781D01*
X89751623Y-86596071D01*
X89750000Y-86563044D01*
X89750000Y-85436956D01*
X89751623Y-85403929D01*
X89756475Y-85371219D01*
X89764509Y-85339143D01*
X89775649Y-85308009D01*
X89789787Y-85278116D01*
X89806787Y-85249753D01*
X89826485Y-85223193D01*
X89848692Y-85198692D01*
X89873193Y-85176485D01*
X89899753Y-85156787D01*
X89928116Y-85139787D01*
X89958009Y-85125649D01*
X89989143Y-85114509D01*
X90021219Y-85106475D01*
X90053929Y-85101623D01*
X90086956Y-85100000D01*
X90963044Y-85100000D01*
X90996071Y-85101623D01*
X90996071Y-85101623D01*
G37*
D12*
X90525000Y-86000000D03*
D11*
G36*
X88946071Y-85101623D02*
X88978781Y-85106475D01*
X89010857Y-85114509D01*
X89041991Y-85125649D01*
X89071884Y-85139787D01*
X89100247Y-85156787D01*
X89126807Y-85176485D01*
X89151308Y-85198692D01*
X89173515Y-85223193D01*
X89193213Y-85249753D01*
X89210213Y-85278116D01*
X89224351Y-85308009D01*
X89235491Y-85339143D01*
X89243525Y-85371219D01*
X89248377Y-85403929D01*
X89250000Y-85436956D01*
X89250000Y-86563044D01*
X89248377Y-86596071D01*
X89243525Y-86628781D01*
X89235491Y-86660857D01*
X89224351Y-86691991D01*
X89210213Y-86721884D01*
X89193213Y-86750247D01*
X89173515Y-86776807D01*
X89151308Y-86801308D01*
X89126807Y-86823515D01*
X89100247Y-86843213D01*
X89071884Y-86860213D01*
X89041991Y-86874351D01*
X89010857Y-86885491D01*
X88978781Y-86893525D01*
X88946071Y-86898377D01*
X88913044Y-86900000D01*
X88036956Y-86900000D01*
X88003929Y-86898377D01*
X87971219Y-86893525D01*
X87939143Y-86885491D01*
X87908009Y-86874351D01*
X87878116Y-86860213D01*
X87849753Y-86843213D01*
X87823193Y-86823515D01*
X87798692Y-86801308D01*
X87776485Y-86776807D01*
X87756787Y-86750247D01*
X87739787Y-86721884D01*
X87725649Y-86691991D01*
X87714509Y-86660857D01*
X87706475Y-86628781D01*
X87701623Y-86596071D01*
X87700000Y-86563044D01*
X87700000Y-85436956D01*
X87701623Y-85403929D01*
X87706475Y-85371219D01*
X87714509Y-85339143D01*
X87725649Y-85308009D01*
X87739787Y-85278116D01*
X87756787Y-85249753D01*
X87776485Y-85223193D01*
X87798692Y-85198692D01*
X87823193Y-85176485D01*
X87849753Y-85156787D01*
X87878116Y-85139787D01*
X87908009Y-85125649D01*
X87939143Y-85114509D01*
X87971219Y-85106475D01*
X88003929Y-85101623D01*
X88036956Y-85100000D01*
X88913044Y-85100000D01*
X88946071Y-85101623D01*
X88946071Y-85101623D01*
G37*
D12*
X88475000Y-86000000D03*
G04 #@! TD*
D11*
G04 #@! TO.C,C10*
G36*
X94496071Y-84601623D02*
X94528781Y-84606475D01*
X94560857Y-84614509D01*
X94591991Y-84625649D01*
X94621884Y-84639787D01*
X94650247Y-84656787D01*
X94676807Y-84676485D01*
X94701308Y-84698692D01*
X94723515Y-84723193D01*
X94743213Y-84749753D01*
X94760213Y-84778116D01*
X94774351Y-84808009D01*
X94785491Y-84839143D01*
X94793525Y-84871219D01*
X94798377Y-84903929D01*
X94800000Y-84936956D01*
X94800000Y-85813044D01*
X94798377Y-85846071D01*
X94793525Y-85878781D01*
X94785491Y-85910857D01*
X94774351Y-85941991D01*
X94760213Y-85971884D01*
X94743213Y-86000247D01*
X94723515Y-86026807D01*
X94701308Y-86051308D01*
X94676807Y-86073515D01*
X94650247Y-86093213D01*
X94621884Y-86110213D01*
X94591991Y-86124351D01*
X94560857Y-86135491D01*
X94528781Y-86143525D01*
X94496071Y-86148377D01*
X94463044Y-86150000D01*
X93336956Y-86150000D01*
X93303929Y-86148377D01*
X93271219Y-86143525D01*
X93239143Y-86135491D01*
X93208009Y-86124351D01*
X93178116Y-86110213D01*
X93149753Y-86093213D01*
X93123193Y-86073515D01*
X93098692Y-86051308D01*
X93076485Y-86026807D01*
X93056787Y-86000247D01*
X93039787Y-85971884D01*
X93025649Y-85941991D01*
X93014509Y-85910857D01*
X93006475Y-85878781D01*
X93001623Y-85846071D01*
X93000000Y-85813044D01*
X93000000Y-84936956D01*
X93001623Y-84903929D01*
X93006475Y-84871219D01*
X93014509Y-84839143D01*
X93025649Y-84808009D01*
X93039787Y-84778116D01*
X93056787Y-84749753D01*
X93076485Y-84723193D01*
X93098692Y-84698692D01*
X93123193Y-84676485D01*
X93149753Y-84656787D01*
X93178116Y-84639787D01*
X93208009Y-84625649D01*
X93239143Y-84614509D01*
X93271219Y-84606475D01*
X93303929Y-84601623D01*
X93336956Y-84600000D01*
X94463044Y-84600000D01*
X94496071Y-84601623D01*
X94496071Y-84601623D01*
G37*
D12*
X93900000Y-85375000D03*
D11*
G36*
X94496071Y-86651623D02*
X94528781Y-86656475D01*
X94560857Y-86664509D01*
X94591991Y-86675649D01*
X94621884Y-86689787D01*
X94650247Y-86706787D01*
X94676807Y-86726485D01*
X94701308Y-86748692D01*
X94723515Y-86773193D01*
X94743213Y-86799753D01*
X94760213Y-86828116D01*
X94774351Y-86858009D01*
X94785491Y-86889143D01*
X94793525Y-86921219D01*
X94798377Y-86953929D01*
X94800000Y-86986956D01*
X94800000Y-87863044D01*
X94798377Y-87896071D01*
X94793525Y-87928781D01*
X94785491Y-87960857D01*
X94774351Y-87991991D01*
X94760213Y-88021884D01*
X94743213Y-88050247D01*
X94723515Y-88076807D01*
X94701308Y-88101308D01*
X94676807Y-88123515D01*
X94650247Y-88143213D01*
X94621884Y-88160213D01*
X94591991Y-88174351D01*
X94560857Y-88185491D01*
X94528781Y-88193525D01*
X94496071Y-88198377D01*
X94463044Y-88200000D01*
X93336956Y-88200000D01*
X93303929Y-88198377D01*
X93271219Y-88193525D01*
X93239143Y-88185491D01*
X93208009Y-88174351D01*
X93178116Y-88160213D01*
X93149753Y-88143213D01*
X93123193Y-88123515D01*
X93098692Y-88101308D01*
X93076485Y-88076807D01*
X93056787Y-88050247D01*
X93039787Y-88021884D01*
X93025649Y-87991991D01*
X93014509Y-87960857D01*
X93006475Y-87928781D01*
X93001623Y-87896071D01*
X93000000Y-87863044D01*
X93000000Y-86986956D01*
X93001623Y-86953929D01*
X93006475Y-86921219D01*
X93014509Y-86889143D01*
X93025649Y-86858009D01*
X93039787Y-86828116D01*
X93056787Y-86799753D01*
X93076485Y-86773193D01*
X93098692Y-86748692D01*
X93123193Y-86726485D01*
X93149753Y-86706787D01*
X93178116Y-86689787D01*
X93208009Y-86675649D01*
X93239143Y-86664509D01*
X93271219Y-86656475D01*
X93303929Y-86651623D01*
X93336956Y-86650000D01*
X94463044Y-86650000D01*
X94496071Y-86651623D01*
X94496071Y-86651623D01*
G37*
D12*
X93900000Y-87425000D03*
G04 #@! TD*
D11*
G04 #@! TO.C,C9*
G36*
X89596071Y-81751623D02*
X89628781Y-81756475D01*
X89660857Y-81764509D01*
X89691991Y-81775649D01*
X89721884Y-81789787D01*
X89750247Y-81806787D01*
X89776807Y-81826485D01*
X89801308Y-81848692D01*
X89823515Y-81873193D01*
X89843213Y-81899753D01*
X89860213Y-81928116D01*
X89874351Y-81958009D01*
X89885491Y-81989143D01*
X89893525Y-82021219D01*
X89898377Y-82053929D01*
X89900000Y-82086956D01*
X89900000Y-82963044D01*
X89898377Y-82996071D01*
X89893525Y-83028781D01*
X89885491Y-83060857D01*
X89874351Y-83091991D01*
X89860213Y-83121884D01*
X89843213Y-83150247D01*
X89823515Y-83176807D01*
X89801308Y-83201308D01*
X89776807Y-83223515D01*
X89750247Y-83243213D01*
X89721884Y-83260213D01*
X89691991Y-83274351D01*
X89660857Y-83285491D01*
X89628781Y-83293525D01*
X89596071Y-83298377D01*
X89563044Y-83300000D01*
X88436956Y-83300000D01*
X88403929Y-83298377D01*
X88371219Y-83293525D01*
X88339143Y-83285491D01*
X88308009Y-83274351D01*
X88278116Y-83260213D01*
X88249753Y-83243213D01*
X88223193Y-83223515D01*
X88198692Y-83201308D01*
X88176485Y-83176807D01*
X88156787Y-83150247D01*
X88139787Y-83121884D01*
X88125649Y-83091991D01*
X88114509Y-83060857D01*
X88106475Y-83028781D01*
X88101623Y-82996071D01*
X88100000Y-82963044D01*
X88100000Y-82086956D01*
X88101623Y-82053929D01*
X88106475Y-82021219D01*
X88114509Y-81989143D01*
X88125649Y-81958009D01*
X88139787Y-81928116D01*
X88156787Y-81899753D01*
X88176485Y-81873193D01*
X88198692Y-81848692D01*
X88223193Y-81826485D01*
X88249753Y-81806787D01*
X88278116Y-81789787D01*
X88308009Y-81775649D01*
X88339143Y-81764509D01*
X88371219Y-81756475D01*
X88403929Y-81751623D01*
X88436956Y-81750000D01*
X89563044Y-81750000D01*
X89596071Y-81751623D01*
X89596071Y-81751623D01*
G37*
D12*
X89000000Y-82525000D03*
D11*
G36*
X89596071Y-79701623D02*
X89628781Y-79706475D01*
X89660857Y-79714509D01*
X89691991Y-79725649D01*
X89721884Y-79739787D01*
X89750247Y-79756787D01*
X89776807Y-79776485D01*
X89801308Y-79798692D01*
X89823515Y-79823193D01*
X89843213Y-79849753D01*
X89860213Y-79878116D01*
X89874351Y-79908009D01*
X89885491Y-79939143D01*
X89893525Y-79971219D01*
X89898377Y-80003929D01*
X89900000Y-80036956D01*
X89900000Y-80913044D01*
X89898377Y-80946071D01*
X89893525Y-80978781D01*
X89885491Y-81010857D01*
X89874351Y-81041991D01*
X89860213Y-81071884D01*
X89843213Y-81100247D01*
X89823515Y-81126807D01*
X89801308Y-81151308D01*
X89776807Y-81173515D01*
X89750247Y-81193213D01*
X89721884Y-81210213D01*
X89691991Y-81224351D01*
X89660857Y-81235491D01*
X89628781Y-81243525D01*
X89596071Y-81248377D01*
X89563044Y-81250000D01*
X88436956Y-81250000D01*
X88403929Y-81248377D01*
X88371219Y-81243525D01*
X88339143Y-81235491D01*
X88308009Y-81224351D01*
X88278116Y-81210213D01*
X88249753Y-81193213D01*
X88223193Y-81173515D01*
X88198692Y-81151308D01*
X88176485Y-81126807D01*
X88156787Y-81100247D01*
X88139787Y-81071884D01*
X88125649Y-81041991D01*
X88114509Y-81010857D01*
X88106475Y-80978781D01*
X88101623Y-80946071D01*
X88100000Y-80913044D01*
X88100000Y-80036956D01*
X88101623Y-80003929D01*
X88106475Y-79971219D01*
X88114509Y-79939143D01*
X88125649Y-79908009D01*
X88139787Y-79878116D01*
X88156787Y-79849753D01*
X88176485Y-79823193D01*
X88198692Y-79798692D01*
X88223193Y-79776485D01*
X88249753Y-79756787D01*
X88278116Y-79739787D01*
X88308009Y-79725649D01*
X88339143Y-79714509D01*
X88371219Y-79706475D01*
X88403929Y-79701623D01*
X88436956Y-79700000D01*
X89563044Y-79700000D01*
X89596071Y-79701623D01*
X89596071Y-79701623D01*
G37*
D12*
X89000000Y-80475000D03*
G04 #@! TD*
D11*
G04 #@! TO.C,C6*
G36*
X126096071Y-68201623D02*
X126128781Y-68206475D01*
X126160857Y-68214509D01*
X126191991Y-68225649D01*
X126221884Y-68239787D01*
X126250247Y-68256787D01*
X126276807Y-68276485D01*
X126301308Y-68298692D01*
X126323515Y-68323193D01*
X126343213Y-68349753D01*
X126360213Y-68378116D01*
X126374351Y-68408009D01*
X126385491Y-68439143D01*
X126393525Y-68471219D01*
X126398377Y-68503929D01*
X126400000Y-68536956D01*
X126400000Y-69413044D01*
X126398377Y-69446071D01*
X126393525Y-69478781D01*
X126385491Y-69510857D01*
X126374351Y-69541991D01*
X126360213Y-69571884D01*
X126343213Y-69600247D01*
X126323515Y-69626807D01*
X126301308Y-69651308D01*
X126276807Y-69673515D01*
X126250247Y-69693213D01*
X126221884Y-69710213D01*
X126191991Y-69724351D01*
X126160857Y-69735491D01*
X126128781Y-69743525D01*
X126096071Y-69748377D01*
X126063044Y-69750000D01*
X124936956Y-69750000D01*
X124903929Y-69748377D01*
X124871219Y-69743525D01*
X124839143Y-69735491D01*
X124808009Y-69724351D01*
X124778116Y-69710213D01*
X124749753Y-69693213D01*
X124723193Y-69673515D01*
X124698692Y-69651308D01*
X124676485Y-69626807D01*
X124656787Y-69600247D01*
X124639787Y-69571884D01*
X124625649Y-69541991D01*
X124614509Y-69510857D01*
X124606475Y-69478781D01*
X124601623Y-69446071D01*
X124600000Y-69413044D01*
X124600000Y-68536956D01*
X124601623Y-68503929D01*
X124606475Y-68471219D01*
X124614509Y-68439143D01*
X124625649Y-68408009D01*
X124639787Y-68378116D01*
X124656787Y-68349753D01*
X124676485Y-68323193D01*
X124698692Y-68298692D01*
X124723193Y-68276485D01*
X124749753Y-68256787D01*
X124778116Y-68239787D01*
X124808009Y-68225649D01*
X124839143Y-68214509D01*
X124871219Y-68206475D01*
X124903929Y-68201623D01*
X124936956Y-68200000D01*
X126063044Y-68200000D01*
X126096071Y-68201623D01*
X126096071Y-68201623D01*
G37*
D12*
X125500000Y-68975000D03*
D11*
G36*
X126096071Y-70251623D02*
X126128781Y-70256475D01*
X126160857Y-70264509D01*
X126191991Y-70275649D01*
X126221884Y-70289787D01*
X126250247Y-70306787D01*
X126276807Y-70326485D01*
X126301308Y-70348692D01*
X126323515Y-70373193D01*
X126343213Y-70399753D01*
X126360213Y-70428116D01*
X126374351Y-70458009D01*
X126385491Y-70489143D01*
X126393525Y-70521219D01*
X126398377Y-70553929D01*
X126400000Y-70586956D01*
X126400000Y-71463044D01*
X126398377Y-71496071D01*
X126393525Y-71528781D01*
X126385491Y-71560857D01*
X126374351Y-71591991D01*
X126360213Y-71621884D01*
X126343213Y-71650247D01*
X126323515Y-71676807D01*
X126301308Y-71701308D01*
X126276807Y-71723515D01*
X126250247Y-71743213D01*
X126221884Y-71760213D01*
X126191991Y-71774351D01*
X126160857Y-71785491D01*
X126128781Y-71793525D01*
X126096071Y-71798377D01*
X126063044Y-71800000D01*
X124936956Y-71800000D01*
X124903929Y-71798377D01*
X124871219Y-71793525D01*
X124839143Y-71785491D01*
X124808009Y-71774351D01*
X124778116Y-71760213D01*
X124749753Y-71743213D01*
X124723193Y-71723515D01*
X124698692Y-71701308D01*
X124676485Y-71676807D01*
X124656787Y-71650247D01*
X124639787Y-71621884D01*
X124625649Y-71591991D01*
X124614509Y-71560857D01*
X124606475Y-71528781D01*
X124601623Y-71496071D01*
X124600000Y-71463044D01*
X124600000Y-70586956D01*
X124601623Y-70553929D01*
X124606475Y-70521219D01*
X124614509Y-70489143D01*
X124625649Y-70458009D01*
X124639787Y-70428116D01*
X124656787Y-70399753D01*
X124676485Y-70373193D01*
X124698692Y-70348692D01*
X124723193Y-70326485D01*
X124749753Y-70306787D01*
X124778116Y-70289787D01*
X124808009Y-70275649D01*
X124839143Y-70264509D01*
X124871219Y-70256475D01*
X124903929Y-70251623D01*
X124936956Y-70250000D01*
X126063044Y-70250000D01*
X126096071Y-70251623D01*
X126096071Y-70251623D01*
G37*
D12*
X125500000Y-71025000D03*
G04 #@! TD*
D11*
G04 #@! TO.C,C3*
G36*
X97096071Y-62751623D02*
X97128781Y-62756475D01*
X97160857Y-62764509D01*
X97191991Y-62775649D01*
X97221884Y-62789787D01*
X97250247Y-62806787D01*
X97276807Y-62826485D01*
X97301308Y-62848692D01*
X97323515Y-62873193D01*
X97343213Y-62899753D01*
X97360213Y-62928116D01*
X97374351Y-62958009D01*
X97385491Y-62989143D01*
X97393525Y-63021219D01*
X97398377Y-63053929D01*
X97400000Y-63086956D01*
X97400000Y-63963044D01*
X97398377Y-63996071D01*
X97393525Y-64028781D01*
X97385491Y-64060857D01*
X97374351Y-64091991D01*
X97360213Y-64121884D01*
X97343213Y-64150247D01*
X97323515Y-64176807D01*
X97301308Y-64201308D01*
X97276807Y-64223515D01*
X97250247Y-64243213D01*
X97221884Y-64260213D01*
X97191991Y-64274351D01*
X97160857Y-64285491D01*
X97128781Y-64293525D01*
X97096071Y-64298377D01*
X97063044Y-64300000D01*
X95936956Y-64300000D01*
X95903929Y-64298377D01*
X95871219Y-64293525D01*
X95839143Y-64285491D01*
X95808009Y-64274351D01*
X95778116Y-64260213D01*
X95749753Y-64243213D01*
X95723193Y-64223515D01*
X95698692Y-64201308D01*
X95676485Y-64176807D01*
X95656787Y-64150247D01*
X95639787Y-64121884D01*
X95625649Y-64091991D01*
X95614509Y-64060857D01*
X95606475Y-64028781D01*
X95601623Y-63996071D01*
X95600000Y-63963044D01*
X95600000Y-63086956D01*
X95601623Y-63053929D01*
X95606475Y-63021219D01*
X95614509Y-62989143D01*
X95625649Y-62958009D01*
X95639787Y-62928116D01*
X95656787Y-62899753D01*
X95676485Y-62873193D01*
X95698692Y-62848692D01*
X95723193Y-62826485D01*
X95749753Y-62806787D01*
X95778116Y-62789787D01*
X95808009Y-62775649D01*
X95839143Y-62764509D01*
X95871219Y-62756475D01*
X95903929Y-62751623D01*
X95936956Y-62750000D01*
X97063044Y-62750000D01*
X97096071Y-62751623D01*
X97096071Y-62751623D01*
G37*
D12*
X96500000Y-63525000D03*
D11*
G36*
X97096071Y-60701623D02*
X97128781Y-60706475D01*
X97160857Y-60714509D01*
X97191991Y-60725649D01*
X97221884Y-60739787D01*
X97250247Y-60756787D01*
X97276807Y-60776485D01*
X97301308Y-60798692D01*
X97323515Y-60823193D01*
X97343213Y-60849753D01*
X97360213Y-60878116D01*
X97374351Y-60908009D01*
X97385491Y-60939143D01*
X97393525Y-60971219D01*
X97398377Y-61003929D01*
X97400000Y-61036956D01*
X97400000Y-61913044D01*
X97398377Y-61946071D01*
X97393525Y-61978781D01*
X97385491Y-62010857D01*
X97374351Y-62041991D01*
X97360213Y-62071884D01*
X97343213Y-62100247D01*
X97323515Y-62126807D01*
X97301308Y-62151308D01*
X97276807Y-62173515D01*
X97250247Y-62193213D01*
X97221884Y-62210213D01*
X97191991Y-62224351D01*
X97160857Y-62235491D01*
X97128781Y-62243525D01*
X97096071Y-62248377D01*
X97063044Y-62250000D01*
X95936956Y-62250000D01*
X95903929Y-62248377D01*
X95871219Y-62243525D01*
X95839143Y-62235491D01*
X95808009Y-62224351D01*
X95778116Y-62210213D01*
X95749753Y-62193213D01*
X95723193Y-62173515D01*
X95698692Y-62151308D01*
X95676485Y-62126807D01*
X95656787Y-62100247D01*
X95639787Y-62071884D01*
X95625649Y-62041991D01*
X95614509Y-62010857D01*
X95606475Y-61978781D01*
X95601623Y-61946071D01*
X95600000Y-61913044D01*
X95600000Y-61036956D01*
X95601623Y-61003929D01*
X95606475Y-60971219D01*
X95614509Y-60939143D01*
X95625649Y-60908009D01*
X95639787Y-60878116D01*
X95656787Y-60849753D01*
X95676485Y-60823193D01*
X95698692Y-60798692D01*
X95723193Y-60776485D01*
X95749753Y-60756787D01*
X95778116Y-60739787D01*
X95808009Y-60725649D01*
X95839143Y-60714509D01*
X95871219Y-60706475D01*
X95903929Y-60701623D01*
X95936956Y-60700000D01*
X97063044Y-60700000D01*
X97096071Y-60701623D01*
X97096071Y-60701623D01*
G37*
D12*
X96500000Y-61475000D03*
G04 #@! TD*
D11*
G04 #@! TO.C,C2*
G36*
X95146071Y-81501623D02*
X95178781Y-81506475D01*
X95210857Y-81514509D01*
X95241991Y-81525649D01*
X95271884Y-81539787D01*
X95300247Y-81556787D01*
X95326807Y-81576485D01*
X95351308Y-81598692D01*
X95373515Y-81623193D01*
X95393213Y-81649753D01*
X95410213Y-81678116D01*
X95424351Y-81708009D01*
X95435491Y-81739143D01*
X95443525Y-81771219D01*
X95448377Y-81803929D01*
X95450000Y-81836956D01*
X95450000Y-82963044D01*
X95448377Y-82996071D01*
X95443525Y-83028781D01*
X95435491Y-83060857D01*
X95424351Y-83091991D01*
X95410213Y-83121884D01*
X95393213Y-83150247D01*
X95373515Y-83176807D01*
X95351308Y-83201308D01*
X95326807Y-83223515D01*
X95300247Y-83243213D01*
X95271884Y-83260213D01*
X95241991Y-83274351D01*
X95210857Y-83285491D01*
X95178781Y-83293525D01*
X95146071Y-83298377D01*
X95113044Y-83300000D01*
X94236956Y-83300000D01*
X94203929Y-83298377D01*
X94171219Y-83293525D01*
X94139143Y-83285491D01*
X94108009Y-83274351D01*
X94078116Y-83260213D01*
X94049753Y-83243213D01*
X94023193Y-83223515D01*
X93998692Y-83201308D01*
X93976485Y-83176807D01*
X93956787Y-83150247D01*
X93939787Y-83121884D01*
X93925649Y-83091991D01*
X93914509Y-83060857D01*
X93906475Y-83028781D01*
X93901623Y-82996071D01*
X93900000Y-82963044D01*
X93900000Y-81836956D01*
X93901623Y-81803929D01*
X93906475Y-81771219D01*
X93914509Y-81739143D01*
X93925649Y-81708009D01*
X93939787Y-81678116D01*
X93956787Y-81649753D01*
X93976485Y-81623193D01*
X93998692Y-81598692D01*
X94023193Y-81576485D01*
X94049753Y-81556787D01*
X94078116Y-81539787D01*
X94108009Y-81525649D01*
X94139143Y-81514509D01*
X94171219Y-81506475D01*
X94203929Y-81501623D01*
X94236956Y-81500000D01*
X95113044Y-81500000D01*
X95146071Y-81501623D01*
X95146071Y-81501623D01*
G37*
D12*
X94675000Y-82400000D03*
D11*
G36*
X93096071Y-81501623D02*
X93128781Y-81506475D01*
X93160857Y-81514509D01*
X93191991Y-81525649D01*
X93221884Y-81539787D01*
X93250247Y-81556787D01*
X93276807Y-81576485D01*
X93301308Y-81598692D01*
X93323515Y-81623193D01*
X93343213Y-81649753D01*
X93360213Y-81678116D01*
X93374351Y-81708009D01*
X93385491Y-81739143D01*
X93393525Y-81771219D01*
X93398377Y-81803929D01*
X93400000Y-81836956D01*
X93400000Y-82963044D01*
X93398377Y-82996071D01*
X93393525Y-83028781D01*
X93385491Y-83060857D01*
X93374351Y-83091991D01*
X93360213Y-83121884D01*
X93343213Y-83150247D01*
X93323515Y-83176807D01*
X93301308Y-83201308D01*
X93276807Y-83223515D01*
X93250247Y-83243213D01*
X93221884Y-83260213D01*
X93191991Y-83274351D01*
X93160857Y-83285491D01*
X93128781Y-83293525D01*
X93096071Y-83298377D01*
X93063044Y-83300000D01*
X92186956Y-83300000D01*
X92153929Y-83298377D01*
X92121219Y-83293525D01*
X92089143Y-83285491D01*
X92058009Y-83274351D01*
X92028116Y-83260213D01*
X91999753Y-83243213D01*
X91973193Y-83223515D01*
X91948692Y-83201308D01*
X91926485Y-83176807D01*
X91906787Y-83150247D01*
X91889787Y-83121884D01*
X91875649Y-83091991D01*
X91864509Y-83060857D01*
X91856475Y-83028781D01*
X91851623Y-82996071D01*
X91850000Y-82963044D01*
X91850000Y-81836956D01*
X91851623Y-81803929D01*
X91856475Y-81771219D01*
X91864509Y-81739143D01*
X91875649Y-81708009D01*
X91889787Y-81678116D01*
X91906787Y-81649753D01*
X91926485Y-81623193D01*
X91948692Y-81598692D01*
X91973193Y-81576485D01*
X91999753Y-81556787D01*
X92028116Y-81539787D01*
X92058009Y-81525649D01*
X92089143Y-81514509D01*
X92121219Y-81506475D01*
X92153929Y-81501623D01*
X92186956Y-81500000D01*
X93063044Y-81500000D01*
X93096071Y-81501623D01*
X93096071Y-81501623D01*
G37*
D12*
X92625000Y-82400000D03*
G04 #@! TD*
D11*
G04 #@! TO.C,C8*
G36*
X97396071Y-73001623D02*
X97428781Y-73006475D01*
X97460857Y-73014509D01*
X97491991Y-73025649D01*
X97521884Y-73039787D01*
X97550247Y-73056787D01*
X97576807Y-73076485D01*
X97601308Y-73098692D01*
X97623515Y-73123193D01*
X97643213Y-73149753D01*
X97660213Y-73178116D01*
X97674351Y-73208009D01*
X97685491Y-73239143D01*
X97693525Y-73271219D01*
X97698377Y-73303929D01*
X97700000Y-73336956D01*
X97700000Y-74213044D01*
X97698377Y-74246071D01*
X97693525Y-74278781D01*
X97685491Y-74310857D01*
X97674351Y-74341991D01*
X97660213Y-74371884D01*
X97643213Y-74400247D01*
X97623515Y-74426807D01*
X97601308Y-74451308D01*
X97576807Y-74473515D01*
X97550247Y-74493213D01*
X97521884Y-74510213D01*
X97491991Y-74524351D01*
X97460857Y-74535491D01*
X97428781Y-74543525D01*
X97396071Y-74548377D01*
X97363044Y-74550000D01*
X96236956Y-74550000D01*
X96203929Y-74548377D01*
X96171219Y-74543525D01*
X96139143Y-74535491D01*
X96108009Y-74524351D01*
X96078116Y-74510213D01*
X96049753Y-74493213D01*
X96023193Y-74473515D01*
X95998692Y-74451308D01*
X95976485Y-74426807D01*
X95956787Y-74400247D01*
X95939787Y-74371884D01*
X95925649Y-74341991D01*
X95914509Y-74310857D01*
X95906475Y-74278781D01*
X95901623Y-74246071D01*
X95900000Y-74213044D01*
X95900000Y-73336956D01*
X95901623Y-73303929D01*
X95906475Y-73271219D01*
X95914509Y-73239143D01*
X95925649Y-73208009D01*
X95939787Y-73178116D01*
X95956787Y-73149753D01*
X95976485Y-73123193D01*
X95998692Y-73098692D01*
X96023193Y-73076485D01*
X96049753Y-73056787D01*
X96078116Y-73039787D01*
X96108009Y-73025649D01*
X96139143Y-73014509D01*
X96171219Y-73006475D01*
X96203929Y-73001623D01*
X96236956Y-73000000D01*
X97363044Y-73000000D01*
X97396071Y-73001623D01*
X97396071Y-73001623D01*
G37*
D12*
X96800000Y-73775000D03*
D11*
G36*
X97396071Y-75051623D02*
X97428781Y-75056475D01*
X97460857Y-75064509D01*
X97491991Y-75075649D01*
X97521884Y-75089787D01*
X97550247Y-75106787D01*
X97576807Y-75126485D01*
X97601308Y-75148692D01*
X97623515Y-75173193D01*
X97643213Y-75199753D01*
X97660213Y-75228116D01*
X97674351Y-75258009D01*
X97685491Y-75289143D01*
X97693525Y-75321219D01*
X97698377Y-75353929D01*
X97700000Y-75386956D01*
X97700000Y-76263044D01*
X97698377Y-76296071D01*
X97693525Y-76328781D01*
X97685491Y-76360857D01*
X97674351Y-76391991D01*
X97660213Y-76421884D01*
X97643213Y-76450247D01*
X97623515Y-76476807D01*
X97601308Y-76501308D01*
X97576807Y-76523515D01*
X97550247Y-76543213D01*
X97521884Y-76560213D01*
X97491991Y-76574351D01*
X97460857Y-76585491D01*
X97428781Y-76593525D01*
X97396071Y-76598377D01*
X97363044Y-76600000D01*
X96236956Y-76600000D01*
X96203929Y-76598377D01*
X96171219Y-76593525D01*
X96139143Y-76585491D01*
X96108009Y-76574351D01*
X96078116Y-76560213D01*
X96049753Y-76543213D01*
X96023193Y-76523515D01*
X95998692Y-76501308D01*
X95976485Y-76476807D01*
X95956787Y-76450247D01*
X95939787Y-76421884D01*
X95925649Y-76391991D01*
X95914509Y-76360857D01*
X95906475Y-76328781D01*
X95901623Y-76296071D01*
X95900000Y-76263044D01*
X95900000Y-75386956D01*
X95901623Y-75353929D01*
X95906475Y-75321219D01*
X95914509Y-75289143D01*
X95925649Y-75258009D01*
X95939787Y-75228116D01*
X95956787Y-75199753D01*
X95976485Y-75173193D01*
X95998692Y-75148692D01*
X96023193Y-75126485D01*
X96049753Y-75106787D01*
X96078116Y-75089787D01*
X96108009Y-75075649D01*
X96139143Y-75064509D01*
X96171219Y-75056475D01*
X96203929Y-75051623D01*
X96236956Y-75050000D01*
X97363044Y-75050000D01*
X97396071Y-75051623D01*
X97396071Y-75051623D01*
G37*
D12*
X96800000Y-75825000D03*
G04 #@! TD*
D11*
G04 #@! TO.C,J2*
G36*
X134333315Y-56204093D02*
X134415827Y-56216333D01*
X134496742Y-56236601D01*
X134575281Y-56264702D01*
X134650687Y-56300367D01*
X134722235Y-56343251D01*
X134789234Y-56392941D01*
X134851041Y-56448959D01*
X134907059Y-56510766D01*
X134956749Y-56577765D01*
X134999633Y-56649313D01*
X135035298Y-56724719D01*
X135063399Y-56803258D01*
X135083667Y-56884173D01*
X135095907Y-56966685D01*
X135100000Y-57050000D01*
X135100000Y-58750000D01*
X135095907Y-58833315D01*
X135083667Y-58915827D01*
X135063399Y-58996742D01*
X135035298Y-59075281D01*
X134999633Y-59150687D01*
X134956749Y-59222235D01*
X134907059Y-59289234D01*
X134851041Y-59351041D01*
X134789234Y-59407059D01*
X134722235Y-59456749D01*
X134650687Y-59499633D01*
X134575281Y-59535298D01*
X134496742Y-59563399D01*
X134415827Y-59583667D01*
X134333315Y-59595907D01*
X134250000Y-59600000D01*
X130750000Y-59600000D01*
X130666685Y-59595907D01*
X130584173Y-59583667D01*
X130503258Y-59563399D01*
X130424719Y-59535298D01*
X130349313Y-59499633D01*
X130277765Y-59456749D01*
X130210766Y-59407059D01*
X130148959Y-59351041D01*
X130092941Y-59289234D01*
X130043251Y-59222235D01*
X130000367Y-59150687D01*
X129964702Y-59075281D01*
X129936601Y-58996742D01*
X129916333Y-58915827D01*
X129904093Y-58833315D01*
X129900000Y-58750000D01*
X129900000Y-57050000D01*
X129904093Y-56966685D01*
X129916333Y-56884173D01*
X129936601Y-56803258D01*
X129964702Y-56724719D01*
X130000367Y-56649313D01*
X130043251Y-56577765D01*
X130092941Y-56510766D01*
X130148959Y-56448959D01*
X130210766Y-56392941D01*
X130277765Y-56343251D01*
X130349313Y-56300367D01*
X130424719Y-56264702D01*
X130503258Y-56236601D01*
X130584173Y-56216333D01*
X130666685Y-56204093D01*
X130750000Y-56200000D01*
X134250000Y-56200000D01*
X134333315Y-56204093D01*
X134333315Y-56204093D01*
G37*
D15*
X132500000Y-57900000D03*
D16*
X132500000Y-64000000D03*
D11*
G36*
X128353315Y-57594093D02*
X128435827Y-57606333D01*
X128516742Y-57626601D01*
X128595281Y-57654702D01*
X128670687Y-57690367D01*
X128742235Y-57733251D01*
X128809234Y-57782941D01*
X128871041Y-57838959D01*
X128927059Y-57900766D01*
X128976749Y-57967765D01*
X129019633Y-58039313D01*
X129055298Y-58114719D01*
X129083399Y-58193258D01*
X129103667Y-58274173D01*
X129115907Y-58356685D01*
X129120000Y-58440000D01*
X129120000Y-61940000D01*
X129115907Y-62023315D01*
X129103667Y-62105827D01*
X129083399Y-62186742D01*
X129055298Y-62265281D01*
X129019633Y-62340687D01*
X128976749Y-62412235D01*
X128927059Y-62479234D01*
X128871041Y-62541041D01*
X128809234Y-62597059D01*
X128742235Y-62646749D01*
X128670687Y-62689633D01*
X128595281Y-62725298D01*
X128516742Y-62753399D01*
X128435827Y-62773667D01*
X128353315Y-62785907D01*
X128270000Y-62790000D01*
X126570000Y-62790000D01*
X126486685Y-62785907D01*
X126404173Y-62773667D01*
X126323258Y-62753399D01*
X126244719Y-62725298D01*
X126169313Y-62689633D01*
X126097765Y-62646749D01*
X126030766Y-62597059D01*
X125968959Y-62541041D01*
X125912941Y-62479234D01*
X125863251Y-62412235D01*
X125820367Y-62340687D01*
X125784702Y-62265281D01*
X125756601Y-62186742D01*
X125736333Y-62105827D01*
X125724093Y-62023315D01*
X125720000Y-61940000D01*
X125720000Y-58440000D01*
X125724093Y-58356685D01*
X125736333Y-58274173D01*
X125756601Y-58193258D01*
X125784702Y-58114719D01*
X125820367Y-58039313D01*
X125863251Y-57967765D01*
X125912941Y-57900766D01*
X125968959Y-57838959D01*
X126030766Y-57782941D01*
X126097765Y-57733251D01*
X126169313Y-57690367D01*
X126244719Y-57654702D01*
X126323258Y-57626601D01*
X126404173Y-57606333D01*
X126486685Y-57594093D01*
X126570000Y-57590000D01*
X128270000Y-57590000D01*
X128353315Y-57594093D01*
X128353315Y-57594093D01*
G37*
D15*
X127420000Y-60190000D03*
G04 #@! TD*
D17*
G04 #@! TO.C,BT1*
X126040000Y-84000000D03*
D18*
X123500000Y-84000000D03*
G04 #@! TD*
G04 #@! TO.C,SW1*
X130300000Y-72600000D03*
D17*
X130300000Y-70060000D03*
G04 #@! TD*
G04 #@! TO.C,MK1*
X135000000Y-84540000D03*
D18*
X135000000Y-82000000D03*
G04 #@! TD*
G04 #@! TO.C,LS1*
X134600000Y-70100000D03*
D17*
X134600000Y-72640000D03*
G04 #@! TD*
D19*
G04 #@! TO.C,JP1*
X90000000Y-55000000D03*
D11*
G36*
X90539018Y-54053843D02*
X90576537Y-54065224D01*
X90611114Y-54083706D01*
X90641421Y-54108579D01*
X90666294Y-54138886D01*
X90684776Y-54173463D01*
X90696157Y-54210982D01*
X90700000Y-54250000D01*
X90700000Y-54500000D01*
X90900000Y-54500000D01*
X90939018Y-54503843D01*
X90976537Y-54515224D01*
X91011114Y-54533706D01*
X91041421Y-54558579D01*
X91066294Y-54588886D01*
X91084776Y-54623463D01*
X91096157Y-54660982D01*
X91100000Y-54700000D01*
X91100000Y-55300000D01*
X91096157Y-55339018D01*
X91084776Y-55376537D01*
X91066294Y-55411114D01*
X91041421Y-55441421D01*
X91011114Y-55466294D01*
X90976537Y-55484776D01*
X90939018Y-55496157D01*
X90900000Y-55500000D01*
X90700000Y-55500000D01*
X90700000Y-55750000D01*
X90696157Y-55789018D01*
X90684776Y-55826537D01*
X90666294Y-55861114D01*
X90641421Y-55891421D01*
X90611114Y-55916294D01*
X90576537Y-55934776D01*
X90539018Y-55946157D01*
X90500000Y-55950000D01*
X90000000Y-55950000D01*
X89993888Y-55949398D01*
X89975466Y-55949398D01*
X89955860Y-55948435D01*
X89907029Y-55943625D01*
X89887620Y-55940746D01*
X89839495Y-55931174D01*
X89820452Y-55926404D01*
X89773497Y-55912160D01*
X89755020Y-55905549D01*
X89709687Y-55886772D01*
X89691939Y-55878377D01*
X89648666Y-55855246D01*
X89631838Y-55845160D01*
X89591039Y-55817900D01*
X89575270Y-55806205D01*
X89537341Y-55775077D01*
X89522800Y-55761897D01*
X89488103Y-55727200D01*
X89474923Y-55712659D01*
X89443795Y-55674730D01*
X89432100Y-55658961D01*
X89404840Y-55618162D01*
X89394754Y-55601334D01*
X89371623Y-55558061D01*
X89363228Y-55540313D01*
X89344451Y-55494980D01*
X89337840Y-55476503D01*
X89323596Y-55429548D01*
X89318826Y-55410505D01*
X89309254Y-55362380D01*
X89306375Y-55342971D01*
X89301565Y-55294140D01*
X89300602Y-55274534D01*
X89300602Y-55256112D01*
X89300000Y-55250000D01*
X89300000Y-54750000D01*
X89300602Y-54743888D01*
X89300602Y-54725466D01*
X89301565Y-54705860D01*
X89306375Y-54657029D01*
X89309254Y-54637620D01*
X89318826Y-54589495D01*
X89323596Y-54570452D01*
X89337840Y-54523497D01*
X89344451Y-54505020D01*
X89363228Y-54459687D01*
X89371623Y-54441939D01*
X89394754Y-54398666D01*
X89404840Y-54381838D01*
X89432100Y-54341039D01*
X89443795Y-54325270D01*
X89474923Y-54287341D01*
X89488103Y-54272800D01*
X89522800Y-54238103D01*
X89537341Y-54224923D01*
X89575270Y-54193795D01*
X89591039Y-54182100D01*
X89631838Y-54154840D01*
X89648666Y-54144754D01*
X89691939Y-54121623D01*
X89709687Y-54113228D01*
X89755020Y-54094451D01*
X89773497Y-54087840D01*
X89820452Y-54073596D01*
X89839495Y-54068826D01*
X89887620Y-54059254D01*
X89907029Y-54056375D01*
X89955860Y-54051565D01*
X89975466Y-54050602D01*
X89993888Y-54050602D01*
X90000000Y-54050000D01*
X90500000Y-54050000D01*
X90539018Y-54053843D01*
X90539018Y-54053843D01*
G37*
D19*
X91300000Y-55000000D03*
D11*
G36*
X91306112Y-54050602D02*
X91324534Y-54050602D01*
X91344140Y-54051565D01*
X91392971Y-54056375D01*
X91412380Y-54059254D01*
X91460505Y-54068826D01*
X91479548Y-54073596D01*
X91526503Y-54087840D01*
X91544980Y-54094451D01*
X91590313Y-54113228D01*
X91608061Y-54121623D01*
X91651334Y-54144754D01*
X91668162Y-54154840D01*
X91708961Y-54182100D01*
X91724730Y-54193795D01*
X91762659Y-54224923D01*
X91777200Y-54238103D01*
X91811897Y-54272800D01*
X91825077Y-54287341D01*
X91856205Y-54325270D01*
X91867900Y-54341039D01*
X91895160Y-54381838D01*
X91905246Y-54398666D01*
X91928377Y-54441939D01*
X91936772Y-54459687D01*
X91955549Y-54505020D01*
X91962160Y-54523497D01*
X91976404Y-54570452D01*
X91981174Y-54589495D01*
X91990746Y-54637620D01*
X91993625Y-54657029D01*
X91998435Y-54705860D01*
X91999398Y-54725466D01*
X91999398Y-54743888D01*
X92000000Y-54750000D01*
X92000000Y-55250000D01*
X91999398Y-55256112D01*
X91999398Y-55274534D01*
X91998435Y-55294140D01*
X91993625Y-55342971D01*
X91990746Y-55362380D01*
X91981174Y-55410505D01*
X91976404Y-55429548D01*
X91962160Y-55476503D01*
X91955549Y-55494980D01*
X91936772Y-55540313D01*
X91928377Y-55558061D01*
X91905246Y-55601334D01*
X91895160Y-55618162D01*
X91867900Y-55658961D01*
X91856205Y-55674730D01*
X91825077Y-55712659D01*
X91811897Y-55727200D01*
X91777200Y-55761897D01*
X91762659Y-55775077D01*
X91724730Y-55806205D01*
X91708961Y-55817900D01*
X91668162Y-55845160D01*
X91651334Y-55855246D01*
X91608061Y-55878377D01*
X91590313Y-55886772D01*
X91544980Y-55905549D01*
X91526503Y-55912160D01*
X91479548Y-55926404D01*
X91460505Y-55931174D01*
X91412380Y-55940746D01*
X91392971Y-55943625D01*
X91344140Y-55948435D01*
X91324534Y-55949398D01*
X91306112Y-55949398D01*
X91300000Y-55950000D01*
X90800000Y-55950000D01*
X90760982Y-55946157D01*
X90723463Y-55934776D01*
X90688886Y-55916294D01*
X90658579Y-55891421D01*
X90633706Y-55861114D01*
X90615224Y-55826537D01*
X90603843Y-55789018D01*
X90600000Y-55750000D01*
X90600000Y-54250000D01*
X90603843Y-54210982D01*
X90615224Y-54173463D01*
X90633706Y-54138886D01*
X90658579Y-54108579D01*
X90688886Y-54083706D01*
X90723463Y-54065224D01*
X90760982Y-54053843D01*
X90800000Y-54050000D01*
X91300000Y-54050000D01*
X91306112Y-54050602D01*
X91306112Y-54050602D01*
G37*
G04 #@! TD*
D19*
G04 #@! TO.C,JP2*
X83350000Y-55000000D03*
D11*
G36*
X83889018Y-54053843D02*
X83926537Y-54065224D01*
X83961114Y-54083706D01*
X83991421Y-54108579D01*
X84016294Y-54138886D01*
X84034776Y-54173463D01*
X84046157Y-54210982D01*
X84050000Y-54250000D01*
X84050000Y-55750000D01*
X84046157Y-55789018D01*
X84034776Y-55826537D01*
X84016294Y-55861114D01*
X83991421Y-55891421D01*
X83961114Y-55916294D01*
X83926537Y-55934776D01*
X83889018Y-55946157D01*
X83850000Y-55950000D01*
X83350000Y-55950000D01*
X83343888Y-55949398D01*
X83325466Y-55949398D01*
X83305860Y-55948435D01*
X83257029Y-55943625D01*
X83237620Y-55940746D01*
X83189495Y-55931174D01*
X83170452Y-55926404D01*
X83123497Y-55912160D01*
X83105020Y-55905549D01*
X83059687Y-55886772D01*
X83041939Y-55878377D01*
X82998666Y-55855246D01*
X82981838Y-55845160D01*
X82941039Y-55817900D01*
X82925270Y-55806205D01*
X82887341Y-55775077D01*
X82872800Y-55761897D01*
X82838103Y-55727200D01*
X82824923Y-55712659D01*
X82793795Y-55674730D01*
X82782100Y-55658961D01*
X82754840Y-55618162D01*
X82744754Y-55601334D01*
X82721623Y-55558061D01*
X82713228Y-55540313D01*
X82694451Y-55494980D01*
X82687840Y-55476503D01*
X82673596Y-55429548D01*
X82668826Y-55410505D01*
X82659254Y-55362380D01*
X82656375Y-55342971D01*
X82651565Y-55294140D01*
X82650602Y-55274534D01*
X82650602Y-55256112D01*
X82650000Y-55250000D01*
X82650000Y-54750000D01*
X82650602Y-54743888D01*
X82650602Y-54725466D01*
X82651565Y-54705860D01*
X82656375Y-54657029D01*
X82659254Y-54637620D01*
X82668826Y-54589495D01*
X82673596Y-54570452D01*
X82687840Y-54523497D01*
X82694451Y-54505020D01*
X82713228Y-54459687D01*
X82721623Y-54441939D01*
X82744754Y-54398666D01*
X82754840Y-54381838D01*
X82782100Y-54341039D01*
X82793795Y-54325270D01*
X82824923Y-54287341D01*
X82838103Y-54272800D01*
X82872800Y-54238103D01*
X82887341Y-54224923D01*
X82925270Y-54193795D01*
X82941039Y-54182100D01*
X82981838Y-54154840D01*
X82998666Y-54144754D01*
X83041939Y-54121623D01*
X83059687Y-54113228D01*
X83105020Y-54094451D01*
X83123497Y-54087840D01*
X83170452Y-54073596D01*
X83189495Y-54068826D01*
X83237620Y-54059254D01*
X83257029Y-54056375D01*
X83305860Y-54051565D01*
X83325466Y-54050602D01*
X83343888Y-54050602D01*
X83350000Y-54050000D01*
X83850000Y-54050000D01*
X83889018Y-54053843D01*
X83889018Y-54053843D01*
G37*
D19*
X84650000Y-55000000D03*
D11*
G36*
X84656112Y-54050602D02*
X84674534Y-54050602D01*
X84694140Y-54051565D01*
X84742971Y-54056375D01*
X84762380Y-54059254D01*
X84810505Y-54068826D01*
X84829548Y-54073596D01*
X84876503Y-54087840D01*
X84894980Y-54094451D01*
X84940313Y-54113228D01*
X84958061Y-54121623D01*
X85001334Y-54144754D01*
X85018162Y-54154840D01*
X85058961Y-54182100D01*
X85074730Y-54193795D01*
X85112659Y-54224923D01*
X85127200Y-54238103D01*
X85161897Y-54272800D01*
X85175077Y-54287341D01*
X85206205Y-54325270D01*
X85217900Y-54341039D01*
X85245160Y-54381838D01*
X85255246Y-54398666D01*
X85278377Y-54441939D01*
X85286772Y-54459687D01*
X85305549Y-54505020D01*
X85312160Y-54523497D01*
X85326404Y-54570452D01*
X85331174Y-54589495D01*
X85340746Y-54637620D01*
X85343625Y-54657029D01*
X85348435Y-54705860D01*
X85349398Y-54725466D01*
X85349398Y-54743888D01*
X85350000Y-54750000D01*
X85350000Y-55250000D01*
X85349398Y-55256112D01*
X85349398Y-55274534D01*
X85348435Y-55294140D01*
X85343625Y-55342971D01*
X85340746Y-55362380D01*
X85331174Y-55410505D01*
X85326404Y-55429548D01*
X85312160Y-55476503D01*
X85305549Y-55494980D01*
X85286772Y-55540313D01*
X85278377Y-55558061D01*
X85255246Y-55601334D01*
X85245160Y-55618162D01*
X85217900Y-55658961D01*
X85206205Y-55674730D01*
X85175077Y-55712659D01*
X85161897Y-55727200D01*
X85127200Y-55761897D01*
X85112659Y-55775077D01*
X85074730Y-55806205D01*
X85058961Y-55817900D01*
X85018162Y-55845160D01*
X85001334Y-55855246D01*
X84958061Y-55878377D01*
X84940313Y-55886772D01*
X84894980Y-55905549D01*
X84876503Y-55912160D01*
X84829548Y-55926404D01*
X84810505Y-55931174D01*
X84762380Y-55940746D01*
X84742971Y-55943625D01*
X84694140Y-55948435D01*
X84674534Y-55949398D01*
X84656112Y-55949398D01*
X84650000Y-55950000D01*
X84150000Y-55950000D01*
X84110982Y-55946157D01*
X84073463Y-55934776D01*
X84038886Y-55916294D01*
X84008579Y-55891421D01*
X83983706Y-55861114D01*
X83965224Y-55826537D01*
X83953843Y-55789018D01*
X83950000Y-55750000D01*
X83950000Y-54250000D01*
X83953843Y-54210982D01*
X83965224Y-54173463D01*
X83983706Y-54138886D01*
X84008579Y-54108579D01*
X84038886Y-54083706D01*
X84073463Y-54065224D01*
X84110982Y-54053843D01*
X84150000Y-54050000D01*
X84650000Y-54050000D01*
X84656112Y-54050602D01*
X84656112Y-54050602D01*
G37*
G04 #@! TD*
G04 #@! TO.C,D1*
G36*
X79496071Y-53701623D02*
X79528781Y-53706475D01*
X79560857Y-53714509D01*
X79591991Y-53725649D01*
X79621884Y-53739787D01*
X79650247Y-53756787D01*
X79676807Y-53776485D01*
X79701308Y-53798692D01*
X79723515Y-53823193D01*
X79743213Y-53849753D01*
X79760213Y-53878116D01*
X79774351Y-53908009D01*
X79785491Y-53939143D01*
X79793525Y-53971219D01*
X79798377Y-54003929D01*
X79800000Y-54036956D01*
X79800000Y-55163044D01*
X79798377Y-55196071D01*
X79793525Y-55228781D01*
X79785491Y-55260857D01*
X79774351Y-55291991D01*
X79760213Y-55321884D01*
X79743213Y-55350247D01*
X79723515Y-55376807D01*
X79701308Y-55401308D01*
X79676807Y-55423515D01*
X79650247Y-55443213D01*
X79621884Y-55460213D01*
X79591991Y-55474351D01*
X79560857Y-55485491D01*
X79528781Y-55493525D01*
X79496071Y-55498377D01*
X79463044Y-55500000D01*
X78586956Y-55500000D01*
X78553929Y-55498377D01*
X78521219Y-55493525D01*
X78489143Y-55485491D01*
X78458009Y-55474351D01*
X78428116Y-55460213D01*
X78399753Y-55443213D01*
X78373193Y-55423515D01*
X78348692Y-55401308D01*
X78326485Y-55376807D01*
X78306787Y-55350247D01*
X78289787Y-55321884D01*
X78275649Y-55291991D01*
X78264509Y-55260857D01*
X78256475Y-55228781D01*
X78251623Y-55196071D01*
X78250000Y-55163044D01*
X78250000Y-54036956D01*
X78251623Y-54003929D01*
X78256475Y-53971219D01*
X78264509Y-53939143D01*
X78275649Y-53908009D01*
X78289787Y-53878116D01*
X78306787Y-53849753D01*
X78326485Y-53823193D01*
X78348692Y-53798692D01*
X78373193Y-53776485D01*
X78399753Y-53756787D01*
X78428116Y-53739787D01*
X78458009Y-53725649D01*
X78489143Y-53714509D01*
X78521219Y-53706475D01*
X78553929Y-53701623D01*
X78586956Y-53700000D01*
X79463044Y-53700000D01*
X79496071Y-53701623D01*
X79496071Y-53701623D01*
G37*
D12*
X79025000Y-54600000D03*
D11*
G36*
X77446071Y-53701623D02*
X77478781Y-53706475D01*
X77510857Y-53714509D01*
X77541991Y-53725649D01*
X77571884Y-53739787D01*
X77600247Y-53756787D01*
X77626807Y-53776485D01*
X77651308Y-53798692D01*
X77673515Y-53823193D01*
X77693213Y-53849753D01*
X77710213Y-53878116D01*
X77724351Y-53908009D01*
X77735491Y-53939143D01*
X77743525Y-53971219D01*
X77748377Y-54003929D01*
X77750000Y-54036956D01*
X77750000Y-55163044D01*
X77748377Y-55196071D01*
X77743525Y-55228781D01*
X77735491Y-55260857D01*
X77724351Y-55291991D01*
X77710213Y-55321884D01*
X77693213Y-55350247D01*
X77673515Y-55376807D01*
X77651308Y-55401308D01*
X77626807Y-55423515D01*
X77600247Y-55443213D01*
X77571884Y-55460213D01*
X77541991Y-55474351D01*
X77510857Y-55485491D01*
X77478781Y-55493525D01*
X77446071Y-55498377D01*
X77413044Y-55500000D01*
X76536956Y-55500000D01*
X76503929Y-55498377D01*
X76471219Y-55493525D01*
X76439143Y-55485491D01*
X76408009Y-55474351D01*
X76378116Y-55460213D01*
X76349753Y-55443213D01*
X76323193Y-55423515D01*
X76298692Y-55401308D01*
X76276485Y-55376807D01*
X76256787Y-55350247D01*
X76239787Y-55321884D01*
X76225649Y-55291991D01*
X76214509Y-55260857D01*
X76206475Y-55228781D01*
X76201623Y-55196071D01*
X76200000Y-55163044D01*
X76200000Y-54036956D01*
X76201623Y-54003929D01*
X76206475Y-53971219D01*
X76214509Y-53939143D01*
X76225649Y-53908009D01*
X76239787Y-53878116D01*
X76256787Y-53849753D01*
X76276485Y-53823193D01*
X76298692Y-53798692D01*
X76323193Y-53776485D01*
X76349753Y-53756787D01*
X76378116Y-53739787D01*
X76408009Y-53725649D01*
X76439143Y-53714509D01*
X76471219Y-53706475D01*
X76503929Y-53701623D01*
X76536956Y-53700000D01*
X77413044Y-53700000D01*
X77446071Y-53701623D01*
X77446071Y-53701623D01*
G37*
D12*
X76975000Y-54600000D03*
G04 #@! TD*
D20*
G04 #@! TO.C,U3*
X78200000Y-71810000D03*
X78200000Y-70540000D03*
X78200000Y-69270000D03*
X78200000Y-68000000D03*
X78200000Y-66730000D03*
X78200000Y-65460000D03*
X78200000Y-64190000D03*
X72800000Y-64190000D03*
X72800000Y-65460000D03*
X72800000Y-66730000D03*
X72800000Y-68000000D03*
X72800000Y-69270000D03*
X72800000Y-70540000D03*
X72800000Y-71810000D03*
G04 #@! TD*
D21*
G04 #@! TO.C,U2*
X81095000Y-86200000D03*
X82365000Y-86200000D03*
X83635000Y-86200000D03*
X84905000Y-86200000D03*
X84905000Y-80800000D03*
X83635000Y-80800000D03*
X82365000Y-80800000D03*
X81095000Y-80800000D03*
G04 #@! TD*
G04 #@! TO.C,U1*
X102805000Y-83050000D03*
X101535000Y-83050000D03*
X100265000Y-83050000D03*
X98995000Y-83050000D03*
X98995000Y-77650000D03*
X100265000Y-77650000D03*
X101535000Y-77650000D03*
X102805000Y-77650000D03*
G04 #@! TD*
D22*
G04 #@! TO.C,U4*
X115300000Y-62595000D03*
X115300000Y-63865000D03*
X115300000Y-65135000D03*
X115300000Y-66405000D03*
X120700000Y-66405000D03*
X120700000Y-65135000D03*
X120700000Y-63865000D03*
X120700000Y-62595000D03*
G04 #@! TD*
D23*
G04 #@! TO.C,RV1*
X109000000Y-60000000D03*
X106500000Y-60000000D03*
X104000000Y-60000000D03*
D24*
X110900000Y-67000000D03*
X102100000Y-67000000D03*
G04 #@! TD*
D11*
G04 #@! TO.C,R3*
G36*
X126096071Y-72701623D02*
X126128781Y-72706475D01*
X126160857Y-72714509D01*
X126191991Y-72725649D01*
X126221884Y-72739787D01*
X126250247Y-72756787D01*
X126276807Y-72776485D01*
X126301308Y-72798692D01*
X126323515Y-72823193D01*
X126343213Y-72849753D01*
X126360213Y-72878116D01*
X126374351Y-72908009D01*
X126385491Y-72939143D01*
X126393525Y-72971219D01*
X126398377Y-73003929D01*
X126400000Y-73036956D01*
X126400000Y-73913044D01*
X126398377Y-73946071D01*
X126393525Y-73978781D01*
X126385491Y-74010857D01*
X126374351Y-74041991D01*
X126360213Y-74071884D01*
X126343213Y-74100247D01*
X126323515Y-74126807D01*
X126301308Y-74151308D01*
X126276807Y-74173515D01*
X126250247Y-74193213D01*
X126221884Y-74210213D01*
X126191991Y-74224351D01*
X126160857Y-74235491D01*
X126128781Y-74243525D01*
X126096071Y-74248377D01*
X126063044Y-74250000D01*
X124936956Y-74250000D01*
X124903929Y-74248377D01*
X124871219Y-74243525D01*
X124839143Y-74235491D01*
X124808009Y-74224351D01*
X124778116Y-74210213D01*
X124749753Y-74193213D01*
X124723193Y-74173515D01*
X124698692Y-74151308D01*
X124676485Y-74126807D01*
X124656787Y-74100247D01*
X124639787Y-74071884D01*
X124625649Y-74041991D01*
X124614509Y-74010857D01*
X124606475Y-73978781D01*
X124601623Y-73946071D01*
X124600000Y-73913044D01*
X124600000Y-73036956D01*
X124601623Y-73003929D01*
X124606475Y-72971219D01*
X124614509Y-72939143D01*
X124625649Y-72908009D01*
X124639787Y-72878116D01*
X124656787Y-72849753D01*
X124676485Y-72823193D01*
X124698692Y-72798692D01*
X124723193Y-72776485D01*
X124749753Y-72756787D01*
X124778116Y-72739787D01*
X124808009Y-72725649D01*
X124839143Y-72714509D01*
X124871219Y-72706475D01*
X124903929Y-72701623D01*
X124936956Y-72700000D01*
X126063044Y-72700000D01*
X126096071Y-72701623D01*
X126096071Y-72701623D01*
G37*
D12*
X125500000Y-73475000D03*
D11*
G36*
X126096071Y-74751623D02*
X126128781Y-74756475D01*
X126160857Y-74764509D01*
X126191991Y-74775649D01*
X126221884Y-74789787D01*
X126250247Y-74806787D01*
X126276807Y-74826485D01*
X126301308Y-74848692D01*
X126323515Y-74873193D01*
X126343213Y-74899753D01*
X126360213Y-74928116D01*
X126374351Y-74958009D01*
X126385491Y-74989143D01*
X126393525Y-75021219D01*
X126398377Y-75053929D01*
X126400000Y-75086956D01*
X126400000Y-75963044D01*
X126398377Y-75996071D01*
X126393525Y-76028781D01*
X126385491Y-76060857D01*
X126374351Y-76091991D01*
X126360213Y-76121884D01*
X126343213Y-76150247D01*
X126323515Y-76176807D01*
X126301308Y-76201308D01*
X126276807Y-76223515D01*
X126250247Y-76243213D01*
X126221884Y-76260213D01*
X126191991Y-76274351D01*
X126160857Y-76285491D01*
X126128781Y-76293525D01*
X126096071Y-76298377D01*
X126063044Y-76300000D01*
X124936956Y-76300000D01*
X124903929Y-76298377D01*
X124871219Y-76293525D01*
X124839143Y-76285491D01*
X124808009Y-76274351D01*
X124778116Y-76260213D01*
X124749753Y-76243213D01*
X124723193Y-76223515D01*
X124698692Y-76201308D01*
X124676485Y-76176807D01*
X124656787Y-76150247D01*
X124639787Y-76121884D01*
X124625649Y-76091991D01*
X124614509Y-76060857D01*
X124606475Y-76028781D01*
X124601623Y-75996071D01*
X124600000Y-75963044D01*
X124600000Y-75086956D01*
X124601623Y-75053929D01*
X124606475Y-75021219D01*
X124614509Y-74989143D01*
X124625649Y-74958009D01*
X124639787Y-74928116D01*
X124656787Y-74899753D01*
X124676485Y-74873193D01*
X124698692Y-74848692D01*
X124723193Y-74826485D01*
X124749753Y-74806787D01*
X124778116Y-74789787D01*
X124808009Y-74775649D01*
X124839143Y-74764509D01*
X124871219Y-74756475D01*
X124903929Y-74751623D01*
X124936956Y-74750000D01*
X126063044Y-74750000D01*
X126096071Y-74751623D01*
X126096071Y-74751623D01*
G37*
D12*
X125500000Y-75525000D03*
G04 #@! TD*
D11*
G04 #@! TO.C,R4*
G36*
X125446071Y-78101623D02*
X125478781Y-78106475D01*
X125510857Y-78114509D01*
X125541991Y-78125649D01*
X125571884Y-78139787D01*
X125600247Y-78156787D01*
X125626807Y-78176485D01*
X125651308Y-78198692D01*
X125673515Y-78223193D01*
X125693213Y-78249753D01*
X125710213Y-78278116D01*
X125724351Y-78308009D01*
X125735491Y-78339143D01*
X125743525Y-78371219D01*
X125748377Y-78403929D01*
X125750000Y-78436956D01*
X125750000Y-79563044D01*
X125748377Y-79596071D01*
X125743525Y-79628781D01*
X125735491Y-79660857D01*
X125724351Y-79691991D01*
X125710213Y-79721884D01*
X125693213Y-79750247D01*
X125673515Y-79776807D01*
X125651308Y-79801308D01*
X125626807Y-79823515D01*
X125600247Y-79843213D01*
X125571884Y-79860213D01*
X125541991Y-79874351D01*
X125510857Y-79885491D01*
X125478781Y-79893525D01*
X125446071Y-79898377D01*
X125413044Y-79900000D01*
X124536956Y-79900000D01*
X124503929Y-79898377D01*
X124471219Y-79893525D01*
X124439143Y-79885491D01*
X124408009Y-79874351D01*
X124378116Y-79860213D01*
X124349753Y-79843213D01*
X124323193Y-79823515D01*
X124298692Y-79801308D01*
X124276485Y-79776807D01*
X124256787Y-79750247D01*
X124239787Y-79721884D01*
X124225649Y-79691991D01*
X124214509Y-79660857D01*
X124206475Y-79628781D01*
X124201623Y-79596071D01*
X124200000Y-79563044D01*
X124200000Y-78436956D01*
X124201623Y-78403929D01*
X124206475Y-78371219D01*
X124214509Y-78339143D01*
X124225649Y-78308009D01*
X124239787Y-78278116D01*
X124256787Y-78249753D01*
X124276485Y-78223193D01*
X124298692Y-78198692D01*
X124323193Y-78176485D01*
X124349753Y-78156787D01*
X124378116Y-78139787D01*
X124408009Y-78125649D01*
X124439143Y-78114509D01*
X124471219Y-78106475D01*
X124503929Y-78101623D01*
X124536956Y-78100000D01*
X125413044Y-78100000D01*
X125446071Y-78101623D01*
X125446071Y-78101623D01*
G37*
D12*
X124975000Y-79000000D03*
D11*
G36*
X127496071Y-78101623D02*
X127528781Y-78106475D01*
X127560857Y-78114509D01*
X127591991Y-78125649D01*
X127621884Y-78139787D01*
X127650247Y-78156787D01*
X127676807Y-78176485D01*
X127701308Y-78198692D01*
X127723515Y-78223193D01*
X127743213Y-78249753D01*
X127760213Y-78278116D01*
X127774351Y-78308009D01*
X127785491Y-78339143D01*
X127793525Y-78371219D01*
X127798377Y-78403929D01*
X127800000Y-78436956D01*
X127800000Y-79563044D01*
X127798377Y-79596071D01*
X127793525Y-79628781D01*
X127785491Y-79660857D01*
X127774351Y-79691991D01*
X127760213Y-79721884D01*
X127743213Y-79750247D01*
X127723515Y-79776807D01*
X127701308Y-79801308D01*
X127676807Y-79823515D01*
X127650247Y-79843213D01*
X127621884Y-79860213D01*
X127591991Y-79874351D01*
X127560857Y-79885491D01*
X127528781Y-79893525D01*
X127496071Y-79898377D01*
X127463044Y-79900000D01*
X126586956Y-79900000D01*
X126553929Y-79898377D01*
X126521219Y-79893525D01*
X126489143Y-79885491D01*
X126458009Y-79874351D01*
X126428116Y-79860213D01*
X126399753Y-79843213D01*
X126373193Y-79823515D01*
X126348692Y-79801308D01*
X126326485Y-79776807D01*
X126306787Y-79750247D01*
X126289787Y-79721884D01*
X126275649Y-79691991D01*
X126264509Y-79660857D01*
X126256475Y-79628781D01*
X126251623Y-79596071D01*
X126250000Y-79563044D01*
X126250000Y-78436956D01*
X126251623Y-78403929D01*
X126256475Y-78371219D01*
X126264509Y-78339143D01*
X126275649Y-78308009D01*
X126289787Y-78278116D01*
X126306787Y-78249753D01*
X126326485Y-78223193D01*
X126348692Y-78198692D01*
X126373193Y-78176485D01*
X126399753Y-78156787D01*
X126428116Y-78139787D01*
X126458009Y-78125649D01*
X126489143Y-78114509D01*
X126521219Y-78106475D01*
X126553929Y-78101623D01*
X126586956Y-78100000D01*
X127463044Y-78100000D01*
X127496071Y-78101623D01*
X127496071Y-78101623D01*
G37*
D12*
X127025000Y-79000000D03*
G04 #@! TD*
D11*
G04 #@! TO.C,R5*
G36*
X109096071Y-77501623D02*
X109128781Y-77506475D01*
X109160857Y-77514509D01*
X109191991Y-77525649D01*
X109221884Y-77539787D01*
X109250247Y-77556787D01*
X109276807Y-77576485D01*
X109301308Y-77598692D01*
X109323515Y-77623193D01*
X109343213Y-77649753D01*
X109360213Y-77678116D01*
X109374351Y-77708009D01*
X109385491Y-77739143D01*
X109393525Y-77771219D01*
X109398377Y-77803929D01*
X109400000Y-77836956D01*
X109400000Y-78963044D01*
X109398377Y-78996071D01*
X109393525Y-79028781D01*
X109385491Y-79060857D01*
X109374351Y-79091991D01*
X109360213Y-79121884D01*
X109343213Y-79150247D01*
X109323515Y-79176807D01*
X109301308Y-79201308D01*
X109276807Y-79223515D01*
X109250247Y-79243213D01*
X109221884Y-79260213D01*
X109191991Y-79274351D01*
X109160857Y-79285491D01*
X109128781Y-79293525D01*
X109096071Y-79298377D01*
X109063044Y-79300000D01*
X108186956Y-79300000D01*
X108153929Y-79298377D01*
X108121219Y-79293525D01*
X108089143Y-79285491D01*
X108058009Y-79274351D01*
X108028116Y-79260213D01*
X107999753Y-79243213D01*
X107973193Y-79223515D01*
X107948692Y-79201308D01*
X107926485Y-79176807D01*
X107906787Y-79150247D01*
X107889787Y-79121884D01*
X107875649Y-79091991D01*
X107864509Y-79060857D01*
X107856475Y-79028781D01*
X107851623Y-78996071D01*
X107850000Y-78963044D01*
X107850000Y-77836956D01*
X107851623Y-77803929D01*
X107856475Y-77771219D01*
X107864509Y-77739143D01*
X107875649Y-77708009D01*
X107889787Y-77678116D01*
X107906787Y-77649753D01*
X107926485Y-77623193D01*
X107948692Y-77598692D01*
X107973193Y-77576485D01*
X107999753Y-77556787D01*
X108028116Y-77539787D01*
X108058009Y-77525649D01*
X108089143Y-77514509D01*
X108121219Y-77506475D01*
X108153929Y-77501623D01*
X108186956Y-77500000D01*
X109063044Y-77500000D01*
X109096071Y-77501623D01*
X109096071Y-77501623D01*
G37*
D12*
X108625000Y-78400000D03*
D11*
G36*
X107046071Y-77501623D02*
X107078781Y-77506475D01*
X107110857Y-77514509D01*
X107141991Y-77525649D01*
X107171884Y-77539787D01*
X107200247Y-77556787D01*
X107226807Y-77576485D01*
X107251308Y-77598692D01*
X107273515Y-77623193D01*
X107293213Y-77649753D01*
X107310213Y-77678116D01*
X107324351Y-77708009D01*
X107335491Y-77739143D01*
X107343525Y-77771219D01*
X107348377Y-77803929D01*
X107350000Y-77836956D01*
X107350000Y-78963044D01*
X107348377Y-78996071D01*
X107343525Y-79028781D01*
X107335491Y-79060857D01*
X107324351Y-79091991D01*
X107310213Y-79121884D01*
X107293213Y-79150247D01*
X107273515Y-79176807D01*
X107251308Y-79201308D01*
X107226807Y-79223515D01*
X107200247Y-79243213D01*
X107171884Y-79260213D01*
X107141991Y-79274351D01*
X107110857Y-79285491D01*
X107078781Y-79293525D01*
X107046071Y-79298377D01*
X107013044Y-79300000D01*
X106136956Y-79300000D01*
X106103929Y-79298377D01*
X106071219Y-79293525D01*
X106039143Y-79285491D01*
X106008009Y-79274351D01*
X105978116Y-79260213D01*
X105949753Y-79243213D01*
X105923193Y-79223515D01*
X105898692Y-79201308D01*
X105876485Y-79176807D01*
X105856787Y-79150247D01*
X105839787Y-79121884D01*
X105825649Y-79091991D01*
X105814509Y-79060857D01*
X105806475Y-79028781D01*
X105801623Y-78996071D01*
X105800000Y-78963044D01*
X105800000Y-77836956D01*
X105801623Y-77803929D01*
X105806475Y-77771219D01*
X105814509Y-77739143D01*
X105825649Y-77708009D01*
X105839787Y-77678116D01*
X105856787Y-77649753D01*
X105876485Y-77623193D01*
X105898692Y-77598692D01*
X105923193Y-77576485D01*
X105949753Y-77556787D01*
X105978116Y-77539787D01*
X106008009Y-77525649D01*
X106039143Y-77514509D01*
X106071219Y-77506475D01*
X106103929Y-77501623D01*
X106136956Y-77500000D01*
X107013044Y-77500000D01*
X107046071Y-77501623D01*
X107046071Y-77501623D01*
G37*
D12*
X106575000Y-78400000D03*
G04 #@! TD*
D11*
G04 #@! TO.C,R7*
G36*
X78496071Y-84601623D02*
X78528781Y-84606475D01*
X78560857Y-84614509D01*
X78591991Y-84625649D01*
X78621884Y-84639787D01*
X78650247Y-84656787D01*
X78676807Y-84676485D01*
X78701308Y-84698692D01*
X78723515Y-84723193D01*
X78743213Y-84749753D01*
X78760213Y-84778116D01*
X78774351Y-84808009D01*
X78785491Y-84839143D01*
X78793525Y-84871219D01*
X78798377Y-84903929D01*
X78800000Y-84936956D01*
X78800000Y-86063044D01*
X78798377Y-86096071D01*
X78793525Y-86128781D01*
X78785491Y-86160857D01*
X78774351Y-86191991D01*
X78760213Y-86221884D01*
X78743213Y-86250247D01*
X78723515Y-86276807D01*
X78701308Y-86301308D01*
X78676807Y-86323515D01*
X78650247Y-86343213D01*
X78621884Y-86360213D01*
X78591991Y-86374351D01*
X78560857Y-86385491D01*
X78528781Y-86393525D01*
X78496071Y-86398377D01*
X78463044Y-86400000D01*
X77586956Y-86400000D01*
X77553929Y-86398377D01*
X77521219Y-86393525D01*
X77489143Y-86385491D01*
X77458009Y-86374351D01*
X77428116Y-86360213D01*
X77399753Y-86343213D01*
X77373193Y-86323515D01*
X77348692Y-86301308D01*
X77326485Y-86276807D01*
X77306787Y-86250247D01*
X77289787Y-86221884D01*
X77275649Y-86191991D01*
X77264509Y-86160857D01*
X77256475Y-86128781D01*
X77251623Y-86096071D01*
X77250000Y-86063044D01*
X77250000Y-84936956D01*
X77251623Y-84903929D01*
X77256475Y-84871219D01*
X77264509Y-84839143D01*
X77275649Y-84808009D01*
X77289787Y-84778116D01*
X77306787Y-84749753D01*
X77326485Y-84723193D01*
X77348692Y-84698692D01*
X77373193Y-84676485D01*
X77399753Y-84656787D01*
X77428116Y-84639787D01*
X77458009Y-84625649D01*
X77489143Y-84614509D01*
X77521219Y-84606475D01*
X77553929Y-84601623D01*
X77586956Y-84600000D01*
X78463044Y-84600000D01*
X78496071Y-84601623D01*
X78496071Y-84601623D01*
G37*
D12*
X78025000Y-85500000D03*
D11*
G36*
X76446071Y-84601623D02*
X76478781Y-84606475D01*
X76510857Y-84614509D01*
X76541991Y-84625649D01*
X76571884Y-84639787D01*
X76600247Y-84656787D01*
X76626807Y-84676485D01*
X76651308Y-84698692D01*
X76673515Y-84723193D01*
X76693213Y-84749753D01*
X76710213Y-84778116D01*
X76724351Y-84808009D01*
X76735491Y-84839143D01*
X76743525Y-84871219D01*
X76748377Y-84903929D01*
X76750000Y-84936956D01*
X76750000Y-86063044D01*
X76748377Y-86096071D01*
X76743525Y-86128781D01*
X76735491Y-86160857D01*
X76724351Y-86191991D01*
X76710213Y-86221884D01*
X76693213Y-86250247D01*
X76673515Y-86276807D01*
X76651308Y-86301308D01*
X76626807Y-86323515D01*
X76600247Y-86343213D01*
X76571884Y-86360213D01*
X76541991Y-86374351D01*
X76510857Y-86385491D01*
X76478781Y-86393525D01*
X76446071Y-86398377D01*
X76413044Y-86400000D01*
X75536956Y-86400000D01*
X75503929Y-86398377D01*
X75471219Y-86393525D01*
X75439143Y-86385491D01*
X75408009Y-86374351D01*
X75378116Y-86360213D01*
X75349753Y-86343213D01*
X75323193Y-86323515D01*
X75298692Y-86301308D01*
X75276485Y-86276807D01*
X75256787Y-86250247D01*
X75239787Y-86221884D01*
X75225649Y-86191991D01*
X75214509Y-86160857D01*
X75206475Y-86128781D01*
X75201623Y-86096071D01*
X75200000Y-86063044D01*
X75200000Y-84936956D01*
X75201623Y-84903929D01*
X75206475Y-84871219D01*
X75214509Y-84839143D01*
X75225649Y-84808009D01*
X75239787Y-84778116D01*
X75256787Y-84749753D01*
X75276485Y-84723193D01*
X75298692Y-84698692D01*
X75323193Y-84676485D01*
X75349753Y-84656787D01*
X75378116Y-84639787D01*
X75408009Y-84625649D01*
X75439143Y-84614509D01*
X75471219Y-84606475D01*
X75503929Y-84601623D01*
X75536956Y-84600000D01*
X76413044Y-84600000D01*
X76446071Y-84601623D01*
X76446071Y-84601623D01*
G37*
D12*
X75975000Y-85500000D03*
G04 #@! TD*
D11*
G04 #@! TO.C,R6*
G36*
X97196071Y-86651623D02*
X97228781Y-86656475D01*
X97260857Y-86664509D01*
X97291991Y-86675649D01*
X97321884Y-86689787D01*
X97350247Y-86706787D01*
X97376807Y-86726485D01*
X97401308Y-86748692D01*
X97423515Y-86773193D01*
X97443213Y-86799753D01*
X97460213Y-86828116D01*
X97474351Y-86858009D01*
X97485491Y-86889143D01*
X97493525Y-86921219D01*
X97498377Y-86953929D01*
X97500000Y-86986956D01*
X97500000Y-87863044D01*
X97498377Y-87896071D01*
X97493525Y-87928781D01*
X97485491Y-87960857D01*
X97474351Y-87991991D01*
X97460213Y-88021884D01*
X97443213Y-88050247D01*
X97423515Y-88076807D01*
X97401308Y-88101308D01*
X97376807Y-88123515D01*
X97350247Y-88143213D01*
X97321884Y-88160213D01*
X97291991Y-88174351D01*
X97260857Y-88185491D01*
X97228781Y-88193525D01*
X97196071Y-88198377D01*
X97163044Y-88200000D01*
X96036956Y-88200000D01*
X96003929Y-88198377D01*
X95971219Y-88193525D01*
X95939143Y-88185491D01*
X95908009Y-88174351D01*
X95878116Y-88160213D01*
X95849753Y-88143213D01*
X95823193Y-88123515D01*
X95798692Y-88101308D01*
X95776485Y-88076807D01*
X95756787Y-88050247D01*
X95739787Y-88021884D01*
X95725649Y-87991991D01*
X95714509Y-87960857D01*
X95706475Y-87928781D01*
X95701623Y-87896071D01*
X95700000Y-87863044D01*
X95700000Y-86986956D01*
X95701623Y-86953929D01*
X95706475Y-86921219D01*
X95714509Y-86889143D01*
X95725649Y-86858009D01*
X95739787Y-86828116D01*
X95756787Y-86799753D01*
X95776485Y-86773193D01*
X95798692Y-86748692D01*
X95823193Y-86726485D01*
X95849753Y-86706787D01*
X95878116Y-86689787D01*
X95908009Y-86675649D01*
X95939143Y-86664509D01*
X95971219Y-86656475D01*
X96003929Y-86651623D01*
X96036956Y-86650000D01*
X97163044Y-86650000D01*
X97196071Y-86651623D01*
X97196071Y-86651623D01*
G37*
D12*
X96600000Y-87425000D03*
D11*
G36*
X97196071Y-84601623D02*
X97228781Y-84606475D01*
X97260857Y-84614509D01*
X97291991Y-84625649D01*
X97321884Y-84639787D01*
X97350247Y-84656787D01*
X97376807Y-84676485D01*
X97401308Y-84698692D01*
X97423515Y-84723193D01*
X97443213Y-84749753D01*
X97460213Y-84778116D01*
X97474351Y-84808009D01*
X97485491Y-84839143D01*
X97493525Y-84871219D01*
X97498377Y-84903929D01*
X97500000Y-84936956D01*
X97500000Y-85813044D01*
X97498377Y-85846071D01*
X97493525Y-85878781D01*
X97485491Y-85910857D01*
X97474351Y-85941991D01*
X97460213Y-85971884D01*
X97443213Y-86000247D01*
X97423515Y-86026807D01*
X97401308Y-86051308D01*
X97376807Y-86073515D01*
X97350247Y-86093213D01*
X97321884Y-86110213D01*
X97291991Y-86124351D01*
X97260857Y-86135491D01*
X97228781Y-86143525D01*
X97196071Y-86148377D01*
X97163044Y-86150000D01*
X96036956Y-86150000D01*
X96003929Y-86148377D01*
X95971219Y-86143525D01*
X95939143Y-86135491D01*
X95908009Y-86124351D01*
X95878116Y-86110213D01*
X95849753Y-86093213D01*
X95823193Y-86073515D01*
X95798692Y-86051308D01*
X95776485Y-86026807D01*
X95756787Y-86000247D01*
X95739787Y-85971884D01*
X95725649Y-85941991D01*
X95714509Y-85910857D01*
X95706475Y-85878781D01*
X95701623Y-85846071D01*
X95700000Y-85813044D01*
X95700000Y-84936956D01*
X95701623Y-84903929D01*
X95706475Y-84871219D01*
X95714509Y-84839143D01*
X95725649Y-84808009D01*
X95739787Y-84778116D01*
X95756787Y-84749753D01*
X95776485Y-84723193D01*
X95798692Y-84698692D01*
X95823193Y-84676485D01*
X95849753Y-84656787D01*
X95878116Y-84639787D01*
X95908009Y-84625649D01*
X95939143Y-84614509D01*
X95971219Y-84606475D01*
X96003929Y-84601623D01*
X96036956Y-84600000D01*
X97163044Y-84600000D01*
X97196071Y-84601623D01*
X97196071Y-84601623D01*
G37*
D12*
X96600000Y-85375000D03*
G04 #@! TD*
D11*
G04 #@! TO.C,R1*
G36*
X77446071Y-57101623D02*
X77478781Y-57106475D01*
X77510857Y-57114509D01*
X77541991Y-57125649D01*
X77571884Y-57139787D01*
X77600247Y-57156787D01*
X77626807Y-57176485D01*
X77651308Y-57198692D01*
X77673515Y-57223193D01*
X77693213Y-57249753D01*
X77710213Y-57278116D01*
X77724351Y-57308009D01*
X77735491Y-57339143D01*
X77743525Y-57371219D01*
X77748377Y-57403929D01*
X77750000Y-57436956D01*
X77750000Y-58563044D01*
X77748377Y-58596071D01*
X77743525Y-58628781D01*
X77735491Y-58660857D01*
X77724351Y-58691991D01*
X77710213Y-58721884D01*
X77693213Y-58750247D01*
X77673515Y-58776807D01*
X77651308Y-58801308D01*
X77626807Y-58823515D01*
X77600247Y-58843213D01*
X77571884Y-58860213D01*
X77541991Y-58874351D01*
X77510857Y-58885491D01*
X77478781Y-58893525D01*
X77446071Y-58898377D01*
X77413044Y-58900000D01*
X76536956Y-58900000D01*
X76503929Y-58898377D01*
X76471219Y-58893525D01*
X76439143Y-58885491D01*
X76408009Y-58874351D01*
X76378116Y-58860213D01*
X76349753Y-58843213D01*
X76323193Y-58823515D01*
X76298692Y-58801308D01*
X76276485Y-58776807D01*
X76256787Y-58750247D01*
X76239787Y-58721884D01*
X76225649Y-58691991D01*
X76214509Y-58660857D01*
X76206475Y-58628781D01*
X76201623Y-58596071D01*
X76200000Y-58563044D01*
X76200000Y-57436956D01*
X76201623Y-57403929D01*
X76206475Y-57371219D01*
X76214509Y-57339143D01*
X76225649Y-57308009D01*
X76239787Y-57278116D01*
X76256787Y-57249753D01*
X76276485Y-57223193D01*
X76298692Y-57198692D01*
X76323193Y-57176485D01*
X76349753Y-57156787D01*
X76378116Y-57139787D01*
X76408009Y-57125649D01*
X76439143Y-57114509D01*
X76471219Y-57106475D01*
X76503929Y-57101623D01*
X76536956Y-57100000D01*
X77413044Y-57100000D01*
X77446071Y-57101623D01*
X77446071Y-57101623D01*
G37*
D12*
X76975000Y-58000000D03*
D11*
G36*
X79496071Y-57101623D02*
X79528781Y-57106475D01*
X79560857Y-57114509D01*
X79591991Y-57125649D01*
X79621884Y-57139787D01*
X79650247Y-57156787D01*
X79676807Y-57176485D01*
X79701308Y-57198692D01*
X79723515Y-57223193D01*
X79743213Y-57249753D01*
X79760213Y-57278116D01*
X79774351Y-57308009D01*
X79785491Y-57339143D01*
X79793525Y-57371219D01*
X79798377Y-57403929D01*
X79800000Y-57436956D01*
X79800000Y-58563044D01*
X79798377Y-58596071D01*
X79793525Y-58628781D01*
X79785491Y-58660857D01*
X79774351Y-58691991D01*
X79760213Y-58721884D01*
X79743213Y-58750247D01*
X79723515Y-58776807D01*
X79701308Y-58801308D01*
X79676807Y-58823515D01*
X79650247Y-58843213D01*
X79621884Y-58860213D01*
X79591991Y-58874351D01*
X79560857Y-58885491D01*
X79528781Y-58893525D01*
X79496071Y-58898377D01*
X79463044Y-58900000D01*
X78586956Y-58900000D01*
X78553929Y-58898377D01*
X78521219Y-58893525D01*
X78489143Y-58885491D01*
X78458009Y-58874351D01*
X78428116Y-58860213D01*
X78399753Y-58843213D01*
X78373193Y-58823515D01*
X78348692Y-58801308D01*
X78326485Y-58776807D01*
X78306787Y-58750247D01*
X78289787Y-58721884D01*
X78275649Y-58691991D01*
X78264509Y-58660857D01*
X78256475Y-58628781D01*
X78251623Y-58596071D01*
X78250000Y-58563044D01*
X78250000Y-57436956D01*
X78251623Y-57403929D01*
X78256475Y-57371219D01*
X78264509Y-57339143D01*
X78275649Y-57308009D01*
X78289787Y-57278116D01*
X78306787Y-57249753D01*
X78326485Y-57223193D01*
X78348692Y-57198692D01*
X78373193Y-57176485D01*
X78399753Y-57156787D01*
X78428116Y-57139787D01*
X78458009Y-57125649D01*
X78489143Y-57114509D01*
X78521219Y-57106475D01*
X78553929Y-57101623D01*
X78586956Y-57100000D01*
X79463044Y-57100000D01*
X79496071Y-57101623D01*
X79496071Y-57101623D01*
G37*
D12*
X79025000Y-58000000D03*
G04 #@! TD*
D11*
G04 #@! TO.C,R2*
G36*
X97096071Y-55201623D02*
X97128781Y-55206475D01*
X97160857Y-55214509D01*
X97191991Y-55225649D01*
X97221884Y-55239787D01*
X97250247Y-55256787D01*
X97276807Y-55276485D01*
X97301308Y-55298692D01*
X97323515Y-55323193D01*
X97343213Y-55349753D01*
X97360213Y-55378116D01*
X97374351Y-55408009D01*
X97385491Y-55439143D01*
X97393525Y-55471219D01*
X97398377Y-55503929D01*
X97400000Y-55536956D01*
X97400000Y-56413044D01*
X97398377Y-56446071D01*
X97393525Y-56478781D01*
X97385491Y-56510857D01*
X97374351Y-56541991D01*
X97360213Y-56571884D01*
X97343213Y-56600247D01*
X97323515Y-56626807D01*
X97301308Y-56651308D01*
X97276807Y-56673515D01*
X97250247Y-56693213D01*
X97221884Y-56710213D01*
X97191991Y-56724351D01*
X97160857Y-56735491D01*
X97128781Y-56743525D01*
X97096071Y-56748377D01*
X97063044Y-56750000D01*
X95936956Y-56750000D01*
X95903929Y-56748377D01*
X95871219Y-56743525D01*
X95839143Y-56735491D01*
X95808009Y-56724351D01*
X95778116Y-56710213D01*
X95749753Y-56693213D01*
X95723193Y-56673515D01*
X95698692Y-56651308D01*
X95676485Y-56626807D01*
X95656787Y-56600247D01*
X95639787Y-56571884D01*
X95625649Y-56541991D01*
X95614509Y-56510857D01*
X95606475Y-56478781D01*
X95601623Y-56446071D01*
X95600000Y-56413044D01*
X95600000Y-55536956D01*
X95601623Y-55503929D01*
X95606475Y-55471219D01*
X95614509Y-55439143D01*
X95625649Y-55408009D01*
X95639787Y-55378116D01*
X95656787Y-55349753D01*
X95676485Y-55323193D01*
X95698692Y-55298692D01*
X95723193Y-55276485D01*
X95749753Y-55256787D01*
X95778116Y-55239787D01*
X95808009Y-55225649D01*
X95839143Y-55214509D01*
X95871219Y-55206475D01*
X95903929Y-55201623D01*
X95936956Y-55200000D01*
X97063044Y-55200000D01*
X97096071Y-55201623D01*
X97096071Y-55201623D01*
G37*
D12*
X96500000Y-55975000D03*
D11*
G36*
X97096071Y-57251623D02*
X97128781Y-57256475D01*
X97160857Y-57264509D01*
X97191991Y-57275649D01*
X97221884Y-57289787D01*
X97250247Y-57306787D01*
X97276807Y-57326485D01*
X97301308Y-57348692D01*
X97323515Y-57373193D01*
X97343213Y-57399753D01*
X97360213Y-57428116D01*
X97374351Y-57458009D01*
X97385491Y-57489143D01*
X97393525Y-57521219D01*
X97398377Y-57553929D01*
X97400000Y-57586956D01*
X97400000Y-58463044D01*
X97398377Y-58496071D01*
X97393525Y-58528781D01*
X97385491Y-58560857D01*
X97374351Y-58591991D01*
X97360213Y-58621884D01*
X97343213Y-58650247D01*
X97323515Y-58676807D01*
X97301308Y-58701308D01*
X97276807Y-58723515D01*
X97250247Y-58743213D01*
X97221884Y-58760213D01*
X97191991Y-58774351D01*
X97160857Y-58785491D01*
X97128781Y-58793525D01*
X97096071Y-58798377D01*
X97063044Y-58800000D01*
X95936956Y-58800000D01*
X95903929Y-58798377D01*
X95871219Y-58793525D01*
X95839143Y-58785491D01*
X95808009Y-58774351D01*
X95778116Y-58760213D01*
X95749753Y-58743213D01*
X95723193Y-58723515D01*
X95698692Y-58701308D01*
X95676485Y-58676807D01*
X95656787Y-58650247D01*
X95639787Y-58621884D01*
X95625649Y-58591991D01*
X95614509Y-58560857D01*
X95606475Y-58528781D01*
X95601623Y-58496071D01*
X95600000Y-58463044D01*
X95600000Y-57586956D01*
X95601623Y-57553929D01*
X95606475Y-57521219D01*
X95614509Y-57489143D01*
X95625649Y-57458009D01*
X95639787Y-57428116D01*
X95656787Y-57399753D01*
X95676485Y-57373193D01*
X95698692Y-57348692D01*
X95723193Y-57326485D01*
X95749753Y-57306787D01*
X95778116Y-57289787D01*
X95808009Y-57275649D01*
X95839143Y-57264509D01*
X95871219Y-57256475D01*
X95903929Y-57251623D01*
X95936956Y-57250000D01*
X97063044Y-57250000D01*
X97096071Y-57251623D01*
X97096071Y-57251623D01*
G37*
D12*
X96500000Y-58025000D03*
G04 #@! TD*
M02*
