M48
;DRILL file {KiCad 5.0.0} date Sat Oct 27 20:33:45 2018
;FORMAT={3:3/ absolute / metric / suppress leading zeros}
FMAT,2
METRIC,TZ
T1C0.400
T2C1.000
T3C1.020
T4C2.000
%
G90
G05
M71
T1
X74600Y-71785
X74800Y-60400
X74800Y-69300
X75400Y-61400
X75400Y-65500
X76300Y-69500
X76400Y-62900
X76400Y-68000
X78200Y-73350
X78200Y-78450
X79000Y-56200
X80600Y-57100
X80600Y-68000
X80600Y-73000
X81300Y-55000
X81500Y-66700
X81500Y-70500
X82500Y-69300
X82500Y-75600
X82850Y-88000
X83660Y-82600
X83700Y-71800
X84250Y-84350
X87950Y-88000
X88500Y-61600
X88500Y-65500
X88975Y-78675
X92200Y-84350
X100700Y-80000
X100875Y-84700
X113100Y-64800
X114800Y-58100
X118900Y-65160
X122825Y-57800
T2
X135000Y-82000
X135000Y-84540
X130300Y-70060
X130300Y-72600
X123500Y-84000
X126040Y-84000
X134600Y-70100
X134600Y-72640
X104000Y-60000
X106500Y-60000
X109000Y-60000
T4
X102100Y-67000
X110900Y-67000
T3
X127420Y-59430G85X127420Y-60950
G05
X133260Y-57900G85X131740Y-57900
G05
X133260Y-64000G85X131740Y-64000
G05
T0
M30
